<?xml version="1.0" encoding="UTF-8"?>
<svg id="Layer_2" data-name="Layer 2" xmlns="http://www.w3.org/2000/svg" viewBox="0 0 815.9 566.6">
  <defs>
    <style>
      .cls-1 {
        fill: #fff;
      }
    </style>
  </defs>
  <g id="Layer_1-2" data-name="Layer 1">
    <g>
      <path class="cls-1" d="M321.16,256.55c-.18,.59-.36,1.18-.53,1.77-.35,1.24-.68,2.49-.99,3.76-.15,.63-.3,1.27-.44,1.91-.14,.65-.27,1.3-.4,1.95-.4,2.05-.73,4.14-.99,6.24-.09,.71-.17,1.42-.24,2.14-.07,.73-.13,1.46-.19,2.19-.05,.74-.1,1.49-.14,2.24-.08,1.55-.12,3.1-.12,4.67s.04,3.04,.12,4.55c.04,.75,.08,1.5,.14,2.24,.05,.73,.12,1.46,.19,2.19,.07,.72,.15,1.43,.24,2.14,.26,2.1,.59,4.18,.99,6.24,.13,.65,.26,1.3,.4,1.95,.29,1.29,.6,2.58,.93,3.85h0c.32,1.23,.67,2.43,1.04,3.63,.18,.58,.37,1.15,.56,1.73,.57,1.72,1.19,3.42,1.86,5.09h0c.21,.53,.42,1.05,.64,1.57,.65,1.53,1.33,3.04,2.06,4.53,.46,.94,.94,1.88,1.43,2.8h0c.5,.93,1.01,1.84,1.53,2.75h0c15.69,27.23,45.1,45.58,78.71,45.58,50.09,0,90.84-40.75,90.84-90.84,0-1.61-.04-3.2-.13-4.79-.11-2.28-.32-4.53-.6-6.77-.09-.7-.19-1.39-.29-2.09-.21-1.38-.44-2.76-.72-4.12h0c-.26-1.31-.55-2.61-.86-3.89-9.68-39.73-45.58-69.3-88.25-69.3s-75.36,27.01-86.79,64.09Zm6.07,59.11h0c-.43-1.05-.83-2.11-1.2-3.18-.19-.53-.38-1.07-.56-1.61-.37-1.11-.72-2.24-1.05-3.37-.34-1.17-.65-2.35-.94-3.54-.15-.6-.29-1.21-.42-1.82-.28-1.26-.53-2.52-.75-3.8-.23-1.31-.43-2.64-.6-3.98-.27-2.13-.47-4.29-.58-6.47-.07-1.48-.11-2.97-.11-4.47,0-47.95,39-86.94,86.94-86.94,37.67,0,69.82,24.08,81.89,57.65,.19,.54,.38,1.07,.56,1.61,.77,2.3,1.45,4.64,2.03,7.02,.14,.61,.28,1.21,.42,1.82,.28,1.26,.53,2.52,.75,3.8,.23,1.32,.43,2.64,.6,3.98,.27,2.14,.47,4.29,.58,6.47,.07,1.48,.11,2.97,.11,4.47,0,47.94-39,86.94-86.95,86.94-35.36,0-65.86-21.22-79.46-51.6-.01-.01,0-.01,0-.01-.44-.98-.86-1.97-1.26-2.97Z"/>
      <path class="cls-1" d="M815.9,283.39c-2.65-.66-5.3-1.33-7.95-1.99h-.01l-182.8-42.15c5.89-9.57,11.05-19.65,15.35-30.04l.66-1.59-.05-.03,.04-.11-1.5-.85c-12.54-7.08-25.78-13.07-39.37-17.81-2.76-.96-5.55-1.87-8.36-2.74-2.74-5.2-5.76-10.35-8.98-15.35,8.87-7.43,20.47-20.4,23.42-23.88,6.7-7.86,10.78-14.92,12.63-18.43,1.26-2.39,4.61-8.77,7.25-17.6,.66-2.25,1.05-3.84,1.39-5.25,.48-2.02,.89-3.75,2.02-6.82,1.54-4.22,3.48-8.35,5.75-12.29,1.27-2.22,3.41-5.92,6.91-10.07,3.45-4.11,6.65-6.75,8.02-7.87l.25-.21c7.58-6.28,14.55-15.65,19.78-23.75,.29-.44,.57-.88,.83-1.3,.39-.61,.76-1.2,1.11-1.77,.36-.59,.71-1.16,1.04-1.71,.04-.06,.07-.11,.1-.17,.63-1.03,1.2-2,1.7-2.88,.18-.31,.35-.61,.52-.9,.02-.03,.03-.05,.04-.08,.31-.54,.62-1.08,.91-1.61,.02-.04,.04-.08,.07-.12,4.23-7.68,6.95-13.99,8.28-17.26,.17-.42,.32-.79,.44-1.11,.04-.09,.08-.18,.11-.27,.12-.31,.24-.61,.35-.91,.22-.58,.45-1.17,.67-1.76,.95-2.56,1.69-4.76,2.24-6.48l2.06-6.23-5.68,5.51c-1.9,1.84-3.84,3.66-5.8,5.44h0c-3.1,3.18-6.03,5.92-8.69,8.25-1.01,.99-2.09,1.92-3.22,2.81-1.19,1.05-2.44,2.02-3.75,2.93-.05,.03-.09,.07-.13,.1-3.9,3-7.17,5.16-10.2,6.96-.25,.15-.5,.3-.74,.44-.22,.13-.44,.25-.66,.38-2.01,1.17-4.28,2.43-7.36,3.69-3.51,1.44-6.73,2.35-9.47,2.95-1.73,.51-3.95,1.19-6.88,2.15-12.9,4.22-19.39,6.34-25.77,10.12-7.57,4.48-13.45,9.83-17.05,13.52-2.65,2.72-4.15,4.62-5.47,6.3-1.62,2.06-2.89,3.69-5.78,6.17-4.77,4.12-9.17,6.37-15.25,9.49-5.67,2.9-10.2,4.79-20.13,8.65-2.04,.8-4.11,1.59-6.18,2.38-.02-.01-.05-.02-.08-.03-3.87-2.04-9.17-4.83-16.49-6.32-7.67-1.55-13.78-.92-17.82-.5-.65,.06-1.27,.14-1.9,.22-.61,.23-1.25,.37-1.89,.42-.52,.17-1.06,.28-1.65,.34l-.45,.18s-.05,.01-.08,.02c-.43,.09-.86,.16-1.3,.22-.03,.01-.06,.02-.09,.04-14.69-6.26-29.88-10.8-45.39-13.62-.14-.22-.3-.43-.45-.65-2.05-2.93-4.16-5.8-6.36-8.61-8.54-10.94-18.2-21.09-28.74-30.15v-.2c-.78-.46-1.55-.94-2.31-1.44-.53,.59-1.05,1.15-1.58,1.69-.54,.54-1.13,1.08-1.72,1.6-9.7,9.15-18.7,19.14-26.76,29.74-1.77,2.33-3.5,4.7-5.19,7.11-.15,.22-.31,.43-.45,.65-15.75,2.7-31.24,7.15-46.15,13.3-.75-.18-1.49-.36-2.23-.54-.75-.04-1.47-.16-2.15-.37v.04c-.72-.09-1.46-.17-2.21-.24-6.09-.55-12.42-.26-18.3,.84-3.4,.63-9.79,1.82-16.85,5.46-3.83-4.53-8.01-8.73-12.5-12.54-7.87-6.7-14.92-10.79-18.43-12.63-2.4-1.26-8.77-4.62-17.61-7.25-2.24-.67-3.83-1.05-5.24-1.39-2.02-.48-3.76-.9-6.82-2.02-4.22-1.55-8.35-3.48-12.29-5.76-2.22-1.27-5.93-3.4-10.07-6.9-3.24-2.72-5.56-5.28-6.95-6.91-.04-.05-.08-.11-.13-.16-.18-.23-.38-.48-.62-.75-.11-.15-.24-.3-.38-.46-.63-.76-1.4-1.64-2.28-2.59-.13-.14-.26-.27-.39-.41-.31-.33-.63-.66-.95-.98-.85-.88-1.71-1.71-2.58-2.51-1.3-1.18-2.62-2.29-4.02-3.39-1.34-1.05-2.76-2.08-4.28-3.14-.02-.02-.04-.03-.06-.04-.45-.32-.91-.64-1.38-.96-1.04-.71-2.13-1.44-3.28-2.2-.12-.08-.23-.15-.35-.23-5.69-3.75-12.47-8.03-20.28-12.6-.02-.01-.05-.03-.07-.04-6.66-3.38-13.68-6.3-20.88-8.68l-7.52-2.48,5.51,5.68c3.24,3.35,6.39,6.79,9.42,10.3,6.1,4.83,9.62,11.53,14.2,17.82h.06c3.05,4.2,5.2,7.79,7.2,12.33,1.08,2.45,1.35,3.44,1.94,5.64,.55,1.98,1.36,5,3.28,10.83,4.22,12.91,6.34,19.38,10.12,25.77,4.48,7.57,9.82,13.46,13.52,17.05,2.72,2.66,4.62,4.15,6.3,5.47,2.06,1.62,3.68,2.89,6.17,5.78,4.12,4.78,6.37,9.17,9.49,15.26,2.91,5.66,4.79,10.19,8.64,20.12,3.05,7.81,6.08,15.83,9.01,23.81-1.75,2.93-3.35,5.73-4.84,8.5-3.41,1.06-6.79,2.18-10.14,3.4-13.33,4.84-26.23,11.06-38.32,18.48l-1.47,.91,.05,.11-.04,.03,.72,1.56c4.69,10.28,10.11,20.25,16.19,29.77L7.95,281.4c-2.65,.66-5.3,1.33-7.95,1.99,2.65,.61,5.3,1.21,7.95,1.81l184.74,42.59c-.16,1.38-.32,3.04-.4,4.94-.01,.28-.02,.56-.03,.85-.01,.29-.02,.59-.02,.89-.02,1.03-.01,2.11,.04,3.25,.06,1.32,.17,2.71,.35,4.16,.07,.61,.16,1.22,.26,1.84,.29,1.87,.71,3.82,1.29,5.83,1.26,4.43,2.82,7.59,4.23,10.44,1.93,3.92,4.58,9.28,9.62,14.77,5.3,5.77,10.61,8.85,14.12,10.89,2.21,1.27,4.34,2.35,6.5,3.3,1.81,3.09,3.73,6.16,5.72,9.15-5.16,3.56-16.57,11.96-24.81,21.65-7.4,8.68-12.18,17.58-12.38,17.95l-.24,.47c-1.27,2.4-4.62,8.79-7.26,17.61-.67,2.25-1.05,3.85-1.39,5.26-.49,2.01-.9,3.75-2.02,6.81-1.55,4.23-3.48,8.36-5.75,12.28-1.28,2.23-3.43,5.95-6.91,10.08-3.51,4.17-6.71,6.79-8.08,7.92l-.2,.16c-13.49,11.18-25.08,32.19-28.31,38.36-3.71,7.11-6.89,14.66-9.45,22.43l-2.49,7.52,5.69-5.51c5.9-5.73,12.15-11.22,18.58-16.32,9.04-7.18,14.02-11.12,21.87-14.56,2.44-1.08,3.44-1.35,5.63-1.95,1.99-.54,5-1.36,10.84-3.27,12.89-4.22,19.36-6.33,25.76-10.13,7.62-4.51,13.48-9.84,17.06-13.51,2.65-2.72,4.15-4.63,5.48-6.31,1.61-2.06,2.88-3.68,5.76-6.17,4.77-4.1,8.94-6.24,15.26-9.48,1.91-.98,3.72-1.86,5.56-2.69,0,.04,.02,.08,.02,.12,.03-.02,.06-.03,.09-.04,.27,1.16,.53,2.29,.79,3.37l.41,1.67,1.7-.19c14.3-1.63,28.54-4.57,42.32-8.73,2.8-.84,5.62-1.74,8.36-2.69,11.72,5.77,24,10.4,36.61,13.85,2.16,.21,4.21,.75,6.1,1.58,.39,.09,.78,.19,1.17,.29l-.23,.02c.08,.04,.16,.08,.23,.12l-.21,.02c.37,.18,.73,.39,1.09,.59,2.37,1.16,4.47,2.76,6.22,4.72,.05,.03,.1,.07,.14,.11,.72,.55,1.41,1.13,2.11,1.73,3.94,3.11,8.27,5.82,12.66,7.92,3.85,1.83,11.85,5.64,22.63,6.03,.41,.01,.82,.02,1.23,.02,.72-.08,1.44-.11,2.15-.05,.59-.06,1.17-.09,1.76-.09,.08,0,.16,.01,.24,.01,2.13-.16,4.02-.44,5.72-.68h.1c4.33-.64,10.25-1.49,17.05-4.61,7.15-3.25,11.71-7.34,14.73-10.05,.12-.12,.24-.23,.36-.34,.6-.63,1.22-1.22,1.88-1.77,.23-.23,.48-.47,.71-.7l-.03,.15c1.42-1.12,2.99-2.07,4.64-2.8l.05-.25c.11-.03,.23-.05,.34-.07,.01,0,.01-.01,.02-.01l-.02,.15c1.58-.66,3.24-1.13,4.93-1.38,12.95-3.38,25.59-8.02,37.64-13.83l.36,.15,.07-.07c3.26,1.11,6.53,2.15,9.82,3.09,11.31,3.25,22.95,5.56,34.67,6.87,.1-.01,.19-.03,.29-.04,.3,.27,.61,.52,.91,.79,7.87,6.7,14.92,10.78,18.43,12.63,2.39,1.26,8.77,4.6,17.6,7.24,2.25,.67,3.84,1.05,5.25,1.4,2.02,.48,3.76,.89,6.83,2.02,4.21,1.54,8.35,3.48,12.28,5.74,2.22,1.28,5.92,3.42,10.08,6.92,4.11,3.45,6.74,6.65,7.87,8.02l.21,.26c11.18,13.5,32.18,25.07,38.36,28.3,7.12,3.71,14.67,6.9,22.43,9.46l7.52,2.48-5.52-5.68c-5.75-5.94-11.25-12.19-16.31-18.58-7.51-9.45-11.27-14.33-14.58-21.87-1.07-2.44-1.34-3.44-1.93-5.63-.55-1.99-1.37-5-3.27-10.84-4.23-12.9-6.35-19.39-10.13-25.77-4.48-7.57-9.82-13.45-13.51-17.05-2.73-2.65-4.63-4.15-6.32-5.47-2.05-1.62-3.67-2.89-6.16-5.78-4.11-4.77-6.37-9.17-9.49-15.25-2.9-5.67-4.79-10.2-8.65-20.12-3.03-7.79-6.04-15.76-8.96-23.73t.02-.02c.09-.16,.19-.32,.28-.48,.17-.09,.35-.17,.52-.26,.2-.15,.4-.3,.61-.44,.56-.27,1.13-.56,1.71-.87,.24-.1,.5-.18,.76-.26,.8-.44,1.61-.88,2.42-1.36,5.24-3.14,10.19-7.09,14.3-11.44,2.94-3.09,9.04-9.53,12.73-19.65,1.58-4.34,2.18-7.82,2.71-10.9,.59-3.42,1.35-7.85,1.2-13.24-.02-1.15-.1-2.35-.22-3.59l.1-.03s-.02-.09-.03-.14l184.41-42.52c2.65-.6,5.3-1.19,7.95-1.79Zm-25.49-2.04h-174.44c0-.16,0-.33-.01-.49,0-.03,.01-.06,.01-.09,0-.4-.01-.8-.02-1.2,0-.43-.01-.86-.03-1.28v-.26c-.03-1.08-.06-2.16-.11-3.23-.03-.76-.06-1.52-.1-2.28-.02-.44-.05-.87-.07-1.3-.06-1.06-.13-2.12-.21-3.18-.1-1.36-.21-2.71-.34-4.06-.06-.76-.14-1.52-.22-2.28-.11-1.07-.23-2.14-.35-3.2-.12-1.04-.25-2.08-.39-3.11,2.14-2.85,4.22-5.74,6.21-8.7,.67-.99,1.32-1.99,1.98-3,.06-.13,.11-.27,.18-.4,.12-.19,.25-.38,.37-.57l167.54,38.63Zm-169.35-43.04c-.73,1.16-1.47,2.32-2.23,3.48-.56,.87-1.14,1.73-1.72,2.6-1.24,1.82-2.5,3.64-3.8,5.42-1.06,1.48-2.15,2.95-3.27,4.4-6.1,7.98-12.79,15.53-19.99,22.55-1.86-.99-3.78-1.85-5.69-2.55-3.2-1.17-7.58-2.78-13.34-2.63-4.62,.13-8.33,1.35-10.54,2.08-2.35,.78-3.69,1.44-4.86,2.03-1.25,.62-2.31,1.15-4.47,1.77-3.86,1.1-7.07,1.29-8.64,1.31-3.6,.04-6.3-.63-9.14-1.33-2.81-.69-7.06-1.73-12.02-4.54-4.24-2.41-7.13-5.04-8.48-6.4-2.76-2.78-5.07-5.98-6.85-9.49-.01-.02-.01-.03-.01-.05-.17-.7-.38-1.41-.58-2.1l97.41-32.42,3.69-1.23,28.61-9.51c-4.04,9.18-8.76,18.1-14.08,26.61Zm-8.96,44.99c0,4.84-.17,9.73-.52,14.58-.35-.5-.68-.98-1-1.44-3.91-5.61-7-10.05-12.68-14.56-1.37-1.09-2.8-2.11-4.28-3.05,6.08-5.99,11.8-12.36,17.12-19.05,.56,4.84,.95,9.74,1.17,14.63,.13,2.96,.19,5.93,.19,8.89Zm-54.08,43.04l-.08,.05,11.57,9.71-14.81,.73,.05,.14h-.04l.92,2.49c.35,.92,.73,2.16,1.04,3.64,.04,.22,.08,.44,.12,.67,.04,.26,.08,.53,.12,.81,.09,.74,.16,1.52,.19,2.35,.02,.47,.02,.94,0,1.43-.07,1.9-.38,3.96-1.05,6.12-1.18,3.72-3.13,6.54-4.91,8.52-1.45-6.92-6.27-21.43-21.74-28.84-10.63-5.08-22.83-5.09-33.35-.32,7.01-12.22,11.45-25.88,12.9-40.09,2.08,3.25,4.52,6.24,7.3,8.93,2.4,2.31,8.76,7.94,16.28,10.44,15.92,5.26,32.06-5.35,38.32-10.21,.03,.34,.06,.69,.08,1.05,.17,3.41-.28,7.96-2.77,12.49-2.34,4.26-5.63,6.92-7.97,8.39l-2.26,1.42,.09,.08Zm36.41-135.24c1.52,.49,3.05,1,4.57,1.53,11.93,4.15,23.58,9.29,34.71,15.31l-28.38,9.44-3.7,1.23-97.41,32.41c-.5-1.49-1.05-3.01-1.64-4.52l-.02-.03c-.02-.43-.03-.86-.04-1.29-.02-.88-.01-1.76,.02-2.63,0-.57,.05-1.13,.09-1.69s.1-1.12,.16-1.67c.04-.36,.09-.71,.13-1.06,.34-2.42,.88-4.8,1.61-7.13,2.72-8.68,7.43-14.15,9.96-17.08,2.39-2.78,5.1-5.92,9.71-8.45,2.6-1.42,4.18-1.76,6.37-2.25,1.56-.34,3.33-.72,5.8-1.56,4-1.36,12.32-4.2,18.97-11.79,2.08-2.38,3.66-4.85,4.86-7.17,9.81,1.64,19.52,3.91,29.04,6.76,1.73,.52,3.47,1.07,5.19,1.64Zm-7.85-6.58c-8.12-2.31-16.36-4.18-24.68-5.61,1.06-2.75,1.57-4.99,1.83-6.14,.72-3.11,.82-5.49,1-9.43l.06-1.28c.05-.93,.09-1.92,.12-2.95,0-.35,.02-.7,.03-1.06,.04-1.32,.06-2.72,.02-4.2,0-.3,0-.6,0-.91,4.53,5.43,8.79,11.12,12.71,17-.08,.05-.15,.11-.22,.16l.07,.09s-.04,.03-.06,.04l2.29,3.14s.09-.06,.13-.09c2.36,3.68,4.6,7.44,6.71,11.24ZM677.68,22.14l.68,.04-.88,1.64-2.11,3.9-5.72,10.6-.06,.1c-5.21,8.59-12.98,19.83-21.49,26.88l-.25,.21c-1.45,1.19-4.84,3.98-8.53,8.36-3.72,4.42-6.05,8.46-7.3,10.64-2.39,4.13-4.41,8.47-6.04,12.89-1.19,3.28-1.64,5.13-2.15,7.25-.34,1.43-.69,2.9-1.33,5.04-2.53,8.47-5.76,14.61-6.97,16.92-1.42,2.71-5.45,9.85-12.14,17.71-4.21,4.95-14.78,16.48-22.62,23.13-4.98-7.42-10.46-14.55-16.32-21.22-.27-2.14-.65-4.4-1.19-6.77-.42-1.87-.94-3.73-1.53-5.59,.02-.02,.05-.03,.07-.05-.02-.04-.04-.07-.05-.11,.85-.65,1.7-1.27,2.55-1.89,1.84-1.34,3.17-2.25,4.71-3.3,1.68-1.14,3.57-2.42,6.65-4.62,4.94-3.53,7.43-5.29,8.7-6.43,4.45-4,6.95-7.75,11.08-13.97,2.15-3.24,3.05-4.84,3.92-6.39,.84-1.5,1.64-2.9,3.58-5.78,2.96-4.4,6.19-8.64,9.62-12.62,3.9-4.56,5.87-6.84,9.1-9.51,3.05-2.53,5.24-3.74,9.61-6.15,1.14-.64,2.43-1.35,3.91-2.18,3.21-1.82,6.41-3.75,9.5-5.62,1.85-1.12,3.7-2.24,5.56-3.34,4.53-2.68,9.38-6.95,14.54-12.78,.05-.06,.09-.11,.14-.17,1.98-2.35,3.99-4.84,6.02-7.49,.31-.4,.61-.8,.92-1.2,.19-.25,.37-.49,.55-.74,1.89-2.51,3.64-4.98,5.27-7.39Zm-137.49,77.33h0c10.07-3.89,14.67-5.82,20.49-8.8,6.32-3.24,10.89-5.58,16.02-10,3.17-2.73,4.61-4.58,6.29-6.71,1.27-1.6,2.69-3.43,5.2-5.99,3.44-3.53,9.04-8.62,16.25-12.89,6.02-3.56,12.36-5.64,24.99-9.77,5.75-1.89,8.7-2.69,10.65-3.22,2.23-.6,3.47-.94,6.18-2.13,3.15-1.37,5.87-2.85,8.53-4.54,.12-.09,.25-.17,.37-.25,.02-.02,.03-.03,.05-.04,0,0,.01,0,.01-.01,.24-.16,.49-.33,.73-.51,0,0,.03-.01,.04-.02,.32-.22,.64-.45,.96-.67,.21-.15,.41-.29,.61-.44,.58-.4,1.16-.82,1.74-1.24,.01,0,.01-.01,.02-.01,.31-.23,.63-.46,.95-.69,.02-.01,.04-.03,.06-.05,.5-.36,1.01-.73,1.52-1.11,0,0,0-.01,0-.01,.57-.42,1.14-.85,1.72-1.29,2.33-1.76,4.58-3.52,6.73-5.26,.83-.67,1.65-1.35,2.46-2.02l.42,.03c-.47,.66-.96,1.32-1.45,1.99-.94,1.29-1.92,2.58-2.93,3.89-1.25,1.63-2.55,3.27-3.89,4.92-2.07,2.55-4.12,4.97-6.15,7.28l-.03,.03c-1.03,1.06-2.04,2.04-3.03,2.95-2.58,2.37-5.07,4.26-7.45,5.66-1.87,1.11-3.73,2.23-5.6,3.36-3.06,1.86-6.23,3.77-9.39,5.56-1.47,.82-2.75,1.53-3.88,2.16-4.44,2.45-6.88,3.81-10.21,6.56-3.49,2.88-5.65,5.4-9.58,9.98-3.52,4.09-6.84,8.46-9.89,12.97-2.02,3.01-2.85,4.49-3.73,6.05-.84,1.49-1.71,3.02-3.79,6.15-4.28,6.46-6.53,9.72-10.43,13.23-1.11,.99-3.68,2.82-8.36,6.15-3.04,2.17-4.91,3.44-6.57,4.57-1.57,1.07-2.93,1.99-4.82,3.37-.56,.41-1.13,.82-1.69,1.24-1.02-2.63-2.2-5.17-3.51-7.59-2.04-3.75-6.28-11.54-14.76-18.18-1.73-1.35-3.34-2.44-4.86-3.35,.03-.02,.07-.03,.1-.04-.07-.02-.14-.04-.21-.06,1.04-.41,2.07-.82,3.11-1.21Zm-43.57-3.85h.04c.22-.03,.45-.07,.68-.09,.41-.05,.84-.1,1.27-.14,3.81-.4,9.55-.99,16.65,.45,5.12,1.04,9.13,2.75,12.45,4.4,1.07,.53,2.07,1.05,3.01,1.55,.52,.27,1.07,.56,1.62,.85,2.2,1.19,4.64,2.6,7.32,4.7,7.84,6.15,11.83,13.46,13.74,16.98,1.41,2.58,2.65,5.35,3.71,8.2,.47,1.29,.91,2.6,1.3,3.93,.4,1.33,.76,2.67,1.06,4.01,.04,.18,.08,.36,.12,.54,.31,1.38,.55,2.72,.75,4.01,.06,.45,.12,.89,.18,1.32,.08,.57,.14,1.13,.2,1.68,.13,1.29,.22,2.54,.28,3.74,.18,3.84,.02,7.2-.11,10.01l-.06,1.28c-.17,3.85-.27,5.97-.9,8.74-.29,1.28-.84,3.66-2.02,6.48-.48,1.16-1.06,2.39-1.78,3.66-.98,1.73-2.19,3.52-3.73,5.26-5.96,6.81-13.61,9.41-17.29,10.67-2.26,.77-3.92,1.13-5.38,1.45-2.32,.51-4.32,.94-7.42,2.63-5.21,2.87-8.3,6.45-10.78,9.32-2.71,3.15-7.76,9.01-10.72,18.46-.88,2.8-1.5,5.67-1.85,8.58-2.93-5.92-6.41-11.5-10.38-16.69h0c-.74-2.34-1.23-4.72-1.48-7.1-.04-.36-.07-.73-.1-1.09-.03-.44-.06-.87-.07-1.31-.04-.98-.04-1.95,0-2.93,.03-.53,.06-1.06,.11-1.58,.72-7.85,4.04-15.37,9.64-21.26,13.99-14.71,34.04-10.1,34.23-10.05l3.62,.87-.06-.14h.06s-1.35-3.46-1.35-3.46c-1.34-3.45-4.08-8.39-9.5-12.26-5.2-3.71-10.56-4.77-14.33-4.99l5.11-18.9-.04,.03,.04-.16-16.95,10.61c-1.25-3.49-3.19-6.69-5.69-9.36-1.45-1.56-3.01-2.81-4.58-3.85-.73-.39-1.43-.81-2.11-1.27-4.61-2.49-9.04-3.18-11.22-3.37l-3.31-.27,.06,.13h-.05l1.37,3.02c.13,.27,1.03,2.28,2.03,5.37,.06,.21,.13,.43,.2,.65l.21,.72c.16,.56,.32,1.15,.48,1.76t0,.02c.18,.69,.36,1.41,.52,2.16,.09,.4,.18,.81,.26,1.23v.02c.1,.45,.18,.91,.26,1.38,.04,.24,.08,.48,.12,.72,.12,.8,.24,1.62,.33,2.45,.14,1.27,.24,2.57,.27,3.88,.15,6.21-1.04,12.85-5.13,18.43-4.33,5.9-11.54,10.01-13.64,11.13-4.82,2.56-10.06,4.23-15.55,4.95h-.01c-6.02-2.17-12.22-3.76-18.53-4.75,.8-.34,1.59-.7,2.36-1.1,1.89-.95,5.64-3.09,9.57-6.68,4.61-4.21,7.19-8.38,8.73-10.86,1.59-2.58,3.24-5.25,4.48-9.16,.54-1.68,1.45-5.18,1.6-9.66,.04-1.01,.03-1.86-.02-2.59-.04-.95-.14-1.73-.25-2.46-.02-.19-.05-.38-.08-.57-.02-.16-.04-.31-.07-.47-.04-.27-.08-.55-.11-.86-.02-.12-.03-.24-.04-.37-.09-.78-.14-1.69-.15-2.88,0-2.25-.02-5.66,1.12-9.54,1.43-4.82,3.93-8.01,5.95-10.57,2.86-3.65,6.52-6.99,10.57-9.68,5.57-3.68,10.5-5.18,16.75-7.07,1.52-.47,3.19-.97,5.07-1.45,2.33-.92,4.82-1.44,7.33-1.44Zm-13.6,116.23c.01,.37,.02,.74,.04,1.12,.03,.74,.09,1.47,.18,2.21-9.45-10.43-21.03-18.88-34.06-24.66,3.67-.97,7.2-2.35,10.55-4.13,2.94-1.56,10.27-5.88,14.95-12.26,2.62-3.58,4.19-7.51,5.03-11.51,.06-.27,.11-.53,.16-.8,.06-.28,.11-.57,.15-.85,.05-.3,.1-.61,.14-.91,.1-.69,.17-1.39,.23-2.08,.03-.36,.06-.73,.08-1.1,.02-.39,.04-.78,.05-1.17,.04-1.19,.02-2.37-.04-3.54-.02-.46-.05-.91-.08-1.36-.48-6.73-2.25-12.72-3.53-16.27,3.42,.77,8.18,2.56,12.13,6.76,3.33,3.56,4.83,7.5,5.52,10.18l.65,2.59,12.91-8.08-3.86,14.29h.04l-.04,.13,2.66-.11c3.01-.13,8.9,.25,14.54,4.29,3.12,2.22,5.19,4.88,6.52,7.15-7.07-.75-22.31-.6-34.09,11.78-6.68,7.02-10.41,16.11-10.81,25.5l-.03,.93c0,.63,0,1.27,.01,1.9Zm1.21-117.54c-.39,.11-.78,.23-1.15,.34-6.55,1.98-11.72,3.55-17.77,7.55-1.47,.97-2.89,2.03-4.26,3.15l-.07-.33c-.54-.05-.82-.45-.85-.9v-.14c-.26-.15-.41-.4-.45-.68-.13-.17-.24-.35-.34-.56-.49-1.1-1.1-2.07-1.68-3.12-.5-.92-.75-1.94-1.29-2.84-.87-1.43-2.24-3.1-2.69-4.79-1.65-2.79-3.36-5.53-5.13-8.23,12.14,2.44,24.06,5.96,35.68,10.55Zm-48.64-21.82c1.36,1.74,2.69,3.51,3.99,5.3,.12,.16,.24,.33,.36,.5,.69,.93,1.36,1.88,2.02,2.83,.27,.37,.52,.75,.78,1.12,.12,.16,.22,.33,.34,.5,5.33,7.76,10.13,15.88,14.34,24.29l.31,1.33c-1.41,1.39-2.73,2.85-3.91,4.36-2.1,2.68-4.98,6.35-6.61,11.87-1.32,4.43-1.3,8.34-1.29,10.67,0,.51,.02,.98,.04,1.42,.03,.88,.09,1.61,.17,2.25,.02,.14,.03,.28,.05,.42,.06,.46,.12,.89,.18,1.29,.04,.28,.08,.56,.12,.84,.04,.25,.07,.5,.09,.76,.02,.18,.03,.36,.05,.55,.02,.28,.03,.58,.04,.9,0,.48,0,1.01-.01,1.62-.14,4.01-.95,7.12-1.43,8.61-1.09,3.45-2.54,5.8-4.08,8.28-1.52,2.47-3.83,6.19-8.04,10.04-3.59,3.28-7,5.22-8.7,6.08-3.54,1.79-7.34,3.01-11.29,3.61-.73-.04-1.46-.07-2.2-.09l-.73-102.1v-.43l-.02-3.46v-.43l-.22-30.29c9.35,8.32,17.96,17.5,25.65,27.36Zm-27.63,113.33c11.53,0,22.81,1.98,33.53,5.91,26.1,9.55,46.94,29.81,57.21,55.64l.13,.35c.86,2.17,1.63,4.36,2.29,6.49,1.62,5.15,2.8,10.42,3.54,15.76,.1,.77,.2,1.54,.29,2.31,.27,2.42,.46,4.85,.55,7.29,.05,1.24,.07,2.48,.07,3.73,0,.55-.01,1.12-.01,1.7-.01,.58-.03,1.17-.05,1.79-.98,27.67-13.73,53.68-35.02,71.46h-.1l-.49,.49c-10.41,8.56-22.24,14.77-35.16,18.46-8.68,2.46-17.7,3.71-26.79,3.71s-18.27-1.27-27.02-3.79l-.23-.22h-.51c-8.61-2.54-16.85-6.29-24.52-11.15l-.07-.05-.19-.12c-.71-.45-1.41-.92-2.11-1.39-1.38-.94-2.74-1.91-4.08-2.92-.54-.4-1.08-.81-1.6-1.23-.71-.55-1.4-1.11-2.08-1.68-.81-.67-1.59-1.34-2.36-2.03-.4-.35-.78-.7-1.17-1.04-.76-.7-1.52-1.42-2.26-2.14-4.75-4.64-9.02-9.76-12.78-15.34-6.37-9.44-10.97-19.8-13.72-30.69-.18-.72-.36-1.46-.52-2.19-.38-1.68-.71-3.37-1-5.07-.15-.91-.29-1.82-.42-2.73-.14-.97-.26-1.94-.37-2.92-.26-2.36-.43-4.74-.52-7.12-.05-1.22-.07-2.44-.07-3.66,0-8.31,1.05-16.57,3.11-24.52l.06-.23c.54-2.08,1.17-4.22,1.89-6.37,.46-1.37,.95-2.73,1.47-4.04,3.47-8.99,8.25-17.41,14.22-25.01,11.43-14.59,26.66-25.59,44.04-31.79,10.51-3.75,21.55-5.65,32.82-5.65Zm10.27,225.65c0,.18,0,.35,.01,.53,.02,.77,.08,1.54,.16,2.3,1.66,14.99,15.06,25.75,21.24,29.98-3.21,1.39-8.1,2.71-13.71,1.63-4.78-.91-8.32-3.22-10.44-4.99l-2.05-1.71-5.72,14.18-5.33-13.99-2.08,1.66c-2.37,1.87-7.36,5.02-14.29,5.08-3.83,.05-7.07-.92-9.49-1.97,6.17-3.57,18.34-12.64,20.58-29.53,.32-2.41,.42-4.82,.3-7.19-.05-.88-.12-1.75-.22-2.61-.06-.51-.13-1.03-.21-1.53-1.16-7.62-4.56-14.75-9.78-20.51,6.81,1.42,13.76,2.14,20.76,2.14s14.28-.75,21.24-2.23c-2.39,2.93-4.43,6.12-6.09,9.53-1.46,2.99-4.85,10.79-4.89,18.7,0,.18,0,.36,0,.53Zm-156.91-74.64l.05-.14-15.09-1.05,11.5-9.27-.09-.06,.08-.07-2.22-1.46c-2.51-1.68-7.05-5.45-9.24-12.02-.48-1.43-.78-2.82-.97-4.15-.03-.2-.05-.39-.07-.58-.06-.55-.1-1.09-.12-1.61-.04-1.2,.01-2.31,.12-3.31,4.49,4.07,14.27,11.2,27.59,11.19,2.22,0,4.55-.2,6.96-.64,11.61-2.15,21.5-9.33,27.21-19.4,.09,.84,.19,1.69,.31,2.52,.11,.83,.23,1.65,.36,2.48,.27,1.71,.58,3.41,.94,5.1,2.18,10.5,6.04,20.57,11.45,29.91-3.56-1.4-7.26-2.36-11.06-2.89-3.29-.47-11.76-1.28-19.3,1.13-15.98,5.09-22.8,23.17-25.01,30.77-2.31-2.62-5.13-6.89-5.86-12.63-.17-1.4-.2-2.74-.13-3.99,.02-.38,.06-.76,.09-1.13,.04-.32,.08-.64,.12-.95,.33-2.11,.89-3.9,1.44-5.27l1-2.48h-.06Zm50.52-176.45h.03l-3.66-14.66,12.5,8.15,.71-2.56c.81-2.91,3.01-8.39,8.58-12.51,3.11-2.3,6.32-3.45,8.91-4.01-1.77,3.96-4.12,10.87-3.88,19.04,.03,1.02,.1,2.06,.22,3.12,.03,.28,.06,.56,.1,.84,.1,.79,.23,1.58,.39,2.38,.68,3.48,1.91,7.09,3.88,10.73,5.59,10.31,15.38,17.48,26.64,19.84-12.91,5.8-24.44,14.25-33.92,24.85,.07-1.34,.1-2.68,.06-4.02-.03-1.39-.12-2.77-.27-4.16-.06-.56-.13-1.12-.21-1.67-.07-.56-.16-1.11-.26-1.67-.58-3.27-2.42-11.58-7.03-18-9.75-13.56-28.94-14.52-36.91-14.28,1.79-3,4.95-6.92,10.12-9.34,4.4-2.08,8.62-2.29,11.38-2.11l2.66,.18-.04-.14Zm62.45-77.89c.11-.16,.22-.32,.33-.48,.27-.4,.54-.8,.82-1.19,.47-.67,.94-1.34,1.42-2,.18-.25,.35-.5,.53-.74,.13-.17,.25-.34,.38-.51h.01c.93-1.31,1.89-2.6,2.87-3.88,7.65-10.09,16.17-19.62,25.36-28.38V181.82c-1.26,.01-2.52,.06-3.76,.14-5.19-1.39-10.01-3.64-14.32-6.7-7.41-5.27-11.16-11.44-13.17-14.75-1.9-3.14-4.05-6.69-5.03-11.84-.09-.46-.15-.89-.22-1.29-.02-.15-.04-.3-.05-.44-.02-.19-.04-.37-.05-.55-.01-.04-.01-.09-.01-.14,0-.15-.02-.29-.02-.43-.02-.5-.02-.97,0-1.43,.03-.76,.11-1.52,.19-2.35,.07-.7,.15-1.44,.2-2.27,.04-.5,.07-1.03,.08-1.6,.02-.65,.03-1.35,.02-2.13-.01-.66-.02-1.43-.05-2.29-.02-.52-.04-1.07-.08-1.65-.05-.78-.12-1.61-.22-2.49-.03-.27-.07-.55-.1-.83-.08-.57-.17-1.15-.27-1.74h0c-.66-3.88-1.98-8.37-4.64-12.82-1.61-2.69-3.45-4.94-5.27-6.78,4.49-8.61,9.53-16.95,15.05-24.95Zm-5.47,.97c-2.36,3.54-4.62,7.15-6.78,10.82-.07,.14-.11,.3-.19,.45-.59,1.17-1.27,2.3-1.95,3.41-.61,.99-1.26,1.96-1.8,2.98-.49,.93-.95,1.91-1.77,2.6-.36,.32-.79,.31-1.13,.13h0s-.08-.05-.12-.07c-.03-.02-.05-.03-.07-.05-1.8-1.36-3.31-2.27-4.16-2.78-2.74-1.64-4.97-2.48-8.67-3.86l-1.19-.45c-2.37-.89-5.14-1.93-8.34-2.89h0s-.06-.01-.09-.02c11.8-4.49,23.95-7.93,36.27-10.27Zm-85.74,19.1c1.17-.7,2.32-1.33,3.46-1.88,6.28-3.1,11.96-4.16,15.04-4.74,5.53-1.03,11.5-1.3,17.23-.79,.16,.02,.31,.04,.46,.05,.16,.01,.31,.03,.45,.05,1.83,.04,3.57,.29,5.21,.78,.12,.02,.23,.06,.34,.09v-.04c.32,.06,.62,.13,.93,.2,.02,0,.05,0,.08,.01,5.42,1.15,9.84,2.81,13.35,4.13l1.2,.45c3.6,1.35,5.59,2.1,8.02,3.56,1.13,.68,3.22,1.93,5.54,3.93,.96,.81,1.96,1.75,2.95,2.83,1.33,1.46,2.66,3.17,3.84,5.16,1.8,3.02,2.92,6.09,3.63,8.93,.09,.41,.19,.82,.27,1.22t0,.02c.12,.53,.21,1.04,.29,1.55,.08,.52,.16,1.02,.22,1.51,.02,.21,.05,.41,.07,.61,.27,2.4,.3,4.44,.32,5.9,.01,.96,0,1.81-.05,2.57-.01,.29-.03,.56-.05,.82-.06,.74-.12,1.41-.19,2.04-.15,1.51-.29,2.88-.2,4.57v.03c.02,.28,.04,.58,.07,.89,.01,.18,.03,.36,.06,.55,.06,.6,.16,1.25,.29,1.96,1.11,5.85,3.56,9.89,5.53,13.14,2.16,3.55,6.17,10.17,14.24,15.91,2.34,1.65,4.81,3.1,7.4,4.31-6.43,.95-12.75,2.5-18.89,4.68-.03,.01-.07,.02-.1,.03,.02,0,.04-.02,.07-.03-.01-.01-.02-.01-.02,0-13.04-.11-24.93-7.24-31.11-18.65-2.13-3.92-3.28-7.84-3.78-11.57-.03-.25-.06-.5-.09-.75-.1-.94-.16-1.87-.19-2.78-.3-11.47,5.01-20.31,5.08-20.44l1.94-3.17h-.08l.08-.13-3.72,.21c-3.7,.21-9.24,1.29-14.6,5.26-5.14,3.8-7.81,8.59-9.18,12.11l-16.51-10.78,.04,.15-.03-.02,4.82,19.27c-3.7,.11-7.34,.97-10.63,2.52-8.51,3.99-12.35,11.41-13.62,14.41l-1.27,3.06h.07s-.06,.13-.06,.13l3.29-.37c1.06-.12,25.96-2.74,36.89,12.45,4.26,5.94,5.94,14.06,6.35,16.41,.19,1.09,.34,2.18,.46,3.26,.03,.38,.07,.76,.1,1.13,.04,.5,.07,1.01,.09,1.51,.06,1.32,.06,2.65,0,3.97-.02,.54-.05,1.08-.1,1.62-.03,.4-.07,.81-.11,1.22-.13,1.17-.31,2.35-.53,3.51h0c0,.08-.02,.14-.03,.2h-.01c.01-.06,.03-.12,.04-.19-3.97,5.12-7.44,10.57-10.34,16.32-.04-.47-.09-.93-.15-1.4-.01-.06-.01-.12-.02-.18-.05-.41-.11-.82-.17-1.23-.32-2.08-1.19-6.31-3.4-11.17-2.58-5.68-5.74-9.41-7.63-11.65-1.96-2.31-3.99-4.71-7.33-7.1-2.48-1.76-5.57-3.37-8.68-4.5-2.45-.89-3.92-1.14-5.34-1.38-1.23-.2-2.5-.41-4.59-1.08-2.15-.69-5.39-1.73-8.72-4.02-4.15-2.85-6.41-6.21-8.22-8.92-2.59-3.85-4.64-8.36-5.94-13.05-.58-2.06-.95-4-1.2-5.88-.18-1.38-.28-2.74-.34-4.1-.08-1.88-.08-3.78-.05-5.79,.02-.72,.04-1.46,.05-2.21,0-.24,0-.49,0-.74v-.14c.04-1.71,.1-3.6,.27-5.7,.17-2.02,.45-4.26,.91-6.71,0,0,0-.01,0-.02,.09-.44,.17-.89,.27-1.35,.21-.95,.44-2.03,.73-3.21,.31-1.27,.69-2.65,1.17-4.12,.84-2.56,2-5.39,3.69-8.36,3.39-6.01,7.29-9.81,10.42-12.87,2.12-2.06,4.51-4.4,8.05-6.79,.63-.42,1.27-.82,1.89-1.2ZM152.79,15.82c.21,.11,.44,.22,.68,.35l.17,.1,2.42,1.38,6.11,3.47,1.89,1.08c.63,.38,1.25,.76,1.89,1.16,2.1,1.31,4.28,2.75,6.5,4.34t.02,.02c1,.71,2.01,1.45,3.02,2.24,.4,.29,.8,.6,1.2,.91,.05,.04,.1,.08,.15,.11,.44,.35,.88,.7,1.31,1.05,1.54,1.24,3.01,2.47,4.4,3.7,.02,.02,.05,.04,.07,.06,1.25,1.11,2.44,2.2,3.57,3.28,.16,.15,.32,.31,.48,.46,1.17,1.19,2.28,2.4,3.3,3.64l.2,.24c1.19,1.45,3.99,4.84,8.37,8.53,4.41,3.72,8.46,6.05,10.63,7.31,4.13,2.37,8.47,4.4,12.9,6.02,3.28,1.21,5.11,1.65,7.25,2.16,1.43,.34,2.9,.69,5.04,1.34,8.47,2.53,14.6,5.75,16.91,6.96,2.7,1.42,9.85,5.45,17.72,12.15,4.14,3.52,8.02,7.38,11.57,11.53-.52,.32-1.03,.66-1.55,1.01-3.83,2.57-6.36,5.04-8.6,7.22-3.13,3.06-7.42,7.25-11.1,13.74-1.33,2.36-2.35,4.62-3.16,6.74-1.39-1.76-2.73-3.53-4.02-5.3-1.34-1.85-2.25-3.18-3.29-4.73-1.14-1.66-2.43-3.55-4.62-6.63-3.52-4.95-5.29-7.43-6.44-8.7-3.99-4.45-7.75-6.95-13.97-11.08-3.24-2.15-4.84-3.06-6.39-3.93-1.49-.84-2.9-1.63-5.78-3.58-4.38-2.96-8.63-6.19-12.61-9.61-4.56-3.91-6.85-5.87-9.52-9.1-2.52-3.05-3.74-5.25-6.15-9.61-.64-1.15-1.35-2.44-2.18-3.92-1.81-3.21-3.74-6.4-5.61-9.49-.37-.61-.74-1.22-1.12-1.84-.18-.31-.37-.62-.56-.94-1.92-3.16-4.31-6.59-7.31-10.07-.94-1.09-1.93-2.19-2.99-3.28l-.07-.07c-.83-.86-1.66-1.67-2.48-2.45-.09-.08-.17-.16-.26-.24-.31-.28-.61-.56-.91-.83-.29-.26-.58-.51-.87-.76l-.08-.06-7.73-6.26c-.83-.63-1.69-1.26-2.57-1.9,1.41,.67,2.8,1.37,4.17,2.08Zm98.97,146.13c.04,.87,.09,1.74,.17,2.61,0,.04,0,.08,0,.12,.03,.33,.06,.66,.1,.99,.06,.58,.14,1.16,.23,1.74,.26,1.76,.64,3.58,1.19,5.52,.47,1.68,1.01,3.33,1.66,4.95-8.44,1.26-16.83,3.05-25.05,5.34,1.02-1.81,2.11-3.67,3.27-5.58,5.47-9.01,11.65-17.61,18.46-25.67,0,.55-.03,1.08-.04,1.59v.13c-.06,2.94-.11,5.61,0,8.26Zm-27.62-10.88c-3.91-10.07-5.83-14.68-8.81-20.49-3.24-6.33-5.59-10.89-10-16.02-2.74-3.18-4.58-4.62-6.71-6.3-1.61-1.26-3.43-2.69-6-5.2-3.52-3.43-8.61-9.03-12.88-16.24-3.56-6.02-5.64-12.36-9.78-25-1.88-5.74-2.68-8.7-3.21-10.65-.61-2.24-.94-3.47-2.13-6.18-.48-1.1-.97-2.14-1.49-3.15-.01-.03-.03-.06-.05-.1-.75-1.42-1.55-2.86-2.43-4.34-.11-.19-.22-.38-.34-.57-.82-1.37-1.67-2.68-2.52-3.95-.06-.09-.12-.18-.18-.27,0-.01-.01-.01-.01-.01-1.93-2.86-3.91-5.46-5.89-7.8-.01-.02-.03-.05-.05-.07h0c-.21-.25-.41-.49-.61-.72-.23-.27-.46-.54-.7-.81l-.15-.18-.85-1.02-5.43-6.54-.33-.39c-.11-.12-.21-.25-.32-.37,.73,.51,1.44,1.01,2.14,1.51l.11,.09,2.46,1.9,4.61,3.57,1.43,1.11h.01c.61,.55,1.32,1.2,2.11,1.92,2.34,2.15,4.83,4.51,5.95,5.64,1.96,1.96,4.95,5.37,8.35,11.02,.02,.04,.04,.07,.06,.11,.57,.95,1.15,1.91,1.73,2.86,1.85,3.06,3.77,6.23,5.55,9.39,.83,1.47,1.53,2.75,2.16,3.89,2.46,4.43,3.81,6.87,6.56,10.2,2.88,3.49,5.41,5.65,9.98,9.58,4.1,3.51,8.46,6.85,12.98,9.88,3,2.03,4.48,2.87,6.05,3.74,1.48,.85,3.03,1.71,6.14,3.79,6.46,4.29,9.72,6.52,13.23,10.44,1,1.1,2.83,3.68,6.16,8.36,2.17,3.03,3.45,4.91,4.57,6.56,1.06,1.57,1.99,2.92,3.36,4.82,1.81,2.49,3.72,4.97,5.72,7.41-.62,2.16-1.03,4.07-1.38,5.65-.57,2.67-.92,5.08-1.14,7.27-7.36,8.29-14.1,17.25-20.07,26.66-2.61-7.05-5.27-14.11-7.96-21Zm-8.26,40.91c2.07-.76,4.16-1.47,6.26-2.16,1.73-.57,3.48-1.11,5.23-1.63,9.64-2.88,19.48-5.06,29.43-6.5,.93,1.9,1.97,3.71,3.11,5.41,1.9,2.82,4.49,6.69,9.24,9.96,3.81,2.62,7.53,3.81,9.76,4.51,2.35,.76,3.82,1,5.12,1.23,1.37,.22,2.54,.42,4.65,1.19,3.78,1.37,6.48,3.1,7.76,4.01,2.94,2.11,4.73,4.21,6.61,6.45,1.88,2.21,4.7,5.56,7.06,10.75,2.02,4.43,2.8,8.26,3.1,10.15,.07,.47,.14,.95,.2,1.42,.1,.91,.17,1.82,.21,2.73,.04,.97,.05,1.93,0,2.9-.01,.39-.03,.78-.06,1.17-.08,1.13-.21,2.25-.4,3.37h-.01c-.27,.72-.54,1.45-.8,2.19l-97.89-31.03-3.72-1.18-28.66-9.08c10.75-6.3,22.11-11.62,33.8-15.86Zm-34.93,19.7l28.59,9.07,3.72,1.17,97.81,31.02c-.48,1.53-.91,3.05-1.3,4.54-1.81,2.78-3.89,5.32-6.21,7.59-.71,.7-1.44,1.37-2.19,2.01-.76,.66-1.55,1.28-2.35,1.88-7.29,5.4-14.33,7.07-18.11,7.97-3.58,.83-7.63,1.78-12.81,1.12-2.93-.37-4.41-1.03-6.47-1.92-1.46-.65-3.13-1.38-5.62-2.15-3.72-1.15-12.41-3.85-22.27-1.62-2.77,.63-5.51,1.62-8.15,2.95-6.97-7.1-13.49-14.63-19.5-22.53-1.11-1.44-2.19-2.9-3.25-4.37-.95-1.31-1.89-2.62-2.81-3.95-.67-.96-1.33-1.93-1.97-2.9-.78-1.14-1.55-2.3-2.3-3.46-5.48-8.47-10.45-17.32-14.81-26.42Zm41.07,65.68c-2.5,1.61-4.27,3.16-5.13,3.9-2.39,2.09-3.87,3.94-6.32,7.01l-.82,1.04c-1.58,1.96-3.51,4.39-5.51,7.31-.02-.28-.03-.57-.05-.85-.05-.82-.09-1.65-.13-2.47-.05-1.07-.1-2.13-.13-3.2-.03-.81-.05-1.62-.06-2.43-.03-1.41-.05-2.83-.05-4.24,0-3.15,.07-6.3,.22-9.45,.24-5.25,.68-10.48,1.32-15.66,5.22,6.62,10.77,12.98,16.66,19.04Zm-28.11-34.84s.04,.08,.06,.12h.04c.92,1.39,1.87,2.79,2.83,4.17,1.67,2.41,3.39,4.79,5.15,7.13-.14,.97-.24,1.96-.37,2.94-.17,1.3-.32,2.6-.46,3.91-.1,.92-.19,1.84-.28,2.76-.02,.18-.03,.37-.05,.56-.14,1.48-.26,2.96-.36,4.45-.04,.47-.07,.93-.1,1.4-.02,.28-.03,.57-.05,.85-.02,.21-.03,.43-.04,.65-.03,.51-.06,1.02-.08,1.53-.05,1.07-.1,2.13-.14,3.2,0,.05-.01,.1,0,.15-.04,1.16-.07,2.32-.09,3.48-.01,.05-.01,.09,0,.14-.02,.46-.04,.93-.04,1.39H25.51l168.4-38.83Zm-.68,81.4L25.48,285.24H199.94c.02,2.39,.08,4.79,.19,7.19,.05,1.01,.09,2.01,.15,3,.06,1,.12,2,.19,2.99,.09,1.24,.19,2.48,.3,3.71,0,.04,0,.07,.01,.11-1.1,1.96-2.11,4.03-3.01,6.14-2.12,4.95-3.68,10.28-4.54,15.54Zm37.53,61.58c-.28-.12-.56-.24-.84-.37-1.94-.86-3.85-1.84-5.83-2.98-3.31-1.92-8.3-4.82-13.21-10.16-4.65-5.07-7.06-9.95-9.02-13.92-1.31-2.63-2.78-5.63-3.95-9.72-.57-2-.97-3.94-1.26-5.79-.1-.63-.17-1.25-.24-1.86-.07-.62-.12-1.24-.16-1.84-.02-.21-.03-.43-.04-.64-.02-.22-.03-.44-.03-.66-.02-.44-.03-.87-.04-1.3-.02-.99-.01-1.94,.02-2.83,.06-1.75,.21-3.31,.35-4.63,.1-.8,.19-1.52,.27-2.13,.08-.58,.16-1.16,.26-1.75,.81-5.02,2.28-10.14,4.32-14.88,.92-2.17,1.97-4.28,3.12-6.29,2.82-5,6-8.98,8.31-11.88l.83-1.05c1.94-2.43,3.18-3.97,4.71-5.45,.35-.35,.73-.68,1.12-1.03,.07-.06,.14-.13,.22-.2,.24-.2,.51-.43,.83-.7,.21-.17,.43-.35,.68-.55,.97-.78,2.22-1.69,3.72-2.61,.4-.25,.82-.49,1.26-.74,.77-.42,1.55-.82,2.35-1.17,1.99-.92,4.03-1.61,6.09-2.08,8.84-2.01,16.56,.39,20.26,1.54,2.29,.7,3.85,1.39,5.22,1.99,2.17,.95,4.04,1.77,7.53,2.22,5.88,.75,10.49-.32,14.21-1.2,4.04-.95,11.59-2.74,19.53-8.62,.88-.66,1.74-1.35,2.57-2.06,.55-.47,1.08-.94,1.6-1.44,.29-.26,.57-.53,.84-.8,.5-.5,.99-1,1.47-1.51,0-.01,0-.02,.02-.03-.03,.21-.07,.43-.1,.64-.02,.16-.04,.3-.07,.46-.06,.39-.12,.79-.18,1.18-.17,1.19-.32,2.38-.45,3.58-.04,.35-.08,.71-.11,1.06-.02,.2-.04,.4-.05,.59-.05,.42-.08,.84-.11,1.26-.05,.56-.09,1.13-.12,1.7-.01,.18-.02,.37-.03,.56,0,.18-.02,.36-.03,.55-.02,.28-.04,.56-.05,.84,0,.19,0,.39-.02,.57-.02,.39-.03,.78-.03,1.17-.02,.33-.02,.66-.03,.99,0,.59-.02,1.17-.02,1.77,0,.82,0,1.65,.03,2.47-4.11,12.41-14.58,21.57-27.37,23.93-19.97,3.68-33.48-11.83-33.62-11.99l-2.41-2.82-.94,3.59c-.25,.94-.48,2.02-.63,3.22-.05,.38-.1,.77-.14,1.17-.05,.53-.09,1.09-.11,1.66-.03,.66-.03,1.33,0,2.03,.02,.63,.06,1.27,.14,1.93,.02,.22,.05,.45,.08,.67,.05,.39,.11,.78,.19,1.17,.21,1.23,.53,2.5,.96,3.79,2,6.01,5.69,10.02,8.58,12.41l-15.26,12.3h.17s-.16,.14-.16,.14l19.9,1.38c-.8,2.76-1.15,5.63-1.05,8.45,.03,.78,.09,1.56,.19,2.33,0,.04,0,.09,0,.13,1.17,9.32,7.03,15.28,9.5,17.4l2.51,2.16,.66-3.25c.22-1.03,5.42-25.54,23.24-31.23,6.97-2.22,15.21-1.31,17.58-.98,5.43,.76,10.66,2.5,15.54,5.16,.85,1.26,1.73,2.5,2.64,3.72,.56,.74,1.12,1.47,1.7,2.2,1.07,1.36,2.18,2.69,3.32,3.99,1.44,1.65,2.95,3.25,4.51,4.8-.87-.2-1.75-.38-2.63-.52-2.07-.33-6.33-.82-11.68-.21-6.21,.69-10.74,2.55-13.44,3.65-2.8,1.15-5.7,2.32-9.02,4.77-2.5,1.86-4.91,4.24-6.97,6.88-1.6,2.04-2.29,3.37-2.95,4.65-.58,1.11-1.18,2.24-2.46,4.03-1.32,1.83-3.32,4.6-6.51,7.06-3.98,3.05-7.89,4.16-11.03,5.06-2.17,.62-4.5,1.07-6.93,1.35-2.41,.28-4.86,.37-7.3,.26-6.68-.29-11.54-1.98-17.72-4.12-2.13-.75-4.33-1.52-6.81-2.59Zm29.69,10.68c-.02,.1-.04,.2-.05,.3-.17,1.04-.34,2.09-.49,3.14-.13,.81-.25,1.63-.35,2.46-.08,.53-.15,1.08-.22,1.62-.09,.67-.17,1.36-.25,2.03-.14,1.16-.27,2.3-.38,3.45-.07,.62-.13,1.23-.18,1.84-.09,.88-.17,1.76-.24,2.65-.07,.77-.12,1.55-.17,2.33-.05,.69-.1,1.37-.14,2.06-.04,.68-.07,1.37-.11,2.06-.03,.49-.05,.98-.07,1.47-6.94-7.53-13.34-15.61-19.08-24.1-1.36-2.01-2.7-4.08-3.99-6.15,.55,.2,1.08,.38,1.6,.56,6.45,2.24,11.56,4.01,18.8,4.33,.72,.03,1.44,.05,2.18,.05,.48,0,.96,0,1.44-.03,.4,0,.81-.02,1.21-.05,.09,0,.19,0,.29-.02h.2Zm-119.97,142.28c3.14-6.01,14.4-26.46,27.33-37.17l.19-.16c1.44-1.18,4.84-3.97,8.59-8.41,3.7-4.4,5.96-8.31,7.3-10.64,2.38-4.12,4.41-8.46,6.04-12.89,1.19-3.28,1.63-5.12,2.15-7.24,.34-1.43,.69-2.91,1.34-5.06,2.52-8.45,5.74-14.6,6.96-16.91l.24-.44c.04-.09,4.77-8.9,11.9-17.27,7.83-9.19,18.69-17.23,23.82-20.8,.02,.03,.03,.07,.05,.1,.07-.05,.15-.1,.22-.15,6.3,9.14,13.35,17.8,21.02,25.8-.02,1.38-.03,2.7-.03,4-3.32,2.83-6.71,5.48-10.12,7.89-1.13,.8-2.18,1.53-3.43,2.38-1.91,1.31-4.29,2.94-7.94,5.55-4.95,3.51-7.42,5.28-8.7,6.42-4.45,4.01-6.95,7.76-11.09,13.98-2.14,3.24-3.05,4.84-3.92,6.39-.84,1.49-1.64,2.9-3.58,5.78-2.96,4.39-6.19,8.63-9.61,12.62-3.91,4.55-5.87,6.84-9.1,9.51-3.06,2.52-5.25,3.74-9.62,6.16-1.15,.63-2.43,1.34-3.91,2.18-3.21,1.8-6.4,3.73-9.49,5.6-1.85,1.13-3.7,2.25-5.56,3.35-6.99,4.12-14.75,12.04-23.15,23.61,.68-1.41,1.38-2.81,2.1-4.18Zm114.76-62.53c-6.34,3.24-10.92,5.6-16.02,10-3.18,2.73-4.62,4.57-6.29,6.7-1.26,1.61-2.7,3.43-5.21,6-3.41,3.51-9,8.59-16.24,12.89-6.04,3.57-12.38,5.64-25.01,9.76-5.74,1.89-8.69,2.7-10.64,3.23-2.24,.6-3.47,.94-6.18,2.13-8.3,3.64-13.73,7.95-22.72,15.08-2.55,2.02-5.07,4.11-7.56,6.25,8.9-12.8,17-21.38,24.13-25.59,1.88-1.11,3.74-2.24,5.61-3.37,3.06-1.85,6.23-3.77,9.39-5.55,1.46-.82,2.74-1.53,3.87-2.16,4.44-2.45,6.88-3.81,10.21-6.56,3.49-2.88,5.66-5.41,9.59-9.98,3.51-4.1,6.83-8.46,9.87-12.97,2.04-3.01,2.87-4.48,3.75-6.05,.84-1.48,1.7-3.03,3.78-6.15,4.29-6.45,6.52-9.71,10.44-13.23,1.11-1,3.68-2.83,8.36-6.16,3.63-2.58,5.98-4.2,7.88-5.5,1.26-.86,2.34-1.6,3.48-2.41,2.67-1.89,5.33-3.92,7.94-6.07,.01,.27,.02,.54,.03,.81,.02,.31,.03,.63,.03,.95,.17,5.07,.53,10.14,1.08,15.2,.09,.82,.18,1.64,.28,2.46,.09,.72,.17,1.43,.27,2.15,.64,5.02,1.46,10.02,2.47,14.97-2.19,.98-4.32,2-6.59,3.17Zm10.74-2.44c-.17-.77-.33-1.55-.48-2.32-.22-1.1-.43-2.19-.64-3.29-.21-1.14-.41-2.28-.6-3.42-.12-.77-.24-1.53-.36-2.29-.15-1.02-.3-2.04-.44-3.06-.05-.32-.09-.63-.13-.95-.07-.52-.14-1.03-.2-1.55-.79-6.23-1.29-12.5-1.5-18.76-.02-.48-.04-.96-.05-1.43-.02-.5-.03-1-.04-1.5,0-.61-.02-1.21-.02-1.81-.01-.3-.01-.59-.01-.89,0-.46,0-.92,0-1.38,0-.53,0-1.06,0-1.59v-.49c.01-.28,.01-.57,.01-.86,.01-.46,.02-.93,.03-1.4,.02-1.28,.07-2.57,.11-3.86,.08-1.83,.18-3.67,.3-5.49,.05-.74,.1-1.48,.16-2.22,.04-.64,.1-1.28,.15-1.92,.06-.64,.12-1.27,.18-1.91,.06-.64,.13-1.29,.2-1.93,.06-.65,.13-1.29,.21-1.94,.06-.55,.12-1.09,.19-1.64,.11-.85,.22-1.72,.34-2.57,.03-.24,.06-.47,.09-.71,.13-.92,.26-1.83,.4-2.75,.1-.64,.2-1.27,.3-1.9,.1-.64,.21-1.27,.32-1.9,2.12-.31,4.16-.74,6.09-1.3,3.47-.98,7.76-2.2,12.33-5.71,3.65-2.79,5.94-5.97,7.31-7.87,1.44-2.01,2.13-3.33,2.74-4.5,.64-1.23,1.19-2.29,2.58-4.05,1.84-2.37,4-4.49,6.21-6.14,2.93-2.16,5.48-3.2,8.18-4.3,2.68-1.1,6.73-2.76,12.4-3.39,5.07-.57,9.11-.06,10.62,.19,3.9,.63,7.67,1.87,11.19,3.7,.06,.05,.12,.1,.19,.14,.01,.02,.02,.03,.04,.04,.08,.07,.17,.14,.25,.21,.42,.32,.82,.64,1.23,.96l-75.48,105.46-4.09,5.72c-.11-.47-.21-.94-.31-1.43Zm49.77-7.35c-2.95,1.02-5.97,2-8.98,2.91-12.12,3.65-24.59,6.35-37.15,8.03l3.25-4.54,4.16-5.81,72.03-100.61c1.11,.78,2.23,1.55,3.36,2.28,.17,.12,.33,.23,.49,.33,.03,.02,.04,.03,.07,.04,.02,.02,.04,.03,.06,.04h0c.21,.27,.42,.54,.63,.8,.19,.25,.39,.5,.57,.75,.97,1.31,1.86,2.65,2.67,4.05,.17,.28,.35,.57,.5,.87,.16,.28,.33,.58,.48,.88,.16,.3,.31,.6,.45,.89,.31,.6,.6,1.21,.86,1.82,.27,.61,.53,1.23,.76,1.86,.25,.61,.48,1.24,.69,1.88,1.01,2.99,1.59,5.8,1.92,8.37,0,.03,0,.07,0,.11,.03,.29,.07,.57,.1,.85,.08,.85,.14,1.66,.18,2.44,.08,1.68,.06,3.21-.01,4.55-.02,.62-.06,1.2-.1,1.74,0,.27-.03,.53-.06,.77,0,.15-.02,.29-.03,.43,0,.1-.02,.19-.03,.28-.32,3.65-.66,7.81-2.89,12.54-1.27,2.67-2.34,3.88-3.84,5.55-1.07,1.19-2.27,2.56-3.78,4.7-2.43,3.45-7.49,10.63-8.41,20.67-.09,1.05-.14,2.1-.14,3.16,0,.43,0,.86,.02,1.29,0,.05,0,.09,0,.14,.01,.2,.01,.39,.03,.59,0,.18,.02,.37,.03,.55,.01,.11,.02,.21,.03,.31,0,.11,.02,.21,.03,.31,0,.05,0,.09,.01,.13,0,.24,.04,.46,.07,.7l.06,.57c.03,.27,.07,.54,.11,.81v.02s.01,.07,.01,.1c-.17,.08-.33,.16-.49,.24-.79,.39-1.57,.77-2.35,1.15-.51,.24-1.02,.48-1.52,.72-.71,.34-1.43,.68-2.15,1-1.64,.75-3.27,1.48-4.92,2.2-.84,.36-1.67,.72-2.51,1.07-.26,.11-.51,.22-.77,.32-.25,.11-.5,.21-.75,.31-1.44,.59-2.88,1.17-4.33,1.73-.93,.37-1.87,.73-2.8,1.08-1.89,.7-3.77,1.37-5.65,2.03Zm5.83,2.18c2.13-.78,4.25-1.6,6.36-2.45,.81-.32,1.61-.64,2.41-.98,1.84-.75,3.67-1.53,5.48-2.34,.22-.09,.43-.19,.65-.29,.03-.01,.05-.02,.07-.03,.44-.2,.87-.38,1.29-.58,.14-.07,.28-.13,.43-.2,.77-.35,1.55-.71,2.33-1.07,1.42-.66,2.83-1.34,4.23-2.04,.76,2.86,1.67,5.01,2.16,6.17,1.24,2.92,2.54,4.9,4.69,8.17l.74,1.12c1.34,2.04,3.04,4.62,5.18,7.38-12.37-3.14-24.45-7.45-36.02-12.86Zm133.39,9.4c-.68,.89-1.39,1.82-2.16,2.79l-.2,.26s-.05,.06-.08,.09c-.51,.63-1.08,1.34-1.72,2.07-.13,.16-.28,.32-.42,.49-1.36,1.55-2.77,3-4.28,4.42h0c-.31,.29-.63,.58-.95,.87-2.84,2.55-7.14,6.41-13.74,9.42-6.3,2.88-11.68,3.65-16,4.28h-.09c-2.26,.33-4.59,.68-7.43,.76-.96,.03-1.97,.03-2.98-.01-9.97-.35-17.48-3.93-21.09-5.65-5.08-2.41-10.06-5.69-14.4-9.49-.12-.1-.25-.21-.36-.32-1.62-1.43-3.14-2.92-4.62-4.53l-.42-.47-.3-.34-.35-.39c-2.1-2.41-3.84-4.75-5.32-6.89-.88-1.27-1.66-2.46-2.38-3.55l-.75-1.14c-2.1-3.18-3.25-4.94-4.36-7.54-.49-1.17-1.45-3.43-2.18-6.43-.1-.46-.21-.93-.31-1.42-.08-.42-.15-.83-.22-1.25-.07-.45-.12-.9-.17-1.34,0-.02,0-.03-.01-.04,0-.05,0-.09,0-.14-.02-.19-.04-.39-.06-.59-.03-.31-.05-.61-.06-.91-.02-.09-.02-.18-.02-.25-.01-.18-.02-.36-.02-.53v-.14c0-.29-.02-.59-.02-.88,0-.95,.04-1.89,.13-2.82,.82-9.01,5.48-15.61,7.71-18.8,1.38-1.95,2.51-3.22,3.5-4.33,1.58-1.78,2.94-3.3,4.45-6.49,2.53-5.37,2.93-10.09,3.25-13.88,.09-1.1,.22-2.55,.26-4.28,.04-1.03,.04-2.16,0-3.37-.04-1.33-.14-2.77-.33-4.3-.34-2.88-.98-6.06-2.11-9.43-.22-.65-.45-1.3-.7-1.94-.05-.14-.11-.29-.17-.44-.06-.15-.12-.3-.18-.45-.12-.31-.26-.62-.39-.92-.13-.32-.27-.63-.41-.93-.13-.27-.25-.53-.38-.79-.14-.29-.28-.58-.42-.86-.26-.51-.53-1.02-.8-1.52,5.78,3.04,11.8,5.5,18.02,7.35l.23,.21h.15c7.93,5.98,12.91,14.82,14.04,24.39,.11,.98,.19,1.97,.21,2.96,.03,.74,.03,1.48,0,2.23-.04,1.15-.14,2.32-.29,3.48-2.67,20.13-21.6,28.19-21.79,28.26l-3.44,1.42,.14,.09-.13,.05,3.13,2.02c3.12,2.01,8.2,4.39,14.9,4.33,6.4-.05,11.38-2.36,14.55-4.4l7.02,18.42,7.48-18.55c3.07,2.1,6.51,3.54,10.1,4.23,9.22,1.77,16.7-1.97,19.48-3.66l2.84-1.72-.12-.07,.11-.07-2.89-1.63c-.88-.51-20.54-11.85-22.38-29.06-.06-.52-.1-1.04-.11-1.57-.01-.16-.02-.33-.01-.5,0-.1,0-.21,0-.32v-.17c.04-7.31,3.45-14.88,4.5-17.02,2.4-4.91,5.64-9.33,9.67-13.14,6.2-1.8,12.17-4.16,17.85-7.07-.45,.73-.87,1.48-1.26,2.24-1.66,3.26-3.01,7.18-3.81,11.04-.85,4.15-.95,7.73-.86,10.51,.03,.92,.08,1.75,.13,2.5,.01,.19,.02,.37,.04,.54,.01,.17,.02,.34,.03,.5,.22,3.03,.45,6.16,1.75,10.05,.56,1.66,1.86,5.02,4.39,8.75,1.44,2.15,2.49,3.22,3.5,4.25,.87,.88,1.77,1.8,3.07,3.58,1.25,1.69,3.34,4.53,4.71,8.37,.45,1.27,.77,2.49,1,3.66,.07,.39,.13,.77,.19,1.15,.03,.22,.05,.44,.08,.66,.1,.89,.16,1.76,.18,2.59,.02,.84,.02,1.64-.01,2.4-.02,.49-.03,.97-.05,1.44-.09,2.3-.37,4.66-.85,7.02s-1.16,4.73-2.02,7.03c-1.64,4.4-3.65,7.73-6.07,11.12-1.03,1.44-2.14,2.89-3.31,4.45Zm2.13,3.76c.34-.44,.65-.86,.97-1.28,4.14-5.45,7.4-9.75,9.93-16.56,.63-1.68,1.16-3.38,1.61-5.1,7.57,3.92,15.39,7.4,23.37,10.39-11.54,5.3-23.57,9.52-35.88,12.55Zm87.96-4.38c-2.18-.22-4.36-.49-6.53-.79-9.78-1.35-19.46-3.39-28.93-6.12-2.12-.6-4.23-1.25-6.33-1.94-1.74-.55-3.46-1.13-5.18-1.74-9.48-3.34-18.72-7.36-27.61-12.04,.35-2.04,.56-4.09,.65-6.09,.06-1.73,.13-3.67-.03-5.82-.02-.31-.05-.62-.08-.93-.06-.58-.14-1.17-.24-1.78-.06-.39-.13-.78-.22-1.18-.12-.61-.27-1.22-.44-1.85-.17-.67-.38-1.36-.63-2.06-1.56-4.38-3.87-7.51-5.24-9.38-1.46-1.99-2.51-3.06-3.43-4-.96-.99-1.81-1.84-3.06-3.7-2.26-3.34-3.42-6.33-3.91-7.8-.36-1.07-.62-2.07-.83-3.04-.2-.92-.33-1.8-.43-2.67-.07-.54-.12-1.09-.16-1.63-.01-.02-.01-.05-.01-.07-.04-.52-.08-1.04-.12-1.57-.21-2.89-.54-7.25,.6-12.84,.99-4.76,2.6-8.34,3.46-10.04,1.79-3.49,4.12-6.66,6.91-9.44,0-.01,.02-.01,.02-.01,.65-.43,1.31-.87,1.94-1.31l60.94,82.63,2.31,3.13,17.84,24.21c-.42-.03-.83-.07-1.26-.13Zm-13.45-26.49l-2.31-3.13-60.85-82.54c1.17-.85,2.31-1.74,3.44-2.65h.1l.27-.28c4.98-1.9,10.16-2.89,15.41-2.95,9.09-.08,15.75,2.7,19.32,4.2,3.38,1.42,7.21,3.03,11.03,6.62,2.16,2.03,2.98,3.44,4.11,5.37,.8,1.38,1.72,2.95,3.29,5.04,2.53,3.38,7.79,10.41,17.07,14.39,2.9,1.25,5.74,1.99,8.32,2.4,.05,.33,.1,.67,.15,1.01,.12,.85,.24,1.7,.35,2.55,.17,1.27,.33,2.55,.48,3.82,.71,6.12,1.19,12.27,1.43,18.43,.04,1.24,.08,2.48,.11,3.72,.02,.86,.04,1.72,.05,2.58v.09l-.03,.02s.02,.08,.02,.12h-.01c.01,.09,.03,.17,.04,.25,.01,.05,.01,.09,.01,.13,0,.48,.06,.96,.08,1.45,0,.16,.02,.32,.02,.48,0,.11,0,.22,0,.34,0,.24-.05,.46-.12,.66,0,.7,0,1.4,0,2.1-.01,.7-.02,1.4-.03,2.1-.27,12.67-1.57,25.4-3.86,37.9l-17.87-24.22Zm131.5,100.17c-6.01-3.15-26.45-14.4-37.16-27.34l-.21-.25c-1.19-1.45-3.98-4.84-8.36-8.53-4.43-3.71-8.47-6.05-10.65-7.3-4.12-2.38-8.46-4.41-12.88-6.03-3.29-1.2-5.13-1.65-7.26-2.16-1.42-.34-2.9-.69-5.04-1.33-8.47-2.53-14.61-5.75-16.91-6.97-2.29-1.19-7.74-4.26-14.13-9.23l1.61,.13,.35-1.68c2.86-14.12,4.46-28.57,4.77-42.95,0-.34,0-.69,0-1.03,0,0,.02,.01,.03,.01-.01-.04-.01-.09-.01-.13,2.71,3.12,5.37,6.24,6.51,7.8,1.34,1.84,2.25,3.18,3.3,4.72,1.13,1.66,2.42,3.56,4.62,6.65,3.52,4.94,5.29,7.42,6.42,8.69,4,4.45,7.75,6.94,13.98,11.07,3.23,2.16,4.84,3.06,6.38,3.94,1.5,.84,2.91,1.63,5.79,3.58,4.38,2.95,8.63,6.18,12.62,9.61,4.56,3.91,6.84,5.87,9.51,9.1,2.52,3.05,3.73,5.24,6.15,9.61,.63,1.15,1.34,2.43,2.18,3.91,1.81,3.21,3.75,6.41,5.62,9.5,1.12,1.85,2.24,3.7,3.33,5.56,4.13,6.99,12.05,14.74,23.61,23.13-1.41-.67-2.8-1.36-4.18-2.08Zm-108.29-153.26c.82,.05,1.59,.07,2.31,.07,1.87,0,3.34-.14,4.21-.22,3.18-.28,5.47-.91,9.28-1.96l1.23-.34c2.49-.69,5.41-1.49,8.65-2.64-6.83,10.77-14.66,20.91-23.4,30.24-.2-5.29-.58-10.57-1.12-15.83-.17-1.55-.35-3.11-.54-4.66-.1-.78-.2-1.56-.3-2.33-.1-.78-.21-1.56-.32-2.33Zm36.95,18.01c3.91,10.07,5.83,14.68,8.81,20.49,3.24,6.32,5.59,10.89,10.01,16.02,2.73,3.17,4.57,4.62,6.71,6.3,1.6,1.26,3.42,2.68,5.99,5.19,3.52,3.44,8.62,9.04,12.88,16.25,3.57,6.02,5.64,12.36,9.78,25,1.88,5.74,2.68,8.69,3.21,10.64,.61,2.24,.95,3.48,2.14,6.18,3.66,8.33,7.95,13.75,15.07,22.72,2.02,2.55,4.1,5.06,6.24,7.55-12.78-8.9-21.37-16.98-25.57-24.12-1.11-1.87-2.23-3.73-3.36-5.59-1.86-3.07-3.78-6.24-5.56-9.4-.83-1.47-1.53-2.75-2.16-3.88-2.46-4.44-3.81-6.88-6.57-10.21-2.88-3.48-5.39-5.65-9.98-9.58-4.09-3.52-8.46-6.84-12.96-9.88-3.02-2.04-4.49-2.87-6.05-3.75-1.5-.84-3.03-1.7-6.15-3.77-6.46-4.3-9.72-6.53-13.23-10.44-.99-1.11-2.83-3.68-6.16-8.36-2.16-3.04-3.44-4.92-4.57-6.57-1.07-1.57-1.98-2.93-3.36-4.82-1.5-2.06-5.11-6.2-8.59-10.21-.36-.41-.72-.82-1.06-1.22v-.82c-.01-.32-.02-.64-.02-.95,.58-.6,1.14-1.21,1.71-1.81,.12-.18,.25-.36,.4-.53,0-.02,0-.04,.03-.05,.34-.35,.67-.7,.98-1.05,0,0,.01-.01,.02-.01,.18-.17,.37-.32,.57-.47,8.46-9.18,16.09-19.11,22.76-29.62,.03-.05,.06-.11,.1-.16,2.59,7.03,5.26,14.05,7.94,20.93Zm28.02-81.24c-.13,3.71-.68,6.88-1.14,9.63h0c-.49,2.91-1.06,6.21-2.53,10.22-3.4,9.35-9.13,15.4-11.89,18.3-3.87,4.1-8.53,7.82-13.48,10.78-.13,.07-.27,.16-.41,.24-2.17,1.28-4.29,2.35-6.32,3.25-5.06,2.24-9.59,3.49-13.19,4.48l-1.24,.34c-3.71,1.03-5.76,1.59-8.58,1.84-1.21,.11-3.67,.32-6.8,.07-1.25-.1-2.61-.28-4.04-.57-1.95-.39-4.03-1-6.14-1.9-8.32-3.57-13.16-10.03-15.49-13.15-1.43-1.91-2.29-3.38-3.04-4.67-1.2-2.05-2.24-3.82-4.8-6.23-4.33-4.08-8.69-5.91-12.19-7.38-3.83-1.61-11.01-4.61-20.87-4.5-2.9,.03-5.78,.32-8.61,.87,4.65-4.56,8.82-9.52,12.48-14.83,6.21-4.47,13.54-6.75,20.9-6.75,5.22,0,10.45,1.15,15.32,3.48,18.32,8.76,20.13,29.25,20.15,29.45l.28,3.71,2.89-2.36c2.87-2.34,6.72-6.47,8.73-12.82,.53-1.69,.86-3.32,1.04-4.89,.07-.52,.11-1.03,.14-1.53,.02-.28,.03-.57,.04-.85,.02-.62,.02-1.23,0-1.81-.07-2.35-.45-4.43-.89-6.12l19.66-.99-.15-.12h.15s-15.25-12.79-15.25-12.79c2.91-2.25,5.33-5.07,7.07-8.23,1.74-3.17,2.63-6.34,3.02-9.23,.06-.41,.1-.82,.14-1.22,.04-.46,.07-.91,.09-1.35,0-.23,.02-.46,.02-.69,0-.75,0-1.46-.03-2.14-.03-.56-.07-1.08-.12-1.58-.04-.36-.08-.7-.13-1.03-.13-1.04-.31-1.9-.46-2.55l-.75-3.23-2.45,2.24c-.78,.72-19.39,17.48-37.16,11.61-6.95-2.3-13.08-7.89-14.79-9.54-3.95-3.81-7.15-8.26-9.54-13.28,.03-1.14,.05-2.1,.05-3.04,0-1.36-.03-2.71-.08-4.07-.02-.51-.04-1.01-.07-1.52-.18-3.53-.56-7.05-1.11-10.52,.62,.71,1.25,1.39,1.91,2.06,1.49,1.49,4.67,4.4,9.31,7.04,5.44,3.08,10.18,4.24,13.02,4.93,2.95,.72,6.01,1.47,10.1,1.44,1.77-.02,5.37-.23,9.68-1.46,2.5-.72,3.83-1.38,5.12-2.03,1.13-.55,2.28-1.12,4.36-1.81,2.14-.71,5.37-1.78,9.42-1.88,5.02-.13,8.83,1.26,11.89,2.39,4.36,1.59,8.67,4.04,12.47,7.06,5.23,4.16,8.18,8.39,11.91,13.74,1.1,1.6,2.35,3.39,3.64,5.51,1.07,1.76,2.16,3.74,3.23,6.02,.18,.4,.37,.8,.54,1.21,1.36,3.05,3.31,7.47,4.33,13.33,.15,.85,.28,1.73,.38,2.64,.05,.42,.09,.83,.12,1.24,.06,.71,.11,1.4,.14,2.07,.05,1.21,.05,2.36,0,3.47Zm3.14-10.42c-1.09-6.22-3.15-10.84-4.57-14.05-1.08-2.47-2.2-4.61-3.31-6.5,.57-5.94,.89-11.98,.93-17.95h.02s0-.09-.02-.13h174.45l-167.5,38.63Z"/>
      <path class="cls-1" d="M337.83,288.65c.04,.57,.09,1.13,.15,1.7,3.47,35.54,33.54,63.4,69.98,63.4,38.78,0,70.33-31.55,70.33-70.33,0-1.25-.03-2.5-.1-3.73-.09-1.76-.25-3.5-.47-5.21-.07-.54-.14-1.08-.22-1.62-.24-1.58-.53-3.15-.87-4.7-.12-.52-.24-1.03-.36-1.55-.12-.48-.24-.96-.37-1.44-.25-.94-.52-1.89-.82-2.82,0-.01,0-.01,0-.01-8.93-28.57-35.65-49.37-67.13-49.37-36.44,0-66.5,27.86-69.97,63.4-.06,.57-.11,1.13-.15,1.7-.04,.58-.08,1.16-.11,1.74-.06,1.19-.09,2.4-.09,3.61s.03,2.34,.09,3.49c.03,.58,.06,1.16,.11,1.74Zm129.84-34.41c.36,.72,.7,1.45,1.03,2.19,.16,.37,.32,.74,.48,1.11,.16,.38,.32,.76,.47,1.14,.16,.39,.31,.78,.46,1.17,.15,.4,.3,.8,.44,1.2,.29,.83,.57,1.67,.84,2.51h0c.21,.69,.41,1.36,.6,2.05,.19,.68,.37,1.36,.54,2.06,.11,.46,.22,.93,.32,1.39,.1,.47,.2,.95,.3,1.43,.09,.49,.18,.97,.27,1.46,.08,.49,.16,.99,.24,1.49,.07,.5,.14,1.02,.21,1.53,.27,2.18,.44,4.38,.5,6.62,0,.57,.02,1.14,.02,1.71,0,36.63-29.81,66.43-66.44,66.43-25.74,0-48.11-14.71-59.16-36.16h0c-.19-.37-.37-.73-.54-1.09-.35-.72-.7-1.45-1.03-2.19-.16-.37-.32-.74-.48-1.11-.16-.38-.32-.76-.47-1.14-.16-.39-.31-.78-.46-1.17-.15-.4-.3-.8-.44-1.2-.3-.83-.58-1.67-.84-2.51h0c-.21-.69-.41-1.37-.6-2.05s-.37-1.37-.54-2.06c-.11-.46-.22-.92-.32-1.39-.11-.48-.21-.95-.3-1.43-.1-.49-.19-.97-.27-1.46-.09-.49-.17-.99-.24-1.49-.08-.51-.15-1.02-.21-1.53-.27-2.18-.44-4.38-.5-6.62,0-.57-.02-1.14-.02-1.71,0-36.63,29.8-66.43,66.43-66.43,25.74,0,48.11,14.71,59.17,36.16h0c.18,.37,.36,.73,.54,1.09Z"/>
    </g>
  </g>
</svg>