<?xml version="1.0" encoding="UTF-8"?>
<svg id="Layer_2" data-name="Layer 2" xmlns="http://www.w3.org/2000/svg" viewBox="0 0 800 566.6">
  <defs>
    <style>
      .cls-1 {
        fill: #eff5ef;
      }
    </style>
  </defs>
  <g id="Layer_1-2" data-name="Layer 1">
    <g id="Layer_1-2" data-name="Layer 1-2">
      <g>
        <g>
          <g>
            <path class="cls-1" d="M400,212.97c-38.78,0-70.33,31.55-70.33,70.33s31.55,70.33,70.33,70.33,70.33-31.55,70.33-70.33-31.55-70.33-70.33-70.33Zm0,136.76c-36.63,0-66.43-29.8-66.43-66.43s29.8-66.43,66.43-66.43,66.43,29.8,66.43,66.43-29.8,66.43-66.43,66.43Z"/>
            <path class="cls-1" d="M400,192.46c-50.09,0-90.84,40.75-90.84,90.84s40.75,90.84,90.84,90.84,90.84-40.75,90.84-90.84-40.75-90.84-90.84-90.84h0Zm0,177.78c-47.94,0-86.94-39-86.94-86.94s39-86.94,86.94-86.94,86.94,39,86.94,86.94-39,86.94-86.94,86.94Z"/>
          </g>
          <path class="cls-1" d="M799.56,283.31l.44-1.9-182.9-42.17c5.93-9.61,11.11-19.72,15.42-30.15l.66-1.6-1.5-.85c-12.54-7.08-25.78-13.08-39.36-17.81-2.76-.97-5.56-1.88-8.36-2.74-2.75-5.21-5.77-10.35-8.98-15.36,8.87-7.43,20.46-20.39,23.41-23.87,6.7-7.87,10.79-14.92,12.63-18.43,1.26-2.4,4.61-8.77,7.25-17.61,.67-2.24,1.05-3.84,1.39-5.25,.48-2.02,.9-3.75,2.02-6.82,1.54-4.22,3.48-8.35,5.74-12.29,1.28-2.22,3.42-5.92,6.91-10.07,3.46-4.11,6.66-6.75,8.03-7.87l.25-.21c11.31-9.36,21.26-25.61,26.08-34.27,.33-.89,.73-1.74,1.18-2.57,.58-1.49,1.36-2.89,2.28-4.2,.52-1.68,1.28-3.27,2.23-4.75,.19-.45,.4-.9,.62-1.34,.47-1.56,1.14-3.04,1.98-4.43,1.22-3.04,2.37-6.12,3.39-9.24l2.48-7.52-5.68,5.51c-3.81,3.69-7.74,7.25-11.75,10.69-.78,.93-1.57,1.83-2.4,2.65-1.12,1.12-2.32,2.17-3.58,3.16-1.53,1.35-3.17,2.58-4.9,3.71-1.63,1.3-3.37,2.48-5.19,3.54-3.39,2.62-7.22,4.76-11.26,6.34l.44-.03c-.58,.28-1.18,.55-1.81,.83-2.44,1.07-3.45,1.35-5.64,1.95-1.99,.54-5,1.35-10.83,3.27-12.91,4.22-19.39,6.34-25.77,10.12-7.57,4.48-13.45,9.83-17.05,13.52-2.65,2.72-4.15,4.62-5.47,6.3-1.61,2.05-2.89,3.68-5.78,6.16-4.77,4.12-9.17,6.37-15.25,9.49-5.67,2.9-10.2,4.79-20.13,8.65-2.05,.8-4.11,1.6-6.18,2.39-.02-.02-.05-.02-.08-.04-3.88-2.04-9.18-4.83-16.49-6.31-7.67-1.56-13.78-.93-17.82-.51-.65,.06-1.28,.14-1.9,.23-.61,.23-1.25,.37-1.9,.42-.51,.16-1.06,.27-1.64,.33-.16,.06-.3,.12-.45,.18-.03,0-.05,.02-.09,.02-.43,.09-.86,.16-1.29,.22-.28,.11-.56,.22-.86,.3l-1.52,.2c-.77,.31-1.63,.51-2.58,.57-.38,.12-.78,.22-1.2,.28-.58,.17-1.16,.35-1.7,.51-6.55,1.98-11.72,3.55-17.77,7.55-1.47,.97-2.9,2.03-4.26,3.15l-.08-.33c-.59-.05-.88-.55-.85-1.04-.26-.15-.41-.4-.45-.68-.12-.16-.24-.34-.33-.56-.49-1.1-1.11-2.06-1.68-3.11-.5-.92-.75-1.95-1.29-2.84-.87-1.43-2.24-3.1-2.69-4.79-1.78-3.01-3.64-5.98-5.57-8.89h0c-1-1.53-2.04-3.05-3.1-4.55-2.05-2.93-4.16-5.8-6.36-8.61-8.54-10.94-18.21-21.09-28.75-30.15v-.2c-.78-.46-1.55-.94-2.31-1.44-.52,.58-1.04,1.15-1.58,1.69s-1.12,1.08-1.71,1.6c-9.71,9.15-18.7,19.13-26.76,29.73-1.77,2.34-3.5,4.7-5.19,7.11-1.06,1.49-2.09,3-3.11,4.53-2.51,3.74-4.91,7.57-7.21,11.45-.06,.15-.11,.3-.19,.45-.59,1.18-1.27,2.3-1.95,3.42-.61,.99-1.26,1.95-1.8,2.98-.49,.93-.95,1.91-1.77,2.6-.37,.31-.79,.3-1.13,.12v.02s-.09-.06-.12-.09c-.02-.02-.05-.03-.07-.05-1.8-1.36-3.31-2.27-4.16-2.78-2.74-1.64-4.97-2.48-8.67-3.87l-1.19-.44c-2.37-.9-5.14-1.93-8.34-2.89h0c-3.07-.61-6.1-1.3-9.11-2.05-.76-.04-1.47-.16-2.15-.37v.04c-.72-.09-1.46-.17-2.22-.24-6.09-.54-12.42-.26-18.3,.84-3.39,.63-9.78,1.82-16.84,5.46-3.83-4.53-8.01-8.73-12.5-12.55-7.87-6.69-14.92-10.79-18.43-12.63-2.4-1.26-8.77-4.62-17.61-7.25-2.24-.68-3.84-1.06-5.25-1.39-2.02-.48-3.75-.9-6.82-2.02-4.22-1.55-8.35-3.48-12.29-5.75-2.22-1.28-5.92-3.41-10.07-6.9-4.12-3.46-6.75-6.66-7.87-8.03l-.21-.26c-1.11-1.35-2.33-2.68-3.62-3.98l.5,.03c-.65-.56-1.26-1.17-1.84-1.81-2.12-1.16-4.02-2.69-5.6-4.5-.76-.62-1.53-1.21-2.3-1.82-1.56-.79-3-1.8-4.3-2.96-1.42-.71-2.74-1.59-3.95-2.6-1.13-.6-2.19-1.3-3.18-2.09-1.41-.7-2.72-1.56-3.92-2.55-.78-.48-1.52-1.02-2.22-1.6-3.42-2.02-6.25-3.53-7.95-4.42-7.12-3.72-14.66-6.9-22.43-9.47l-7.52-2.48,5.51,5.68c3.24,3.35,6.39,6.79,9.43,10.3,6.09,4.83,9.61,11.54,14.2,17.82h.05c3.05,4.2,5.21,7.79,7.21,12.34,1.07,2.44,1.35,3.44,1.94,5.64,.54,1.98,1.36,5,3.28,10.83,4.22,12.91,6.34,19.38,10.12,25.76,4.48,7.57,9.82,13.46,13.52,17.05,2.72,2.65,4.62,4.15,6.3,5.47,2.05,1.62,3.67,2.89,6.16,5.78,4.12,4.78,6.37,9.17,9.49,15.26,2.91,5.67,4.79,10.2,8.65,20.12,3.04,7.81,6.07,15.83,9.01,23.82-1.75,2.93-3.35,5.73-4.84,8.5-3.41,1.05-6.79,2.18-10.13,3.39-13.33,4.84-26.23,11.06-38.33,18.49l-1.47,.9,.72,1.56c4.71,10.31,10.17,20.33,16.28,29.89L0,281.41l.44,1.88v.05l-.44,1.86,184.73,42.59c-.54,4.65-1.11,12.54,1.49,21.63,1.26,4.43,2.82,7.59,4.23,10.44,1.94,3.92,4.58,9.28,9.62,14.77,5.3,5.78,10.61,8.85,14.12,10.9,2.21,1.27,4.34,2.35,6.5,3.3,1.84,3.12,3.78,6.22,5.78,9.24-5.14,3.55-16.59,11.97-24.86,21.69-7.4,8.69-12.18,17.58-12.38,17.95l-.25,.47c-1.27,2.41-4.62,8.79-7.25,17.61-.67,2.25-1.05,3.85-1.39,5.26-.48,2.02-.9,3.75-2.02,6.81-1.55,4.23-3.48,8.36-5.75,12.28-1.28,2.23-3.42,5.95-6.9,10.08-3.52,4.16-6.72,6.79-8.09,7.92l-.19,.16c-13.5,11.18-25.08,32.19-28.31,38.36-3.71,7.11-6.9,14.66-9.46,22.43l-2.48,7.52,5.68-5.51c5.9-5.73,12.15-11.22,18.58-16.32,9.04-7.18,14.03-11.12,21.87-14.56,2.44-1.07,3.44-1.35,5.63-1.95,1.99-.54,5-1.35,10.84-3.27,12.89-4.22,19.36-6.33,25.76-10.13,7.62-4.51,13.48-9.85,17.05-13.51,2.65-2.72,4.16-4.63,5.48-6.31,1.61-2.05,2.89-3.67,5.77-6.16,4.76-4.1,8.94-6.24,15.26-9.48,1.95-1,3.79-1.9,5.67-2.75,.26,1.16,.52,2.29,.79,3.37l.4,1.67,1.7-.19c14.3-1.63,28.54-4.57,42.32-8.73,2.8-.84,5.62-1.74,8.36-2.69,11.71,5.77,24,10.4,36.6,13.86,2.17,.21,4.22,.75,6.1,1.57,.53,.12,1.05,.27,1.58,.39l-.62,.05c.37,.19,.73,.39,1.09,.59,2.37,1.16,4.48,2.76,6.23,4.71,.05,.04,.09,.08,.14,.12,.72,.55,1.42,1.13,2.1,1.73,3.95,3.11,8.27,5.83,12.66,7.92,3.85,1.83,11.85,5.64,22.63,6.03,.41,.02,.83,.02,1.24,.02,.72-.08,1.44-.1,2.15-.05,.58-.05,1.17-.09,1.76-.09h.23c2.14-.16,4.02-.44,5.73-.68l.1-.02c4.33-.62,10.25-1.48,17.05-4.59,7.15-3.25,11.71-7.35,14.73-10.06,.12-.11,.24-.23,.37-.33,.58-.63,1.21-1.21,1.87-1.77,.23-.23,.48-.47,.72-.7l-.03,.15c1.42-1.11,2.99-2.05,4.64-2.79l.05-.25c.12-.03,.24-.05,.36-.09l-.02,.16c1.58-.66,3.23-1.14,4.92-1.39,12.96-3.38,25.59-8.01,37.64-13.83l.37,.16,.07-.07c3.25,1.11,6.53,2.15,9.82,3.09,11.38,3.28,23.09,5.59,34.88,6.9,.33,.3,.66,.58,1,.86,7.87,6.69,14.92,10.78,18.42,12.63,2.4,1.26,8.77,4.61,17.61,7.25,2.24,.67,3.84,1.05,5.25,1.39,2.02,.48,3.76,.9,6.83,2.02,4.22,1.54,8.35,3.48,12.28,5.74,2.22,1.28,5.92,3.42,10.08,6.91,4.11,3.46,6.74,6.66,7.87,8.03l.21,.26c11.18,13.5,32.19,25.07,38.37,28.3,7.11,3.71,14.66,6.9,22.43,9.46l7.52,2.48-5.52-5.68c-5.75-5.94-11.25-12.19-16.31-18.58-7.5-9.45-11.26-14.33-14.57-21.86-1.07-2.44-1.35-3.45-1.94-5.64-.54-1.99-1.36-5-3.27-10.84-4.23-12.91-6.34-19.39-10.13-25.77-4.48-7.57-9.82-13.45-13.51-17.05-2.72-2.65-4.62-4.15-6.31-5.47-2.05-1.61-3.67-2.89-6.16-5.78-4.11-4.77-6.37-9.17-9.49-15.25-2.9-5.67-4.79-10.2-8.65-20.12-3.04-7.82-6.06-15.82-9-23.82,.11-.19,.22-.37,.33-.56,1.94-.91,3.95-1.96,6.02-3.19,5.25-3.14,10.2-7.09,14.31-11.43,2.93-3.09,9.04-9.54,12.73-19.65,1.58-4.34,2.18-7.82,2.71-10.9,.72-4.16,1.68-9.79,.98-16.84l184.49-42.54-.44-1.89v.02Zm-17.11-1.95h-174.43c-.08-8.73-.7-17.49-1.86-26.08,2.15-2.85,4.23-5.75,6.22-8.71,.86-1.27,1.7-2.55,2.54-3.84l167.54,38.63Zm-169.35-43.04c-.72,1.17-1.47,2.33-2.23,3.48-.56,.87-1.14,1.74-1.72,2.6-1.24,1.83-2.5,3.64-3.8,5.43-1.07,1.48-2.16,2.95-3.28,4.4h0c-6.09,7.99-12.79,15.54-19.98,22.55-1.87-.99-3.78-1.84-5.7-2.55-3.2-1.18-7.57-2.78-13.33-2.63-4.62,.12-8.33,1.35-10.55,2.08-2.34,.78-3.68,1.44-4.86,2.03-1.25,.61-2.31,1.14-4.47,1.77-3.86,1.11-7.07,1.29-8.64,1.31-3.6,.05-6.3-.63-9.14-1.32-2.81-.69-7.07-1.74-12.03-4.55-4.23-2.41-7.13-5.04-8.48-6.4-2.76-2.78-5.07-5.98-6.85-9.49,0-.02-.02-.03-.02-.05-.18-.74-.4-1.49-.61-2.23l97.44-32.43,3.7-1.23,28.68-9.54c-4.06,9.25-8.8,18.21-14.15,26.77h0Zm-8.96,44.99c0,4.84-.17,9.73-.52,14.59-.34-.5-.68-.98-1-1.44-3.91-5.61-7-10.05-12.68-14.56-1.4-1.11-2.86-2.15-4.37-3.11,6.11-6.01,11.86-12.41,17.19-19.12,.91,7.82,1.37,15.75,1.37,23.65h0Zm-42.44,52.79l-14.95,.75,.93,2.49c1.05,2.83,2.51,8.55,.42,15.16-1.18,3.72-3.13,6.55-4.9,8.52-1.46-6.92-6.27-21.44-21.75-28.84-10.66-5.1-22.91-5.09-33.45-.27,7.07-12.28,11.54-25.99,13-40.27,2.08,3.25,4.52,6.24,7.3,8.93,2.4,2.31,8.76,7.95,16.28,10.44,15.92,5.26,32.06-5.35,38.32-10.2,.33,3.48,.11,8.59-2.69,13.67-2.34,4.27-5.63,6.92-7.97,8.39l-2.26,1.42,11.72,9.82h0Zm24.77-145.12c1.53,.49,3.05,1,4.57,1.53,11.98,4.17,23.68,9.34,34.86,15.39l-28.53,9.5-3.7,1.23-97.41,32.41c-.5-1.49-1.05-3.01-1.64-4.52l-.02-.05c-.27-5.34,.38-10.58,1.95-15.58,2.72-8.69,7.43-14.15,9.96-17.09,2.39-2.78,5.1-5.92,9.71-8.45,2.6-1.42,4.18-1.77,6.37-2.25,1.56-.34,3.33-.72,5.8-1.56,4-1.36,12.32-4.2,18.97-11.79,2.09-2.37,3.67-4.85,4.86-7.17,9.82,1.64,19.52,3.91,29.04,6.76h0c1.74,.52,3.47,1.07,5.19,1.63h0Zm-7.77-6.43c-8.17-2.32-16.45-4.2-24.81-5.64,1.09-2.8,1.62-5.09,1.88-6.26,.72-3.11,.83-5.5,1-9.43l.06-1.28c.12-2.6,.26-5.65,.16-9.12,4.55,5.46,8.83,11.18,12.77,17.09-.09,.07-.19,.14-.27,.2l2.29,3.14s.09-.06,.12-.09c2.39,3.73,4.66,7.53,6.8,11.39h0ZM669.73,22.14l.68,.04c-.25,.55-.51,1.1-.77,1.64h-1.04c.37-.55,.76-1.11,1.14-1.68Zm-4.91-.34l.42,.03c-.47,.68-.93,1.34-1.39,1.99h-1.51c.83-.67,1.65-1.34,2.48-2.02h0Zm-3.1,11.67c.08-.09,.15-.17,.22-.26,.04-.05,.08-.1,.12-.15,0-.02,0,0,0,0t.02-.03c.26-.36,.5-.74,.69-1.14,.4-.81,.83-1.6,1.49-2.23,.09-.08,.19-.14,.29-.17,.43-.58,.85-1.16,1.28-1.76h1.84c-.07,.14-.15,.28-.22,.42-.23,.44-.51,.97-.83,1.56h0c-.02,.06-.03,.12-.06,.17-.41,.62-.67,1.32-1.02,1.97-.37,.68-.82,1.34-1.18,2.02-.02,.05-.06,.07-.09,.1-4.99,8.73-14.03,22.99-24.12,31.34l-.25,.2c-1.45,1.19-4.84,3.99-8.53,8.37-3.71,4.41-6.05,8.46-7.3,10.63-2.38,4.13-4.41,8.47-6.03,12.9-1.2,3.28-1.64,5.12-2.16,7.25-.34,1.43-.69,2.9-1.33,5.04-2.53,8.47-5.75,14.6-6.97,16.91-1.42,2.71-5.45,9.85-12.14,17.72-4.21,4.94-14.77,16.47-22.62,23.13-4.97-7.42-10.45-14.55-16.32-21.22-.26-2.14-.65-4.4-1.18-6.77-.44-1.91-.97-3.81-1.57-5.71,.87-.66,1.74-1.31,2.61-1.94,1.84-1.34,3.18-2.25,4.72-3.3,1.67-1.14,3.56-2.42,6.65-4.62,4.94-3.53,7.43-5.29,8.69-6.43,4.45-4,6.95-7.75,11.08-13.97,2.15-3.24,3.05-4.84,3.92-6.39,.84-1.49,1.63-2.9,3.58-5.78,2.96-4.39,6.19-8.63,9.61-12.62,3.91-4.55,5.87-6.84,9.1-9.51,3.05-2.52,5.25-3.74,9.61-6.15,1.14-.64,2.43-1.35,3.92-2.18,3.21-1.81,6.41-3.75,9.5-5.62,1.85-1.12,3.7-2.24,5.56-3.34,5.78-3.41,12.07-9.41,18.84-17.93h.12c.16-.18,.32-.35,.47-.52h0Zm-129.48,66.02c10.06-3.91,14.67-5.83,20.49-8.81,6.32-3.24,10.89-5.58,16.02-10,3.17-2.73,4.62-4.58,6.29-6.71,1.27-1.6,2.69-3.42,5.2-5.99,3.44-3.53,9.04-8.62,16.25-12.88,6.02-3.56,12.36-5.64,24.99-9.78,5.74-1.88,8.69-2.69,10.65-3.21,2.23-.61,3.47-.94,6.18-2.13,3.28-1.43,6.09-2.97,8.85-4.74,.35-.38,.86-.58,1.31-.9,.76-.56,1.52-1.13,2.3-1.67,.4-.28,.82-.54,1.21-.83,.27-.2,.53-.46,.8-.68,.51-.43,1.08-.76,1.66-1.08,.97-.75,1.96-1.52,3.01-2.35h3.6c-.47,.65-.95,1.27-1.42,1.88,.07,.26,.05,.54-.1,.75-.67,.93-1.38,1.83-2.22,2.62-.19,.18-.4,.36-.6,.52-.14,.11-.28,.22-.43,.33l-.02,.02c-.05,.05-.1,.09-.16,.13-.04,.04-.07,.08-.11,.12h0c-.05,.09-.09,.16-.15,.24,0,.02-.02,.02-.04,.04-2.78,3.32-5.46,6.17-8.05,8.54-2.58,2.37-5.07,4.27-7.45,5.67-1.87,1.11-3.74,2.23-5.6,3.35-3.07,1.86-6.23,3.78-9.4,5.56-1.47,.83-2.75,1.53-3.88,2.16-4.44,2.45-6.87,3.81-10.2,6.56-3.49,2.88-5.65,5.4-9.58,9.98-3.52,4.09-6.84,8.46-9.89,12.97-2.02,3.01-2.86,4.49-3.74,6.05-.84,1.49-1.7,3.03-3.78,6.15-4.29,6.46-6.53,9.72-10.44,13.23-1.11,1-3.68,2.83-8.36,6.16-3.04,2.16-4.91,3.44-6.57,4.57-1.56,1.07-2.93,1.98-4.82,3.36-.56,.41-1.13,.83-1.69,1.25-1.02-2.63-2.2-5.18-3.51-7.59-2.04-3.75-6.28-11.54-14.76-18.18-1.79-1.39-3.45-2.51-5.01-3.44,1.05-.4,2.1-.82,3.15-1.22v.02Zm-72.74,5.97c5.57-3.69,10.5-5.18,16.75-7.08,1.51-.46,3.19-.97,5.07-1.44,2.34-.93,4.82-1.44,7.33-1.44h.04c.23-.03,.45-.07,.69-.09,.41-.05,.84-.09,1.27-.14,3.81-.4,9.55-.99,16.65,.45,5.12,1.04,9.13,2.75,12.45,4.4,1.07,.53,2.06,1.05,3,1.55,.52,.27,1.07,.56,1.62,.86,2.2,1.18,4.64,2.6,7.32,4.7,7.84,6.14,11.82,13.46,13.74,16.98,1.41,2.58,2.65,5.35,3.71,8.2,.47,1.29,.92,2.61,1.31,3.93,.4,1.33,.76,2.67,1.06,4.02,.04,.18,.08,.36,.12,.54,.54,2.47,.9,4.8,1.13,7.01,.57,5.48,.35,10.15,.18,13.87l-.05,1.28c-.17,3.85-.27,5.97-.9,8.74-.3,1.28-.84,3.66-2.02,6.48-.47,1.16-1.06,2.39-1.77,3.66-.98,1.73-2.2,3.52-3.73,5.26-5.96,6.8-13.61,9.41-17.3,10.66-2.26,.77-3.92,1.14-5.38,1.46-2.32,.51-4.32,.94-7.42,2.63-5.22,2.86-8.31,6.44-10.78,9.32-2.72,3.15-7.76,9.01-10.73,18.46-.88,2.8-1.49,5.67-1.84,8.58-2.93-5.92-6.41-11.5-10.38-16.69q-2.65-3.46,0-.02c-3.94-12.44-.84-25.97,8.11-35.38,13.99-14.71,34.04-10.1,34.23-10.06l3.62,.87-1.35-3.47c-1.35-3.46-4.09-8.39-9.5-12.26-5.21-3.72-10.59-4.78-14.36-4.99l5.15-19.03-16.95,10.61c-1.25-3.49-3.19-6.69-5.69-9.36-1.46-1.56-3.01-2.81-4.58-3.85-.73-.38-1.43-.8-2.11-1.27-4.62-2.49-9.04-3.18-11.22-3.36l-3.31-.27,1.37,3.02c.44,.97,10.63,23.84-.44,38.92-4.33,5.9-11.54,10.01-13.64,11.13-4.83,2.56-10.06,4.23-15.55,4.95h0c-6.09-2.2-12.37-3.8-18.76-4.79,.87-.37,1.74-.76,2.58-1.19,1.88-.95,5.64-3.09,9.57-6.68,4.61-4.21,7.18-8.38,8.73-10.86,1.6-2.58,3.25-5.25,4.48-9.16,.54-1.68,1.45-5.18,1.6-9.66,.09-2.59-.12-4.07-.34-5.5-.18-1.23-.37-2.51-.38-4.7,0-2.26-.02-5.67,1.12-9.54,1.42-4.82,3.93-8.01,5.95-10.57,2.86-3.65,6.52-6.99,10.57-9.68h0Zm15.79,109.74c-9.48-10.48-21.13-18.97-34.25-24.76,3.73-.97,7.32-2.37,10.73-4.18,2.93-1.56,10.27-5.88,14.95-12.26,9.92-13.51,4.83-32.14,2.14-39.6,3.42,.76,8.2,2.55,12.17,6.77,3.33,3.56,4.83,7.5,5.52,10.17l.65,2.59,12.96-8.11-3.91,14.45,2.65-.12c3.01-.12,8.9,.26,14.55,4.29,3.18,2.27,5.26,5,6.59,7.29-7.04-.76-22.34-.65-34.16,11.78-8.13,8.55-11.9,20.17-10.61,31.67h0Zm-47.67-142.84c1.36,1.74,2.69,3.51,3.99,5.3,.81,1.1,1.6,2.21,2.38,3.33,.26,.37,.52,.75,.78,1.12,5.46,7.91,10.38,16.2,14.68,24.79l.33,1.44c-1.42,1.4-2.73,2.86-3.92,4.38-2.1,2.68-4.98,6.34-6.62,11.87-1.32,4.43-1.29,8.34-1.28,10.67,.02,2.47,.23,3.95,.43,5.25,.2,1.37,.37,2.55,.3,4.79-.13,4.02-.95,7.12-1.42,8.62-1.09,3.45-2.54,5.8-4.08,8.28-1.53,2.47-3.83,6.19-8.04,10.03-3.6,3.28-7,5.22-8.7,6.09-3.54,1.79-7.34,3-11.29,3.6-.73-.04-1.47-.07-2.21-.09l-.73-102.67-.02-3.89-.22-30.29c9.35,8.32,17.96,17.51,25.65,27.36h0Zm-27.62,113.33c11.53,0,22.81,1.98,33.52,5.91,26.11,9.55,46.94,29.81,57.21,55.64l.13,.35c.86,2.17,1.63,4.36,2.3,6.49,2.96,9.42,4.45,19.25,4.45,29.22,0,1.11-.02,2.26-.06,3.49-.97,27.67-13.73,53.68-35.02,71.46h-.09l-.49,.48c-10.41,8.56-22.25,14.77-35.16,18.46-8.69,2.46-17.7,3.71-26.79,3.71s-18.27-1.28-27.03-3.79l-.23-.22h-.51c-8.61-2.55-16.85-6.3-24.52-11.15l-.07-.05-.19-.12c-.71-.45-1.41-.92-2.11-1.39-1.39-.94-2.75-1.91-4.09-2.92-.54-.4-1.07-.82-1.6-1.23-.71-.55-1.4-1.11-2.09-1.68-.8-.67-1.59-1.35-2.36-2.03-.4-.35-.78-.7-1.17-1.04-.76-.7-1.52-1.42-2.26-2.14-4.75-4.64-9.02-9.76-12.78-15.34-10.87-16.12-16.63-34.96-16.63-54.51,0-8.31,1.04-16.56,3.11-24.52l.06-.23c.54-2.08,1.17-4.22,1.89-6.37,.46-1.37,.95-2.72,1.46-4.04,3.48-8.99,8.26-17.4,14.22-25.01,11.43-14.59,26.67-25.59,44.05-31.79,10.51-3.75,21.55-5.65,32.82-5.65h0Zm-20.89,196.95c6.85,1.44,13.85,2.16,20.89,2.16s14.38-.76,21.37-2.26c-2.44,2.98-4.53,6.22-6.22,9.69-1.46,2.99-4.85,10.79-4.89,18.7-.09,16.77,14.99,28.84,21.55,33.29-3.21,1.39-8.14,2.76-13.83,1.67-4.78-.91-8.32-3.21-10.45-4.99l-2.05-1.7-5.72,14.18-5.33-14-2.08,1.66c-2.37,1.87-7.36,5.02-14.29,5.08-3.9,.05-7.19-.96-9.62-2.03,6.13-3.53,18.46-12.6,20.7-29.6,1.56-11.71-2.23-23.33-10.04-31.87h0Zm-140.95-47.01l11.66-9.4-2.22-1.46c-2.51-1.67-7.05-5.45-9.25-12.02-1.24-3.7-1.32-7.14-1.04-9.78,4.49,4.07,14.27,11.2,27.59,11.19,2.23,0,4.55-.19,6.96-.64,11.61-2.15,21.51-9.33,27.21-19.4,1.51,14.2,5.97,27.84,13.16,40.18-3.6-1.41-7.32-2.39-11.15-2.93-3.29-.47-11.76-1.28-19.3,1.13-15.98,5.1-22.8,23.17-25.01,30.78-2.31-2.62-5.14-6.89-5.86-12.63-.61-4.83,.48-8.9,1.51-11.47l1-2.48-15.26-1.06h0Zm62.05-190.08l12.54,8.18,.71-2.56c.81-2.9,3-8.39,8.58-12.51,3.13-2.32,6.37-3.46,8.97-4.02-2.9,6.45-7.53,21.04,.65,36.12,5.62,10.38,15.5,17.56,26.84,19.88-12.99,5.81-24.6,14.31-34.13,24.96,.23-3.86,.02-7.72-.65-11.54-.58-3.27-2.42-11.58-7.04-18-9.79-13.62-29.1-14.52-37-14.28,1.77-3.01,4.96-7.01,10.2-9.48,4.41-2.07,8.62-2.29,11.38-2.1l2.66,.17-3.71-14.83h0Zm66.44-63.68c.27-.4,.54-.79,.83-1.18,.47-.68,.94-1.35,1.42-2.01,.3-.42,.59-.83,.9-1.25h0c.93-1.31,1.9-2.6,2.87-3.88,7.65-10.09,16.17-19.62,25.37-28.38V181.82c-1.26,.02-2.51,.06-3.76,.14-5.19-1.39-10.01-3.64-14.31-6.7-7.42-5.27-11.16-11.43-13.17-14.75-1.91-3.14-4.06-6.69-5.04-11.84-.54-2.91-.39-4.53-.16-6.76,.16-1.6,.34-3.4,.3-6.01-.06-4.22-.19-13.01-5.36-21.68-1.62-2.72-3.48-4.98-5.32-6.83,4.59-8.82,9.75-17.35,15.41-25.52Zm-91.54,20.56c1.17-.7,2.32-1.33,3.46-1.88,6.27-3.11,11.96-4.16,15.04-4.74,5.53-1.03,11.5-1.3,17.23-.79,.16,.02,.3,.03,.46,.05,.16,.02,.3,.04,.45,.05,1.95,.03,3.81,.33,5.55,.86v-.04c.33,.06,.67,.13,1,.21,5.43,1.14,9.84,2.81,13.35,4.13l1.2,.44c3.6,1.35,5.6,2.1,8.03,3.56,1.13,.68,3.21,1.93,5.54,3.92,.96,.82,1.95,1.75,2.94,2.83,1.34,1.46,2.66,3.17,3.85,5.16,4.63,7.78,4.75,15.86,4.8,19.74,.03,2.39-.14,4.08-.29,5.57-.23,2.37-.44,4.41,.22,7.87,1.11,5.85,3.56,9.89,5.53,13.13,2.16,3.56,6.17,10.17,14.24,15.91,2.41,1.7,4.95,3.18,7.62,4.42-6.51,.93-12.9,2.51-19.11,4.7q-4.14,1.46-.02,0c6.2-2.2,0,0-.02,0-.01,0-.02,0-.02,0-13.04-.11-24.93-7.23-31.11-18.64-9.68-17.86,.91-35.49,1.01-35.67l1.95-3.17-3.71,.21c-3.71,.21-9.25,1.29-14.6,5.25-5.15,3.8-7.81,8.59-9.18,12.11l-16.51-10.78,4.85,19.4c-3.71,.11-7.36,.97-10.66,2.51-8.51,3.99-12.35,11.41-13.61,14.42l-1.28,3.06,3.29-.37c1.06-.12,25.97-2.74,36.89,12.45,4.27,5.93,5.95,14.06,6.36,16.41,.96,5.39,.92,10.89-.09,16.35q-.67,3.64,0,.02c-3.97,5.11-7.43,10.58-10.34,16.33-.08-.94-.19-1.88-.33-2.82-.32-2.09-1.19-6.31-3.4-11.17-2.58-5.68-5.74-9.42-7.63-11.65-1.96-2.31-3.99-4.71-7.32-7.1-2.48-1.77-5.57-3.37-8.69-4.51-2.44-.89-3.92-1.14-5.34-1.38-1.22-.2-2.5-.41-4.58-1.08-2.15-.68-5.39-1.73-8.73-4.02-4.15-2.85-6.41-6.21-8.22-8.92-2.58-3.85-4.64-8.36-5.94-13.05-1.78-6.44-1.68-11.59-1.55-18.12,.04-1.93,.09-4.11,.29-6.58,.16-2.02,.44-4.26,.91-6.71,0,0,0,0,0-.02,.09-.44,.17-.9,.27-1.35,.21-.95,.44-2.03,.72-3.21,.31-1.27,.69-2.65,1.18-4.13,.83-2.55,2-5.39,3.68-8.36,3.39-6.01,7.29-9.81,10.42-12.87,2.12-2.06,4.51-4.4,8.06-6.79,.63-.42,1.26-.83,1.88-1.2h0ZM154.26,21.12h0c1.11,.67,2.27,1.39,3.46,2.15,.05,.02,.09,.02,.13,.04,1.69,.72,3.31,1.7,4.78,2.81,.77,.58,1.47,1.23,2.18,1.88,1.81,1.28,3.63,2.62,5.42,4.03h-.12c.32,.29,.62,.59,.94,.89,1.29,1.2,2.72,2.34,4.21,3.28,.16,.1,.27,.23,.34,.37,2.34,2.12,4.52,4.33,6.4,6.6l.2,.24c1.19,1.45,3.99,4.84,8.37,8.53,4.41,3.72,8.46,6.06,10.63,7.31,4.13,2.37,8.47,4.41,12.9,6.02,3.28,1.21,5.11,1.64,7.25,2.16,1.43,.34,2.9,.69,5.04,1.34,8.47,2.53,14.6,5.75,16.91,6.96,2.7,1.42,9.85,5.46,17.72,12.15,4.14,3.52,8.02,7.38,11.57,11.54-.52,.32-1.04,.65-1.56,1-3.83,2.58-6.36,5.04-8.59,7.22-3.14,3.06-7.43,7.25-11.1,13.74-1.33,2.36-2.36,4.62-3.16,6.74-1.39-1.76-2.73-3.53-4.02-5.3-1.34-1.84-2.25-3.18-3.29-4.72-1.14-1.67-2.43-3.56-4.62-6.63-3.53-4.95-5.29-7.43-6.44-8.7-3.99-4.45-7.75-6.95-13.97-11.08-3.24-2.15-4.84-3.05-6.39-3.92-1.49-.84-2.9-1.63-5.78-3.58-4.38-2.96-8.63-6.19-12.61-9.61-4.56-3.91-6.85-5.87-9.52-9.1-2.52-3.05-3.74-5.25-6.15-9.61-.64-1.14-1.35-2.44-2.18-3.92-1.81-3.21-3.74-6.41-5.61-9.5-1.12-1.84-2.24-3.7-3.34-5.56-.09-.15-.19-.3-.28-.44-.06-.06-.13-.12-.17-.2-.34-.64-.72-1.27-1.09-1.89-.22-.26-.44-.54-.65-.81-.93-1.21-1.91-2.36-2.97-3.45-1.04-1.07-2.15-2.05-3.07-3.24-.79-1-1.53-2.05-2.56-2.82h-.12c-.94-.86-1.92-1.74-2.96-2.63l3.85-.27h0Zm91.24,151.67c.47,1.72,1.04,3.42,1.7,5.08-8.49,1.27-16.91,3.07-25.19,5.38,1.05-1.87,2.17-3.78,3.36-5.74,5.47-9.01,11.66-17.62,18.46-25.68-.02,.6-.03,1.18-.04,1.73-.14,6.84-.25,12.25,1.7,19.24h0ZM138.37,18.32c-1-1.21-2.02-2.41-3.05-3.61,1.69,1.18,3.31,2.34,4.85,3.49l-1.8,.12h0Zm6.47-2.49c.86,.44,2.01,1.06,3.38,1.81l-2.18,.16h0c-1.69-1.34-3.48-2.69-5.36-4.06,1.41,.67,2.79,1.37,4.17,2.09Zm71.35,135.24c-3.91-10.06-5.83-14.67-8.81-20.49-3.24-6.33-5.59-10.89-10-16.02-2.74-3.18-4.58-4.62-6.71-6.3-1.6-1.26-3.42-2.69-5.99-5.2-3.53-3.43-8.62-9.04-12.88-16.24-3.56-6.02-5.64-12.36-9.78-25-1.88-5.74-2.69-8.69-3.21-10.65-.61-2.23-.94-3.46-2.13-6.18-1.65-3.77-3.45-6.94-5.57-10.12-.32-.19-.59-.47-.77-.82-.16-.33-.26-.68-.39-1.01-.06-.12-.13-.24-.2-.36-.03-.03-.05-.05-.08-.09-.69-.7-1.46-1.39-1.83-2.32-.33-.43-.67-.88-1-1.32-1-.65-1.66-1.65-2.22-2.68-.27-.5-.54-1-.84-1.47-.07-.12-.16-.23-.23-.33,0,0,0,0,0-.02-.05-.06-.1-.12-.15-.18-.08-.09-.16-.18-.26-.26h-.15c-.45-.57-.91-1.14-1.39-1.74-.07-.09-.14-.18-.22-.26l3.44-.24c.74,.59,1.45,1.18,2.14,1.77,.98,.29,1.82,1.08,2.48,1.83,.43,.49,.82,1.02,1.19,1.55,.03,.03,.07,.06,.1,.09,.05,.05,.1,.09,.15,.13h0s.02,0,.03,.02c.11,.08,.22,.15,.32,.23,.26,.19,.54,.39,.76,.63,0,0,.02,.02,.02,.04,.59,.57,1.15,1.13,1.7,1.69,.29,.16,.57,.34,.83,.54,.6,.46,1.18,.95,1.67,1.53,.62,.76,1.07,1.67,1.69,2.33,.48,.51,1.01,1.11,1.13,1.81,.72,.98,1.35,1.94,1.91,2.89,1.11,1.88,2.23,3.74,3.36,5.6,1.85,3.07,3.77,6.23,5.55,9.4,.83,1.47,1.53,2.75,2.16,3.88,2.46,4.43,3.81,6.87,6.56,10.2,2.88,3.49,5.4,5.65,9.98,9.58,4.09,3.51,8.46,6.84,12.98,9.88,3,2.03,4.48,2.86,6.05,3.74,1.49,.84,3.03,1.7,6.14,3.78,6.46,4.29,9.72,6.52,13.23,10.44,1,1.11,2.83,3.68,6.16,8.36,2.17,3.04,3.45,4.91,4.57,6.57,1.07,1.56,1.99,2.92,3.36,4.81,1.81,2.49,3.72,4.97,5.72,7.42-.62,2.16-1.04,4.06-1.38,5.65-.57,2.66-.93,5.08-1.14,7.26-7.36,8.3-14.1,17.25-20.07,26.67-2.61-7.06-5.29-14.12-7.97-21.02v.02Zm-8.26,40.78c2.07-.76,4.16-1.47,6.26-2.16,1.74-.57,3.48-1.11,5.23-1.63,9.64-2.88,19.48-5.05,29.43-6.5,.93,1.9,1.97,3.71,3.11,5.41,1.89,2.83,4.48,6.69,9.24,9.96,3.81,2.62,7.53,3.81,9.75,4.51,2.35,.76,3.82,1,5.12,1.22,1.37,.23,2.55,.42,4.65,1.19,3.78,1.37,6.48,3.11,7.75,4.02,2.94,2.1,4.73,4.21,6.62,6.44,1.88,2.21,4.7,5.56,7.06,10.75,2.02,4.44,2.8,8.27,3.1,10.15,.61,3.88,.59,7.83-.04,11.72h0c-.27,.72-.54,1.46-.81,2.2l-97.89-31.03-3.71-1.18-28.81-9.13c10.79-6.33,22.19-11.68,33.94-15.94h0Zm-35,19.69l28.66,9.08,3.71,1.18,97.85,31.03c-.49,1.57-.93,3.13-1.33,4.65h0c-1.81,2.79-3.89,5.32-6.21,7.6-.71,.69-1.44,1.36-2.19,2.01-.76,.65-1.55,1.28-2.35,1.88-7.29,5.4-14.33,7.08-18.11,7.97-3.58,.83-7.64,1.78-12.81,1.12-2.93-.37-4.41-1.03-6.47-1.92-1.46-.65-3.13-1.38-5.63-2.15-3.71-1.15-12.41-3.85-22.27-1.62-2.77,.63-5.51,1.62-8.15,2.95-6.97-7.1-13.49-14.63-19.5-22.53-1.11-1.44-2.19-2.9-3.25-4.37-.96-1.31-1.89-2.62-2.81-3.95-.67-.97-1.33-1.93-1.98-2.9-.78-1.14-1.54-2.3-2.3-3.46-5.51-8.52-10.5-17.41-14.88-26.57h0Zm41.22,65.78c-2.54,1.63-4.34,3.2-5.2,3.95-2.4,2.09-3.87,3.94-6.32,7.01l-.83,1.04c-1.57,1.96-3.51,4.4-5.5,7.32-.28-4.42-.43-8.88-.43-13.33,0-8.4,.51-16.82,1.53-25.11,5.24,6.66,10.83,13.05,16.74,19.12h0Zm-28.09-34.81c.93,1.4,1.88,2.79,2.83,4.18,1.68,2.41,3.4,4.8,5.17,7.15-1.28,9.04-1.98,18.29-2.07,27.52H17.55l168.5-38.85h0Zm-.77,81.42L17.53,285.24H191.99c.05,5.69,.33,11.4,.84,17-1.1,1.96-2.11,4.02-3.01,6.13-2.12,4.95-3.67,10.28-4.54,15.54h0Zm37.53,61.58c-.28-.12-.55-.24-.83-.37-1.94-.86-3.85-1.84-5.83-2.98-3.31-1.92-8.31-4.82-13.21-10.16-4.65-5.08-7.06-9.95-9.02-13.92-1.31-2.64-2.78-5.64-3.95-9.73-2.32-8.1-1.9-15.26-1.4-19.68,.09-.8,.19-1.52,.26-2.13,.08-.58,.16-1.16,.26-1.74,.81-5.03,2.29-10.14,4.32-14.88,.93-2.17,1.98-4.28,3.12-6.29,2.83-5,6-8.98,8.31-11.89l.83-1.04c1.94-2.43,3.18-3.97,4.71-5.46,.35-.34,.72-.68,1.12-1.03,.07-.06,.14-.12,.22-.19,.23-.2,.51-.44,.83-.7,.21-.17,.44-.36,.68-.55,.97-.78,2.22-1.69,3.72-2.62,.4-.24,.82-.49,1.25-.73,.77-.43,1.56-.83,2.35-1.18,1.99-.92,4.03-1.61,6.09-2.08,8.84-2.01,16.56,.39,20.26,1.54,2.29,.7,3.85,1.39,5.22,1.99,2.16,.95,4.04,1.77,7.53,2.22,5.88,.75,10.49-.33,14.21-1.2,4.05-.96,11.6-2.75,19.53-8.62,.89-.66,1.74-1.35,2.58-2.06,.54-.47,1.07-.94,1.6-1.43,.29-.26,.57-.54,.84-.8,.5-.5,.99-1,1.47-1.52,.02-.02,.04-.04,.06-.06-.05,.27-.09,.54-.13,.81-.02,.16-.05,.3-.07,.46-.06,.39-.12,.79-.18,1.18-.17,1.19-.33,2.38-.45,3.57-.04,.36-.08,.72-.11,1.07-.02,.2-.04,.4-.05,.59-.05,.42-.08,.83-.11,1.25-.05,.57-.09,1.14-.12,1.7-.04,.65-.08,1.3-.1,1.95,0,.19-.02,.38-.02,.57-.02,.39-.03,.78-.03,1.17-.02,.33-.02,.66-.03,.99,0,.59-.02,1.18-.02,1.77,0,.83,0,1.65,.03,2.48-4.11,12.41-14.59,21.57-27.38,23.93-19.97,3.68-33.48-11.83-33.62-11.99l-2.41-2.83-.94,3.6c-.95,3.59-1.63,9.19,.48,15.51,2.02,6.07,5.76,10.1,8.68,12.48l-15.35,12.37,19.96,1.39c-1.05,3.56-1.36,7.29-.9,10.91,1.17,9.32,7.03,15.27,9.5,17.4l2.51,2.16,.66-3.25c.22-1.04,5.42-25.54,23.24-31.23,6.97-2.22,15.21-1.31,17.58-.98,5.43,.76,10.66,2.5,15.54,5.16,.86,1.26,1.74,2.5,2.65,3.71,.55,.75,1.12,1.48,1.7,2.2,1.07,1.36,2.18,2.69,3.32,3.99,1.49,1.7,3.04,3.35,4.66,4.96-.92-.21-1.84-.4-2.78-.54-2.07-.33-6.33-.82-11.68-.21-6.2,.69-10.73,2.55-13.43,3.65-2.8,1.14-5.7,2.32-9.02,4.77-2.5,1.86-4.91,4.23-6.97,6.87-1.6,2.05-2.3,3.38-2.96,4.65-.58,1.11-1.18,2.24-2.45,4.02-1.32,1.84-3.32,4.61-6.52,7.06-3.98,3.05-7.88,4.16-11.03,5.06-2.17,.62-4.5,1.07-6.93,1.35-2.41,.28-4.86,.37-7.3,.26-6.68-.29-11.54-1.98-17.72-4.12-2.13-.75-4.34-1.52-6.82-2.59h0Zm29.71,10.55c-.02,.15-.05,.29-.07,.44-.17,1.04-.33,2.09-.49,3.14-.12,.82-.24,1.63-.35,2.46-.08,.54-.15,1.08-.22,1.62-.09,.68-.17,1.36-.25,2.04-.14,1.15-.26,2.3-.38,3.45-.06,.61-.12,1.22-.18,1.84-.09,.88-.16,1.76-.23,2.65-.07,.78-.12,1.56-.18,2.34-.05,.68-.09,1.37-.13,2.05-.04,.68-.08,1.38-.12,2.06l-.07,1.47c-6.94-7.53-13.34-15.61-19.08-24.1-1.4-2.07-2.77-4.19-4.1-6.32,.58,.21,1.15,.4,1.7,.6,6.45,2.24,11.56,4.01,18.8,4.33,.72,.03,1.45,.05,2.18,.05,.48,0,.97,0,1.44-.02,.4,0,.81-.02,1.21-.05,.09,0,.19,0,.29-.02,.04,0,.08,0,.12,0h.11Zm-119.99,142.41c3.14-6.01,14.4-26.46,27.33-37.17l.19-.16c1.45-1.18,4.85-3.97,8.59-8.41,3.71-4.4,5.96-8.31,7.3-10.64,2.38-4.12,4.41-8.45,6.04-12.89,1.19-3.28,1.63-5.11,2.15-7.24,.34-1.43,.69-2.91,1.34-5.06,2.52-8.45,5.74-14.6,6.96-16.91l.24-.44c.05-.09,4.77-8.9,11.9-17.27,7.96-9.35,19.06-17.51,24.08-20.98,6.3,9.14,13.36,17.81,21.03,25.81-.02,1.42-.03,2.78-.03,4.12-3.32,2.83-6.71,5.48-10.12,7.89-1.13,.8-2.19,1.53-3.43,2.37-1.91,1.32-4.29,2.94-7.94,5.55-4.95,3.52-7.43,5.29-8.7,6.43-4.45,4-6.95,7.75-11.08,13.98-2.15,3.24-3.05,4.83-3.92,6.38-.84,1.49-1.64,2.9-3.58,5.78-2.96,4.39-6.2,8.63-9.61,12.62-3.91,4.55-5.87,6.84-9.1,9.51-3.06,2.52-5.25,3.74-9.62,6.16-1.14,.63-2.43,1.35-3.91,2.18-3.21,1.81-6.4,3.74-9.49,5.6-1.85,1.13-3.71,2.25-5.57,3.35-6.99,4.13-14.74,12.04-23.15,23.62,.68-1.42,1.38-2.81,2.1-4.19h0Zm114.76-62.53c-6.34,3.25-10.91,5.6-16.02,10-3.18,2.73-4.62,4.57-6.29,6.7-1.26,1.6-2.69,3.42-5.21,6-3.41,3.5-9,8.59-16.24,12.88-6.04,3.57-12.38,5.64-25,9.77-5.74,1.88-8.69,2.69-10.65,3.22-2.23,.61-3.46,.94-6.17,2.13-8.31,3.64-13.73,7.95-22.72,15.08-2.55,2.02-5.08,4.11-7.56,6.25,8.9-12.8,16.99-21.37,24.13-25.59,1.88-1.11,3.74-2.24,5.6-3.37,3.06-1.85,6.23-3.77,9.39-5.55,1.46-.83,2.74-1.53,3.88-2.16,4.44-2.45,6.88-3.81,10.21-6.56,3.49-2.88,5.65-5.4,9.58-9.98,3.51-4.09,6.83-8.45,9.88-12.97,2.03-3.01,2.86-4.48,3.74-6.05,.84-1.49,1.7-3.03,3.78-6.15,4.29-6.45,6.52-9.71,10.44-13.23,1.11-1,3.68-2.83,8.36-6.16,3.63-2.58,5.99-4.2,7.88-5.5,1.26-.86,2.34-1.6,3.48-2.41,2.67-1.89,5.32-3.92,7.94-6.06,.02,.54,.03,1.08,.05,1.63,.4,11.68,1.78,23.41,4.13,34.9-2.2,.98-4.34,2.01-6.62,3.18h0Zm10.74-2.44c-.16-.77-.33-1.55-.47-2.33-2.2-11.01-3.5-22.25-3.88-33.45-.06-1.6-.09-3.18-.11-4.74,0-.3,0-.59,0-.89-.02-1.42,0-2.85,0-4.33,.02-.46,.02-.93,.03-1.39,.02-1.28,.07-2.58,.12-3.86,.07-1.83,.17-3.67,.3-5.5,.05-.74,.1-1.48,.16-2.22,.05-.64,.1-1.28,.16-1.91s.12-1.28,.18-1.91c.05-.64,.12-1.28,.19-1.93,.06-.65,.13-1.29,.21-1.94,.06-.54,.12-1.09,.19-1.63,.11-.86,.22-1.72,.33-2.58,.03-.23,.06-.47,.09-.71,.13-.92,.26-1.83,.4-2.75,.09-.64,.19-1.27,.3-1.91,.1-.63,.21-1.27,.32-1.9,2.12-.3,4.16-.73,6.09-1.29,3.46-.98,7.76-2.2,12.33-5.71,3.65-2.79,5.94-5.97,7.31-7.87,1.44-2.01,2.13-3.33,2.74-4.5,.64-1.23,1.19-2.29,2.58-4.06,1.84-2.37,4-4.49,6.21-6.14,2.93-2.16,5.48-3.19,8.18-4.3,2.68-1.1,6.73-2.76,12.4-3.39,5.07-.57,9.11-.05,10.62,.19,3.91,.63,7.67,1.87,11.19,3.7,.06,.05,.12,.1,.19,.15,.02,.02,.02,.02,.04,.03,.09,.08,.17,.14,.26,.21,.44,.34,.86,.68,1.3,1.01l-75.54,105.54-4.09,5.72c-.11-.47-.21-.94-.31-1.42h0Zm49.77-7.36c-2.94,1.02-5.96,2-8.97,2.91-12.16,3.67-24.67,6.37-37.26,8.05l3.35-4.69,4.16-5.81,72.03-100.61c1.11,.79,2.23,1.56,3.36,2.29,.16,.12,.33,.23,.49,.33,.02,.02,.04,.03,.06,.04,.02,.02,.04,.03,.06,.04,0,0,.02,0,.02,.02,.21,.26,.42,.52,.62,.79,.19,.25,.39,.5,.57,.75,.97,1.31,1.87,2.65,2.68,4.05,.17,.29,.34,.58,.5,.87,.16,.29,.33,.58,.48,.89,.16,.3,.31,.59,.45,.89,.3,.6,.59,1.21,.86,1.82,.27,.61,.53,1.23,.76,1.85,.24,.61,.47,1.25,.68,1.88,2.91,8.63,2.3,15.82,1.98,19.67-.31,3.66-.65,7.81-2.89,12.54-1.27,2.68-2.34,3.88-3.84,5.56-1.07,1.19-2.27,2.55-3.78,4.69-2.43,3.45-7.49,10.63-8.41,20.67-.09,1.05-.14,2.1-.14,3.16,0,.43,0,.86,.02,1.29,0,.38,.03,.76,.06,1.14,.02,.25,.04,.51,.06,.76,.02,.23,.04,.46,.07,.69,.04,.47,.1,.93,.17,1.4,0,.08,.02,.15,.03,.23-.17,.09-.34,.17-.51,.25-.79,.39-1.56,.77-2.35,1.14-.51,.24-1.01,.48-1.52,.72-.71,.34-1.43,.68-2.15,1-1.63,.75-3.27,1.48-4.92,2.19-.84,.37-1.67,.72-2.51,1.07-.26,.11-.51,.22-.76,.32-.25,.11-.51,.21-.76,.31-1.44,.59-2.88,1.17-4.33,1.73-.93,.37-1.87,.72-2.8,1.07-1.88,.7-3.77,1.38-5.65,2.03h0Zm5.67,2.11s.1-.04,.16-.06c2.12-.78,4.25-1.6,6.36-2.44,.8-.32,1.6-.65,2.41-.98,1.84-.76,3.67-1.53,5.48-2.34,.22-.09,.44-.19,.65-.29,.02,0,.05-.02,.07-.03,.44-.19,.86-.38,1.29-.58,.14-.06,.28-.12,.42-.19,.78-.35,1.56-.71,2.34-1.07,1.42-.66,2.83-1.34,4.23-2.04,.76,2.86,1.67,5.01,2.16,6.17,1.24,2.92,2.54,4.9,4.69,8.17l.74,1.13c1.37,2.08,3.11,4.72,5.29,7.53-12.47-3.15-24.64-7.5-36.29-12.96h0Zm133.55,9.47c-.68,.9-1.39,1.82-2.16,2.79l-.2,.26s-.05,.06-.08,.09c-.51,.63-1.08,1.34-1.72,2.07-.13,.16-.28,.32-.42,.48-1.36,1.56-2.77,3-4.28,4.42h0c-.31,.3-.63,.58-.95,.87-2.84,2.55-7.14,6.41-13.75,9.42-6.3,2.88-11.68,3.65-16,4.28h-.09c-2.26,.33-4.58,.68-7.43,.76-.97,.03-1.97,.03-2.98,0-9.97-.36-17.48-3.94-21.09-5.66-5.08-2.41-10.06-5.69-14.4-9.49-.12-.1-.24-.21-.36-.32-1.62-1.43-3.14-2.92-4.62-4.53l-.42-.47-.3-.34-.35-.39c-2.1-2.41-3.84-4.75-5.32-6.89-.88-1.27-1.67-2.46-2.38-3.55l-.75-1.14c-2.1-3.18-3.25-4.94-4.36-7.54-.49-1.17-1.46-3.43-2.18-6.43-.11-.46-.22-.93-.31-1.42-.08-.42-.16-.83-.22-1.25-.07-.44-.12-.9-.18-1.34,0-.06-.02-.12-.02-.18-.02-.24-.05-.49-.07-.73-.02-.3-.05-.61-.06-.91-.02-.09-.02-.17-.02-.25,0-.18-.02-.36-.02-.53v-.13c0-.3-.02-.59-.02-.89,0-.95,.04-1.88,.12-2.82,.83-9.01,5.48-15.61,7.71-18.8,1.38-1.95,2.51-3.22,3.5-4.34,1.58-1.77,2.94-3.3,4.45-6.48,2.53-5.37,2.93-10.09,3.25-13.88,.33-3.85,1-11.84-2.17-21.24-.22-.65-.45-1.3-.7-1.94-.05-.15-.11-.3-.17-.44-.05-.15-.12-.3-.18-.45-.12-.31-.26-.61-.39-.92-.13-.32-.27-.63-.41-.93-.12-.26-.25-.52-.37-.79-.14-.29-.28-.58-.43-.86-.28-.54-.57-1.1-.86-1.63,0-.02-.02-.04-.03-.06,5.81,3.05,11.86,5.53,18.11,7.39l.23,.22h.15c10.32,7.78,15.66,20.43,13.97,33.2-2.67,20.13-21.6,28.18-21.79,28.26l-3.44,1.42,3.13,2.02c3.12,2.01,8.2,4.39,14.9,4.34,6.4-.05,11.38-2.36,14.55-4.41l7.02,18.42,7.48-18.55c3.07,2.09,6.52,3.54,10.1,4.23,9.22,1.77,16.7-1.97,19.48-3.66l2.83-1.72-2.89-1.63c-.92-.53-22.61-13.04-22.52-31.76,.04-7.31,3.45-14.87,4.5-17.02,2.4-4.91,5.64-9.33,9.67-13.15,6.26-1.81,12.26-4.2,17.98-7.14-.49,.8-.95,1.62-1.38,2.45-1.66,3.26-3.01,7.18-3.81,11.04-1.25,6.11-.89,11-.67,13.91,.22,3.03,.45,6.16,1.75,10.05,.55,1.67,1.85,5.02,4.38,8.76,1.45,2.15,2.49,3.21,3.5,4.24,.87,.89,1.77,1.81,3.07,3.58,1.25,1.7,3.34,4.54,4.7,8.38,1.67,4.72,1.53,8.79,1.4,12.04-.09,2.3-.37,4.66-.85,7.02-.48,2.36-1.16,4.72-2.02,7.03-1.64,4.4-3.66,7.73-6.08,11.12-1.03,1.44-2.13,2.9-3.31,4.45h0Zm2.01,3.79c.37-.49,.73-.97,1.09-1.44,4.13-5.45,7.39-9.75,9.93-16.56,.62-1.67,1.16-3.38,1.6-5.1,7.62,3.95,15.5,7.45,23.55,10.45-11.63,5.36-23.76,9.61-36.17,12.66h0Zm88.09-4.41c-2.18-.23-4.37-.49-6.54-.79-9.78-1.35-19.46-3.39-28.92-6.12-2.12-.61-4.23-1.25-6.33-1.94h0c-1.74-.55-3.46-1.14-5.18-1.74-9.49-3.34-18.74-7.37-27.64-12.05,.36-2.09,.58-4.17,.66-6.21,.13-3.59,.3-8.06-1.62-13.49-1.56-4.38-3.87-7.51-5.24-9.38-1.46-1.99-2.51-3.06-3.43-4-.97-.99-1.81-1.84-3.06-3.7-2.27-3.35-3.42-6.33-3.92-7.81-1.14-3.42-1.35-6.18-1.56-9.11-.21-2.89-.54-7.25,.61-12.84,.98-4.76,2.59-8.34,3.46-10.04,1.79-3.49,4.12-6.66,6.91-9.44,0,0,.02,0,.02,0,.65-.43,1.31-.86,1.95-1.31l60.93,82.63,2.31,3.13,17.96,24.36c-.45-.04-.9-.09-1.35-.14h0Zm-13.45-26.5l-2.31-3.13-60.92-82.62c1.18-.87,2.34-1.77,3.49-2.71h.1l.27-.27c4.98-1.9,10.16-2.9,15.4-2.95,9.09-.09,15.75,2.7,19.33,4.2,3.38,1.42,7.21,3.03,11.03,6.62,2.16,2.03,2.97,3.43,4.1,5.37,.81,1.38,1.73,2.94,3.29,5.04,2.53,3.38,7.79,10.41,17.07,14.39,2.9,1.25,5.74,1.98,8.32,2.4,1.46,9.82,2.3,19.74,2.53,29.66,.02,.89,.04,1.78,.05,2.67l-.02,.02c.02,.12,.05,.25,.05,.37,0,.8,.14,1.6,.1,2.41-.02,.23-.05,.45-.12,.65,0,1.4-.02,2.8-.05,4.2-.26,12.67-1.56,25.4-3.86,37.9l-17.86-24.22h0Zm131.5,100.17c-6.01-3.14-26.46-14.4-37.17-27.34l-.2-.25c-1.19-1.45-3.99-4.84-8.37-8.53-4.42-3.71-8.47-6.05-10.64-7.3-4.13-2.38-8.46-4.41-12.89-6.03-3.28-1.2-5.12-1.64-7.25-2.16-1.42-.34-2.9-.69-5.04-1.33-8.47-2.53-14.6-5.75-16.91-6.97-2.31-1.21-7.85-4.33-14.32-9.38,.02,0,.05,0,.08,0l1.72,.14,.34-1.69c2.86-14.12,4.47-28.57,4.77-42.94,0-.34,.02-.69,.02-1.04,2.72,3.13,5.39,6.25,6.54,7.81,1.34,1.84,2.24,3.18,3.29,4.72,1.14,1.67,2.42,3.56,4.62,6.66,3.52,4.93,5.29,7.42,6.42,8.69,4,4.45,7.75,6.94,13.98,11.08,3.23,2.16,4.83,3.06,6.38,3.93,1.49,.84,2.9,1.63,5.78,3.58,4.38,2.95,8.63,6.19,12.62,9.61,4.56,3.91,6.84,5.87,9.51,9.1,2.52,3.05,3.74,5.25,6.16,9.61,.63,1.14,1.34,2.43,2.18,3.91,1.81,3.21,3.74,6.41,5.61,9.5,1.12,1.84,2.24,3.7,3.34,5.56,4.13,6.99,12.04,14.73,23.61,23.13-1.41-.67-2.8-1.36-4.18-2.09h0Zm-108.31-153.39c.83,.05,1.6,.07,2.32,.07,1.88,0,3.34-.13,4.21-.21,3.18-.28,5.47-.91,9.28-1.96l1.23-.34c2.52-.7,5.49-1.51,8.78-2.69-6.86,10.84-14.73,21.03-23.52,30.42-.32-8.46-1.09-16.91-2.3-25.29Zm36.97,18.15c3.92,10.06,5.83,14.67,8.81,20.49,3.25,6.32,5.59,10.89,10.01,16.02,2.73,3.17,4.58,4.62,6.71,6.3,1.6,1.26,3.42,2.69,5.99,5.19,3.52,3.44,8.62,9.04,12.88,16.25,3.56,6.02,5.64,12.36,9.78,24.99,1.88,5.74,2.68,8.69,3.21,10.65,.61,2.23,.94,3.47,2.13,6.18,3.66,8.33,7.95,13.75,15.08,22.72,2.02,2.55,4.09,5.06,6.23,7.55-12.78-8.9-21.37-16.98-25.57-24.12-1.11-1.88-2.23-3.74-3.36-5.6-1.85-3.07-3.78-6.23-5.56-9.39-.83-1.47-1.53-2.75-2.16-3.88-2.45-4.44-3.81-6.88-6.56-10.21-2.88-3.48-5.39-5.64-9.98-9.57-4.09-3.52-8.46-6.84-12.97-9.89-3.01-2.03-4.49-2.86-6.05-3.74-1.49-.84-3.03-1.7-6.15-3.78-6.46-4.3-9.72-6.53-13.23-10.44-.99-1.11-2.83-3.68-6.16-8.36-2.16-3.04-3.44-4.92-4.57-6.57-1.07-1.57-1.98-2.93-3.36-4.82-1.49-2.06-5.11-6.2-8.59-10.21-.36-.41-.72-.82-1.06-1.21h0c0-.65-.02-1.28-.02-1.91,9.98-10.27,18.9-21.58,26.54-33.66,2.61,7.06,5.29,14.11,7.97,21.02h0Zm26.88-71.62c-.5,2.91-1.07,6.21-2.53,10.22-3.41,9.36-9.14,15.4-11.89,18.31-3.87,4.09-8.53,7.81-13.48,10.77-.13,.08-.27,.16-.4,.24h0c-2.18,1.28-4.3,2.35-6.33,3.25-5.05,2.24-9.58,3.49-13.19,4.48l-1.24,.34c-3.71,1.03-5.76,1.59-8.59,1.84-1.21,.11-3.67,.33-6.8,.07-1.25-.1-2.62-.28-4.04-.57-1.95-.39-4.03-1-6.14-1.9-8.32-3.56-13.16-10.03-15.49-13.15-1.43-1.91-2.29-3.38-3.04-4.67-1.2-2.05-2.23-3.82-4.79-6.23-4.34-4.08-8.69-5.91-12.2-7.38-3.83-1.6-11.01-4.61-20.87-4.5-2.95,.03-5.88,.33-8.77,.9,4.72-4.61,8.94-9.63,12.65-14.99h0c10.62-7.64,24.48-8.89,36.22-3.28,18.32,8.76,20.13,29.25,20.14,29.45l.29,3.71,2.89-2.36c2.87-2.34,6.72-6.48,8.73-12.83,1.92-6.1,1.27-11.55,.3-15.19l19.69-.99-15.33-12.85c2.94-2.27,5.39-5.1,7.15-8.3,4.53-8.23,3.28-16.49,2.54-19.65l-.76-3.23-2.45,2.24c-.78,.72-19.39,17.47-37.15,11.61-6.95-2.3-13.08-7.88-14.8-9.54-3.95-3.81-7.15-8.27-9.54-13.29h0c.03-1.11,.05-2.15,.05-3.16,0-5.43-.43-10.83-1.28-16.14,.61,.72,1.26,1.41,1.93,2.09,1.49,1.49,4.67,4.4,9.31,7.04,5.43,3.08,10.18,4.24,13.02,4.93,2.95,.72,6,1.47,10.1,1.44,1.77-.02,5.37-.23,9.68-1.46,2.5-.72,3.83-1.38,5.12-2.02,1.12-.55,2.27-1.12,4.35-1.81,2.14-.71,5.38-1.77,9.43-1.88,5.02-.12,8.83,1.27,11.89,2.39,4.36,1.6,8.67,4.04,12.47,7.06,5.23,4.16,8.18,8.39,11.91,13.75,1.11,1.6,2.35,3.39,3.64,5.51h0c1.07,1.76,2.16,3.74,3.23,6.02h0c.18,.4,.37,.8,.54,1.21,1.35,3.05,3.31,7.47,4.33,13.33,.15,.85,.28,1.73,.38,2.64,.05,.42,.09,.83,.12,1.24,.56,6.27-.3,11.26-.99,15.3h0Zm4.29-20.05c-1.1-6.22-3.15-10.83-4.57-14.04-1.1-2.48-2.22-4.63-3.33-6.53,.58-5.98,.9-12.04,.94-18.05h174.46l-167.5,38.62Z"/>
        </g>
        <g>
          <path class="cls-1" d="M400.01,213.1c-38.78,0-70.33,31.55-70.33,70.33s31.55,70.33,70.33,70.33,70.33-31.55,70.33-70.33-31.55-70.33-70.33-70.33h0Zm0,136.76c-36.63,0-66.43-29.8-66.43-66.43s29.8-66.43,66.43-66.43,66.43,29.8,66.43,66.43-29.8,66.43-66.43,66.43Z"/>
          <path class="cls-1" d="M400.01,192.59c-50.09,0-90.84,40.75-90.84,90.84s40.75,90.84,90.84,90.84,90.84-40.75,90.84-90.84-40.75-90.84-90.84-90.84h0Zm0,177.78c-47.94,0-86.94-39-86.94-86.94s39-86.94,86.94-86.94,86.94,39,86.94,86.94-39,86.94-86.94,86.94Z"/>
          <path class="cls-1" d="M631.69,206.77c-12.54-7.08-25.78-13.08-39.36-17.81-2.76-.97-5.56-1.88-8.36-2.74-2.75-5.21-5.77-10.35-8.98-15.36l.02-.02c-.83-1-1.54-2.11-2.12-3.3-.02,.02-.03,.03-.05,.05-4.97-7.42-10.45-14.55-16.32-21.22-.26-2.14-.65-4.4-1.18-6.77-.44-1.91-.97-3.81-1.57-5.71,.03-.03,.07-.05,.1-.08-.61-1.2-1.09-2.48-1.39-3.82-.02,.02-.05,.03-.08,.05-1.02-2.63-2.2-5.18-3.51-7.59-2.04-3.75-6.28-11.54-14.76-18.18-1.79-1.39-3.45-2.51-5.01-3.44,.08-.03,.16-.06,.24-.09-1.86-.54-3.55-1.41-5.04-2.55-3.85-2.02-9.07-4.72-16.22-6.16-7.67-1.56-13.78-.93-17.82-.51-.65,.06-1.28,.14-1.89,.22-.61,.23-1.25,.37-1.9,.43-.51,.16-1.06,.27-1.65,.33-.15,.05-.3,.12-.45,.18-.03,0-.05,.02-.09,.02-.39,.09-.79,.16-1.18,.2-14.79-6.3-30.08-10.89-45.7-13.71-.11-.16-.23-.33-.34-.49-2.05-2.93-4.16-5.8-6.36-8.61-8.54-10.94-18.21-21.09-28.75-30.15v-.2c-.78-.46-1.55-.94-2.3-1.44-.52,.58-1.04,1.15-1.58,1.69-.55,.55-1.13,1.08-1.71,1.6-9.71,9.15-18.7,19.13-26.77,29.73-1.77,2.34-3.5,4.7-5.19,7.11-.12,.16-.23,.33-.35,.5-15.85,2.71-31.45,7.19-46.45,13.4-.68-.16-1.35-.32-2.02-.48-.75-.04-1.47-.16-2.15-.37v.04c-.72-.09-1.46-.17-2.22-.24-6.09-.54-12.42-.26-18.3,.84-3.33,.61-9.55,1.78-16.45,5.27-1.26,.99-2.67,1.79-4.16,2.36-.4,.26-.82,.51-1.23,.79-3.83,2.58-6.36,5.04-8.59,7.22-3.14,3.06-7.43,7.25-11.1,13.74-1.19,2.11-2.12,4.13-2.89,6.06-.16,2.12-.86,4.14-1.96,5.93-.49,1.81-.85,3.42-1.14,4.8-.57,2.66-.93,5.08-1.14,7.26-7.29,8.23-13.99,17.11-19.93,26.45-.63,1.66-1.6,3.18-2.79,4.51-1.73,2.9-3.31,5.67-4.79,8.41-3.41,1.05-6.79,2.18-10.13,3.39-13.33,4.84-26.23,11.06-38.33,18.49l-1.47,.9,.72,1.56c4.71,10.31,10.17,20.33,16.28,29.89h-.03c.9,1.05,1.66,2.22,2.26,3.48h.04c.93,1.39,1.88,2.79,2.83,4.17,1.68,2.41,3.4,4.8,5.17,7.15-1.28,9.04-1.98,18.29-2.07,27.52h-.02c.05,.44,.1,.87,.12,1.32v.3c.03,.27,.06,.54,.07,.81,.04,.85-.02,1.69-.14,2.5,.07,5.35,.33,10.7,.82,15.96-1.1,1.96-2.11,4.02-3.01,6.13-2.09,4.87-3.62,10.12-4.49,15.3,0,.11,.02,.21,.02,.31,.08,1.67-.19,3.29-.72,4.81-.5,4.74-.83,12.15,1.6,20.62,1.26,4.43,2.82,7.59,4.23,10.44,1.94,3.92,4.58,9.28,9.62,14.77,5.3,5.78,10.61,8.85,14.12,10.9,2.21,1.27,4.34,2.35,6.5,3.3,1.84,3.12,3.78,6.22,5.78,9.24-.03,.02-.06,.04-.09,.06,.82,1,1.5,2.12,2.05,3.32,.07-.05,.15-.1,.22-.15,6.3,9.14,13.36,17.81,21.03,25.81-.02,1.42-.03,2.78-.03,4.12-.07,.06-.15,.12-.22,.19,.24,1,.39,2.04,.44,3.1,.03,.82-.02,1.61-.13,2.4,.02,.31,.02,.63,.03,.95,.4,11.68,1.78,23.41,4.13,34.9-.07,.03-.14,.06-.21,.09,.46,1.22,.79,2.51,.94,3.84,.03-.02,.06-.03,.09-.04,.26,1.16,.52,2.29,.79,3.37l.4,1.67,1.7-.19c14.3-1.63,28.54-4.57,42.32-8.73,2.8-.84,5.62-1.74,8.36-2.69,11.72,5.77,24,10.4,36.61,13.86,2.16,.2,4.21,.75,6.1,1.57,.53,.12,1.05,.27,1.58,.4l-.62,.05c.37,.19,.73,.39,1.09,.59,2.37,1.16,4.48,2.76,6.23,4.72,.05,.04,.09,.08,.14,.12,.72,.55,1.41,1.13,2.1,1.73,3.95,3.11,8.27,5.82,12.66,7.92,3.85,1.83,11.85,5.64,22.63,6.03,.41,.02,.83,.02,1.24,.02,.72-.09,1.44-.11,2.15-.05,.58-.05,1.17-.09,1.76-.09,.08,0,.16,0,.23,0,2.13-.16,4.02-.44,5.72-.68l.1-.02c4.33-.62,10.25-1.48,17.05-4.59,7.15-3.25,11.71-7.35,14.73-10.06,.12-.12,.24-.23,.37-.34,.59-.62,1.21-1.21,1.88-1.77,.23-.23,.47-.47,.71-.7l-.03,.15c1.42-1.11,2.99-2.06,4.64-2.79l.05-.25c.12-.03,.24-.05,.36-.09l-.02,.16c1.58-.66,3.24-1.14,4.93-1.39,12.95-3.38,25.59-8.02,37.63-13.83l.37,.16,.07-.07c3.25,1.11,6.53,2.15,9.82,3.09,11.31,3.25,22.95,5.56,34.67,6.87,.72-.12,1.45-.18,2.18-.18,1.77,0,3.43,.33,4.97,.89,0,0-.02-.02-.02-.02,.02,0,.05,0,.08,0l1.72,.14,.34-1.69c2.86-14.12,4.47-28.57,4.77-42.94,0-.34,.02-.69,.02-1.04,0,0,.02,0,.02,.02-.09-.7-.08-1.42-.02-2.12-.08-.75-.06-1.5,.02-2.25,.02-.47,.08-.93,.16-1.39-.05-.05-.09-.11-.14-.16h0c0-.65-.02-1.28-.02-1.91,.58-.6,1.14-1.21,1.7-1.81,.54-.8,1.21-1.53,2.01-2.12,8.45-9.18,16.09-19.11,22.75-29.62,.2-.35,.43-.68,.68-1.01,.44-1.25,1.12-2.42,2.05-3.39,.09-.16,.19-.32,.28-.48,.17-.09,.35-.17,.52-.26,.86-.69,1.89-1.24,3.08-1.57,.79-.44,1.6-.88,2.41-1.36,5.25-3.14,10.2-7.09,14.31-11.43,2.93-3.09,9.04-9.54,12.73-19.65,1.58-4.34,2.18-7.82,2.71-10.9,.72-4.16,1.68-9.79,.98-16.84l.1-.02c-.16-.6-.26-1.21-.32-1.83-.12-.67-.2-1.35-.24-2.03l-.07,.02c-1.1-6.22-3.15-10.83-4.57-14.04-1.1-2.48-2.22-4.63-3.33-6.53,.58-5.98,.9-12.04,.94-18.05h.02c-.05-.38-.09-.76-.11-1.15-.02-.4,0-.79,.02-1.18,0-.05,0-.09-.02-.13-.03-.72,0-1.43,.09-2.13-.11-8.49-.72-17.02-1.85-25.38,2.15-2.85,4.23-5.75,6.22-8.71,.67-.99,1.32-1.99,1.98-3,.66-1.59,1.61-3.06,2.76-4.35,5.92-9.61,11.1-19.71,15.4-30.13l.66-1.6-1.5-.85h0Zm-75.92-33.99c.72-3.11,.83-5.5,1-9.43l.06-1.28c.12-2.6,.26-5.65,.16-9.12,4.55,5.46,8.83,11.18,12.77,17.09-.09,.07-.19,.14-.27,.2l2.29,3.14s.09-.06,.12-.09c2.39,3.73,4.66,7.53,6.8,11.39-8.17-2.32-16.45-4.2-24.81-5.64,1.09-2.8,1.62-5.09,1.88-6.26h0Zm25.51,16.69h0c1.74,.52,3.47,1.07,5.19,1.63,1.53,.49,3.05,1,4.57,1.53,11.98,4.17,23.68,9.34,34.86,15.39l-28.53,9.5-3.7,1.23-97.41,32.41c-.5-1.49-1.05-3.01-1.64-4.52l-.02-.05c-.27-5.34,.38-10.58,1.95-15.58,2.72-8.69,7.43-14.15,9.96-17.09,2.39-2.78,5.1-5.92,9.71-8.45,2.6-1.42,4.18-1.77,6.37-2.25,1.56-.34,3.33-.72,5.8-1.56,4-1.36,12.32-4.2,18.97-11.79,2.09-2.37,3.67-4.85,4.86-7.17,9.82,1.64,19.52,3.91,29.04,6.76h0Zm-92.63-93.84h.05c.23-.03,.45-.07,.68-.09,.41-.05,.84-.09,1.27-.14,3.81-.4,9.55-.99,16.65,.45,5.12,1.04,9.13,2.75,12.45,4.4,1.07,.53,2.06,1.05,3,1.55,.52,.27,1.07,.56,1.62,.86,2.2,1.18,4.64,2.6,7.32,4.7,7.84,6.14,11.82,13.46,13.74,16.98,1.41,2.58,2.65,5.35,3.71,8.2,.47,1.29,.92,2.61,1.31,3.93,.4,1.33,.76,2.67,1.06,4.02,.04,.18,.08,.36,.12,.54,.54,2.47,.9,4.8,1.13,7.01,.57,5.48,.35,10.15,.18,13.87l-.05,1.28c-.17,3.85-.27,5.97-.9,8.74-.3,1.28-.84,3.66-2.02,6.48-.47,1.16-1.06,2.39-1.77,3.66-.98,1.73-2.2,3.52-3.73,5.26-5.96,6.8-13.61,9.41-17.3,10.66-2.26,.77-3.92,1.14-5.38,1.46-2.32,.51-4.32,.94-7.42,2.63-5.22,2.86-8.31,6.44-10.78,9.32-2.72,3.15-7.76,9.01-10.73,18.46-.88,2.8-1.49,5.67-1.84,8.58-2.93-5.92-6.41-11.5-10.38-16.69q-2.65-3.46,0-.02c-3.94-12.44-.84-25.97,8.11-35.38,13.99-14.71,34.04-10.1,34.23-10.06l3.62,.87-1.35-3.47c-1.35-3.46-4.09-8.39-9.5-12.26-5.21-3.72-10.59-4.78-14.36-4.99l5.15-19.03-16.95,10.61c-1.25-3.49-3.19-6.69-5.69-9.36-1.46-1.56-3-2.82-4.57-3.86-.73-.38-1.44-.8-2.11-1.27-4.62-2.49-9.04-3.18-11.22-3.35l-3.31-.27,1.37,3.02c.44,.97,10.63,23.84-.44,38.92-4.33,5.9-11.54,10.01-13.64,11.13-4.83,2.56-10.06,4.23-15.55,4.95h0c-6.09-2.2-12.37-3.8-18.76-4.79,.87-.37,1.74-.76,2.58-1.19,1.88-.95,5.64-3.09,9.57-6.68,4.61-4.21,7.18-8.38,8.73-10.86,1.6-2.58,3.25-5.25,4.48-9.16,.54-1.68,1.45-5.18,1.6-9.66,.09-2.59-.12-4.07-.34-5.5-.18-1.23-.37-2.51-.38-4.7,0-2.26-.02-5.67,1.12-9.54,1.42-4.82,3.93-8.01,5.95-10.57,2.86-3.65,6.52-6.99,10.57-9.68,5.57-3.69,10.5-5.18,16.75-7.08,1.52-.47,3.19-.97,5.08-1.45,2.33-.93,4.82-1.44,7.32-1.44h0Zm-13.36,119.71c-9.48-10.48-21.13-18.97-34.25-24.76,3.73-.97,7.32-2.37,10.73-4.18,2.93-1.56,10.27-5.88,14.95-12.26,9.92-13.51,4.83-32.14,2.14-39.6,3.42,.76,8.2,2.55,12.17,6.77,3.33,3.56,4.83,7.5,5.52,10.17l.65,2.59,12.96-8.11-3.91,14.45,2.65-.12c3.01-.12,8.9,.26,14.55,4.29,3.18,2.27,5.26,5,6.59,7.29-7.04-.76-22.34-.65-34.16,11.78-8.13,8.55-11.9,20.17-10.61,31.67h0Zm1.15-120.94c-.45,.14-.9,.27-1.32,.4-6.55,1.98-11.72,3.55-17.77,7.55-1.47,.97-2.9,2.03-4.26,3.15l-.07-.33c-.6-.05-.88-.56-.86-1.04-.25-.15-.4-.4-.44-.69-.12-.16-.24-.34-.33-.56-.49-1.1-1.11-2.06-1.68-3.11-.5-.92-.75-1.94-1.29-2.83-.87-1.43-2.24-3.1-2.69-4.79-1.68-2.84-3.43-5.64-5.25-8.39,12.24,2.44,24.25,6,35.96,10.64h0Zm-48.82-21.9c1.36,1.74,2.69,3.51,3.99,5.3,.12,.16,.24,.33,.37,.5,.68,.93,1.35,1.88,2.02,2.83,.26,.37,.52,.75,.78,1.12,.12,.16,.23,.33,.34,.5,5.32,7.76,10.13,15.88,14.34,24.29l.33,1.44c-1.42,1.4-2.73,2.86-3.92,4.38-2.1,2.68-4.98,6.34-6.62,11.87-1.32,4.43-1.29,8.34-1.28,10.67,.02,2.47,.23,3.95,.43,5.25,.2,1.37,.37,2.55,.3,4.79-.13,4.02-.95,7.12-1.42,8.62-1.09,3.45-2.54,5.8-4.08,8.28-1.53,2.47-3.83,6.19-8.04,10.03-3.6,3.28-7,5.22-8.7,6.09-3.54,1.79-7.34,3-11.29,3.6-.73-.04-1.47-.07-2.21-.09l-.73-102.24v-.43l-.02-3.46v-.44l-.22-30.29c9.35,8.32,17.96,17.51,25.65,27.36h0Zm-27.62,113.33c11.53,0,22.81,1.98,33.52,5.91,26.11,9.55,46.94,29.81,57.21,55.64l.13,.35c.86,2.17,1.63,4.36,2.3,6.49,2.96,9.42,4.45,19.25,4.45,29.22,0,1.11-.02,2.26-.06,3.49-.97,27.67-13.73,53.68-35.02,71.46h-.09l-.49,.48c-10.41,8.56-22.25,14.77-35.16,18.46-8.69,2.46-17.7,3.71-26.79,3.71s-18.27-1.28-27.03-3.79l-.23-.22h-.51c-8.61-2.55-16.85-6.3-24.52-11.15l-.07-.05-.19-.12c-.71-.45-1.41-.92-2.11-1.39-1.39-.94-2.75-1.91-4.09-2.92-.54-.4-1.07-.82-1.6-1.23-.71-.55-1.4-1.11-2.09-1.68-.8-.67-1.59-1.35-2.36-2.03-.4-.35-.78-.7-1.17-1.04-.76-.7-1.52-1.42-2.26-2.14-4.75-4.64-9.02-9.76-12.78-15.34-10.87-16.12-16.63-34.96-16.63-54.51,0-8.31,1.04-16.56,3.11-24.52l.06-.23c.54-2.08,1.17-4.22,1.89-6.37,.46-1.37,.95-2.72,1.46-4.04,3.48-8.99,8.26-17.4,14.22-25.01,11.43-14.59,26.67-25.59,44.05-31.79,10.51-3.75,21.55-5.65,32.82-5.65Zm161.7,150.4l-14.95,.75,.93,2.49c1.05,2.83,2.51,8.55,.42,15.15-1.18,3.72-3.13,6.55-4.9,8.52-1.46-6.92-6.27-21.44-21.75-28.84-10.66-5.1-22.91-5.09-33.45-.27,7.07-12.28,11.54-25.99,13-40.27,2.08,3.25,4.52,6.24,7.3,8.93,2.4,2.31,8.76,7.95,16.28,10.44,15.92,5.26,32.06-5.35,38.32-10.2,.33,3.48,.11,8.59-2.69,13.67-2.34,4.27-5.63,6.92-7.97,8.39l-2.26,1.42,11.72,9.82h0Zm-182.59,46.55c6.85,1.44,13.85,2.16,20.89,2.16s14.38-.76,21.37-2.26c-2.44,2.98-4.53,6.22-6.22,9.69-1.46,2.99-4.85,10.79-4.89,18.7-.09,16.77,14.99,28.84,21.55,33.29-3.21,1.39-8.14,2.76-13.83,1.67-4.78-.91-8.32-3.21-10.45-4.99l-2.05-1.7-5.72,14.18-5.33-14-2.08,1.66c-2.37,1.87-7.36,5.02-14.29,5.08-3.9,.05-7.19-.96-9.62-2.03,6.13-3.53,18.46-12.6,20.7-29.6,1.56-11.71-2.23-23.33-10.04-31.87h0Zm-140.95-47.01l11.66-9.4-2.22-1.46c-2.51-1.67-7.05-5.45-9.25-12.02-1.24-3.7-1.32-7.14-1.04-9.78,4.49,4.07,14.27,11.2,27.59,11.19,2.23,0,4.55-.19,6.96-.64,11.61-2.15,21.51-9.33,27.21-19.4,1.51,14.2,5.97,27.84,13.16,40.18-3.6-1.41-7.32-2.39-11.15-2.93-3.29-.47-11.76-1.28-19.3,1.13-15.98,5.1-22.8,23.17-25.01,30.78-2.31-2.62-5.14-6.89-5.86-12.63-.61-4.83,.48-8.9,1.51-11.47l1-2.48-15.26-1.06h0Zm62.05-190.08l12.54,8.18,.71-2.56c.81-2.9,3-8.39,8.58-12.51,3.13-2.32,6.37-3.46,8.97-4.02-2.9,6.45-7.53,21.04,.65,36.12,5.62,10.38,15.5,17.56,26.84,19.88-12.99,5.81-24.6,14.31-34.13,24.96,.23-3.86,.02-7.72-.65-11.54-.58-3.27-2.42-11.58-7.04-18-9.79-13.62-29.1-14.52-37-14.28,1.77-3.01,4.96-7.01,10.2-9.48,4.41-2.07,8.62-2.29,11.38-2.1l2.66,.17-3.71-14.83h0Zm66.12-63.2c.11-.16,.22-.32,.33-.48,.27-.4,.54-.79,.83-1.18,.47-.68,.94-1.35,1.42-2.01,.18-.25,.35-.5,.53-.74,.12-.17,.25-.33,.37-.51h0c.93-1.31,1.9-2.6,2.87-3.88,7.65-10.09,16.17-19.62,25.37-28.38V181.95c-1.26,.02-2.51,.06-3.76,.14-5.19-1.39-10.01-3.64-14.31-6.7-7.42-5.27-11.16-11.43-13.17-14.75-1.91-3.14-4.06-6.69-5.04-11.84-.54-2.91-.39-4.53-.16-6.76,.16-1.6,.34-3.4,.3-6.01-.06-4.22-.19-13.01-5.36-21.68-1.62-2.72-3.48-4.98-5.32-6.83,4.5-8.65,9.54-17.02,15.08-25.03h0Zm-5.36,.95c-2.4,3.59-4.69,7.25-6.89,10.97-.06,.16-.11,.31-.19,.46-.59,1.18-1.27,2.3-1.95,3.42-.61,.99-1.26,1.95-1.8,2.98-.49,.93-.95,1.91-1.77,2.6-.37,.31-.79,.3-1.13,.13v.02s-.09-.06-.12-.09l-.07-.05c-1.8-1.36-3.3-2.28-4.16-2.78-2.74-1.64-4.97-2.48-8.67-3.87l-1.19-.44c-2.37-.9-5.13-1.94-8.34-2.89h0c-.11-.02-.23-.05-.33-.07,11.91-4.55,24.18-8.03,36.62-10.38h0Zm-113.28,70.33c.04-1.93,.09-4.11,.29-6.58,.16-2.02,.44-4.26,.91-6.71,0,0,0,0,0-.02,.09-.44,.17-.9,.27-1.35,.21-.95,.44-2.03,.72-3.21,.31-1.27,.69-2.65,1.18-4.13,.83-2.55,2-5.39,3.68-8.36,3.39-6.01,7.29-9.81,10.42-12.87,2.12-2.06,4.51-4.4,8.06-6.79,.63-.42,1.26-.83,1.88-1.2,1.17-.7,2.32-1.33,3.46-1.88,6.27-3.11,11.96-4.16,15.04-4.74,5.53-1.03,11.5-1.3,17.23-.79,.16,.02,.3,.03,.46,.05,.16,0,.3,.03,.45,.05,1.82,.04,3.56,.3,5.21,.78,.12,.02,.23,.06,.34,.09v-.04c.31,.05,.61,.12,.93,.19,.02,0,.05,0,.08,.02,5.43,1.14,9.84,2.81,13.35,4.13l1.2,.44c3.6,1.35,5.6,2.1,8.03,3.56,1.13,.68,3.21,1.93,5.54,3.92,.96,.82,1.95,1.75,2.94,2.83,1.34,1.46,2.66,3.17,3.85,5.16,4.63,7.78,4.75,15.86,4.8,19.74,.03,2.39-.14,4.08-.29,5.57-.23,2.37-.44,4.41,.22,7.87,1.11,5.85,3.56,9.89,5.53,13.13,2.16,3.56,6.17,10.17,14.24,15.91,2.41,1.7,4.95,3.18,7.62,4.42-6.51,.93-12.9,2.51-19.11,4.7q-4.14,1.46-.02,0c6.2-2.2,0,0-.02,0,0,0-.01,0-.02,0-13.04-.11-24.93-7.23-31.11-18.64-9.68-17.86,.91-35.49,1.01-35.67l1.95-3.17-3.71,.21c-3.71,.21-9.25,1.29-14.6,5.25-5.15,3.8-7.81,8.59-9.18,12.11l-16.51-10.78,4.85,19.4c-3.71,.11-7.36,.97-10.66,2.51-8.51,3.99-12.35,11.41-13.61,14.42l-1.28,3.06,3.29-.37c1.06-.12,25.97-2.74,36.89,12.45,4.27,5.93,5.95,14.06,6.36,16.41,.96,5.39,.92,10.89-.09,16.35q-.67,3.64,0,.02c-3.97,5.11-7.43,10.58-10.34,16.33-.08-.94-.19-1.88-.33-2.82-.32-2.09-1.19-6.31-3.4-11.17-2.58-5.68-5.74-9.42-7.63-11.65-1.96-2.31-3.99-4.71-7.32-7.1-2.48-1.77-5.57-3.37-8.69-4.51-2.44-.89-3.92-1.14-5.34-1.38-1.22-.2-2.5-.41-4.58-1.08-2.15-.68-5.39-1.73-8.73-4.02-4.15-2.85-6.41-6.21-8.22-8.92-2.58-3.85-4.64-8.36-5.94-13.05-1.78-6.44-1.68-11.59-1.55-18.12h0Zm-22.32,23.87c5.47-9.01,11.66-17.62,18.46-25.68-.02,.6-.03,1.18-.04,1.73-.14,6.84-.25,12.25,1.7,19.24,.47,1.72,1.04,3.42,1.7,5.08-8.49,1.27-16.91,3.07-25.19,5.38,1.05-1.87,2.17-3.78,3.36-5.74h0Zm-17.46,14.34c2.07-.76,4.16-1.47,6.26-2.16,1.74-.57,3.48-1.11,5.23-1.63,9.64-2.88,19.48-5.05,29.43-6.5,.93,1.9,1.97,3.71,3.11,5.41,1.89,2.83,4.48,6.69,9.24,9.96,3.81,2.62,7.53,3.81,9.75,4.51,2.35,.76,3.82,1,5.12,1.22,1.37,.23,2.55,.42,4.65,1.19,3.78,1.37,6.48,3.11,7.75,4.02,2.94,2.1,4.73,4.21,6.62,6.44,1.88,2.21,4.7,5.56,7.06,10.75,2.02,4.44,2.8,8.27,3.1,10.15,.61,3.88,.59,7.83-.04,11.72h0c-.27,.72-.54,1.46-.81,2.2l-97.89-31.03-3.71-1.18-28.81-9.13c10.79-6.33,22.19-11.68,33.94-15.94h0Zm-15.84,52.62c-.67-.97-1.33-1.93-1.98-2.9-.78-1.14-1.54-2.3-2.3-3.46-5.51-8.52-10.5-17.41-14.88-26.57l28.66,9.08,3.71,1.18,97.85,31.03c-.49,1.57-.93,3.13-1.33,4.65h0c-1.81,2.79-3.89,5.32-6.21,7.6-.71,.69-1.44,1.36-2.19,2.01-.76,.65-1.55,1.28-2.35,1.88-7.29,5.4-14.33,7.08-18.11,7.97-3.58,.83-7.64,1.78-12.81,1.12-2.93-.37-4.41-1.03-6.47-1.92-1.46-.65-3.13-1.38-5.63-2.15-3.71-1.15-12.41-3.85-22.27-1.62-2.77,.63-5.51,1.62-8.15,2.95-6.97-7.1-13.49-14.63-19.5-22.53-1.11-1.44-2.19-2.9-3.25-4.37-.96-1.31-1.89-2.62-2.81-3.95h0Zm22.06,32.85c-2.54,1.63-4.34,3.2-5.2,3.95-2.4,2.09-3.87,3.94-6.32,7.01l-.83,1.04c-1.57,1.96-3.51,4.4-5.5,7.32-.28-4.42-.43-8.88-.43-13.33,0-8.4,.51-16.82,1.53-25.11,5.24,6.66,10.83,13.05,16.74,19.12h0Zm8.66,108.19c-.28-.12-.55-.24-.83-.37-1.94-.86-3.85-1.84-5.83-2.98-3.31-1.92-8.31-4.82-13.21-10.16-4.65-5.08-7.06-9.95-9.02-13.92-1.31-2.64-2.78-5.64-3.95-9.73-2.32-8.1-1.9-15.26-1.4-19.68,.09-.8,.19-1.52,.26-2.13,.08-.58,.16-1.16,.26-1.74,.81-5.03,2.29-10.14,4.32-14.88,.93-2.17,1.98-4.28,3.12-6.29,2.83-5,6-8.98,8.31-11.89l.83-1.04c1.94-2.43,3.18-3.97,4.71-5.46,.35-.34,.72-.68,1.12-1.03,.07-.06,.14-.12,.22-.19,.23-.2,.51-.44,.83-.7,.21-.17,.44-.36,.68-.55,.97-.78,2.22-1.69,3.72-2.62,.4-.24,.82-.49,1.25-.73,.77-.43,1.56-.83,2.35-1.18,1.99-.92,4.03-1.61,6.09-2.08,8.84-2.01,16.56,.39,20.26,1.54,2.29,.7,3.85,1.39,5.22,1.99,2.16,.95,4.04,1.77,7.53,2.22,5.88,.75,10.49-.33,14.21-1.2,4.05-.96,11.6-2.75,19.53-8.62,.89-.66,1.74-1.35,2.58-2.06,.54-.47,1.07-.94,1.6-1.43,.29-.26,.57-.54,.84-.8,.5-.5,.99-1,1.47-1.52,.02-.02,.04-.04,.06-.06-.05,.27-.09,.54-.13,.81-.02,.16-.05,.3-.07,.46-.06,.39-.12,.79-.18,1.18-.17,1.19-.33,2.38-.45,3.57-.04,.36-.08,.72-.11,1.07-.02,.2-.04,.4-.05,.59-.05,.42-.08,.83-.11,1.25-.05,.57-.09,1.14-.12,1.7-.04,.65-.08,1.3-.1,1.95,0,.19-.02,.38-.02,.57-.02,.39-.03,.78-.03,1.17-.02,.33-.02,.66-.03,.99,0,.59-.02,1.18-.02,1.77,0,.83,0,1.65,.03,2.48-4.11,12.41-14.59,21.57-27.38,23.93-19.97,3.68-33.48-11.83-33.62-11.99l-2.41-2.83-.94,3.6c-.95,3.59-1.63,9.19,.48,15.51,2.02,6.07,5.76,10.1,8.68,12.48l-15.35,12.37,19.96,1.39c-1.05,3.56-1.36,7.29-.9,10.91,1.17,9.32,7.03,15.27,9.5,17.4l2.51,2.16,.66-3.25c.22-1.04,5.42-25.54,23.24-31.23,6.97-2.22,15.21-1.31,17.58-.98,5.43,.76,10.66,2.5,15.54,5.16,.86,1.26,1.74,2.5,2.65,3.71,.55,.75,1.12,1.48,1.7,2.2,1.07,1.36,2.18,2.69,3.32,3.99,1.49,1.7,3.04,3.35,4.66,4.96-.92-.21-1.84-.4-2.78-.54-2.07-.33-6.33-.82-11.68-.21-6.2,.69-10.73,2.55-13.43,3.65-2.8,1.14-5.7,2.32-9.02,4.77-2.5,1.86-4.91,4.23-6.97,6.87-1.6,2.05-2.3,3.38-2.96,4.65-.58,1.11-1.18,2.24-2.45,4.02-1.32,1.84-3.32,4.61-6.52,7.06-3.98,3.05-7.88,4.16-11.03,5.06-2.17,.62-4.5,1.07-6.93,1.35-2.41,.28-4.86,.37-7.3,.26-6.68-.29-11.54-1.98-17.72-4.12-2.13-.75-4.34-1.52-6.82-2.59h0Zm29.64,10.98c-.17,1.04-.33,2.09-.49,3.14-.12,.82-.24,1.63-.35,2.46-.08,.54-.15,1.08-.22,1.62-.09,.68-.17,1.36-.25,2.04-.14,1.15-.26,2.3-.38,3.45-.06,.61-.12,1.22-.18,1.84-.09,.88-.16,1.76-.23,2.65-.07,.78-.12,1.56-.18,2.34-.05,.68-.09,1.37-.13,2.05-.04,.68-.08,1.38-.12,2.06l-.07,1.47c-6.94-7.53-13.34-15.61-19.08-24.1-1.4-2.07-2.77-4.19-4.1-6.32,.58,.21,1.15,.4,1.7,.6,6.45,2.24,11.56,4.01,18.8,4.33,.72,.03,1.45,.05,2.18,.05,.48,0,.97,0,1.44-.02,.4,0,.81-.02,1.21-.05,.09,0,.19,0,.29-.02,.04,0,.08,0,.12,0h.11c-.02,.15-.05,.29-.07,.44h0Zm5.58,77.01c-.16-.77-.33-1.55-.47-2.33-2.2-11.01-3.5-22.25-3.88-33.45-.06-1.6-.09-3.18-.11-4.74,0-.3,0-.59,0-.89-.02-1.42,0-2.85,0-4.33,.02-.46,.02-.93,.03-1.39,.02-1.28,.07-2.58,.12-3.86,.07-1.83,.17-3.67,.3-5.5,.05-.74,.1-1.48,.16-2.22,.05-.64,.1-1.28,.16-1.91s.12-1.28,.18-1.91c.05-.64,.12-1.28,.19-1.93,.06-.65,.13-1.29,.21-1.94,.06-.54,.12-1.09,.19-1.63,.11-.86,.22-1.72,.33-2.58,.03-.23,.06-.47,.09-.71,.13-.92,.26-1.83,.4-2.75,.09-.64,.19-1.27,.3-1.91,.1-.63,.21-1.27,.32-1.9,2.12-.3,4.16-.73,6.09-1.29,3.46-.98,7.76-2.2,12.33-5.71,3.65-2.79,5.94-5.97,7.31-7.87,1.44-2.01,2.13-3.33,2.74-4.5,.64-1.23,1.19-2.29,2.58-4.06,1.84-2.37,4-4.49,6.21-6.14,2.93-2.16,5.48-3.19,8.18-4.3,2.68-1.1,6.73-2.76,12.4-3.39,5.07-.57,9.11-.05,10.62,.19,3.91,.63,7.67,1.87,11.19,3.7,.06,.05,.12,.1,.19,.15,.02,.02,.02,.02,.04,.03,.09,.08,.17,.14,.26,.21,.44,.34,.86,.68,1.3,1.01l-75.54,105.54-4.09,5.72c-.11-.47-.21-.94-.31-1.42h0Zm49.77-7.36c-2.94,1.02-5.96,2-8.97,2.91-12.16,3.67-24.67,6.37-37.26,8.05l3.35-4.69,4.16-5.81,72.03-100.61c1.11,.79,2.23,1.56,3.36,2.29,.16,.12,.33,.23,.49,.33,.02,.02,.04,.03,.06,.04,.02,.02,.04,.03,.06,.04,0,0,.02,0,.02,.02,.21,.26,.42,.52,.62,.79,.19,.25,.39,.5,.57,.75,.97,1.31,1.87,2.65,2.68,4.05,.17,.29,.34,.58,.5,.87,.16,.29,.33,.58,.48,.89,.16,.3,.31,.59,.45,.89,.3,.6,.59,1.21,.86,1.82,.27,.61,.53,1.23,.76,1.85,.24,.61,.47,1.25,.68,1.88,2.91,8.63,2.3,15.82,1.98,19.67-.31,3.66-.65,7.81-2.89,12.54-1.27,2.68-2.34,3.88-3.84,5.56-1.07,1.19-2.27,2.55-3.78,4.69-2.43,3.45-7.49,10.63-8.41,20.67-.09,1.05-.14,2.1-.14,3.16,0,.43,0,.86,.02,1.29,0,.38,.03,.76,.06,1.14,.02,.25,.04,.51,.06,.76,.02,.23,.04,.46,.07,.69,.04,.47,.1,.93,.17,1.4,0,.08,.02,.15,.03,.23-.17,.09-.34,.17-.51,.25-.79,.39-1.56,.77-2.35,1.14-.51,.24-1.01,.48-1.52,.72-.71,.34-1.43,.68-2.15,1-1.63,.75-3.27,1.48-4.92,2.19-.84,.37-1.67,.72-2.51,1.07-.26,.11-.51,.22-.76,.32-.25,.11-.51,.21-.76,.31-1.44,.59-2.88,1.17-4.33,1.73-.93,.37-1.87,.72-2.8,1.07-1.88,.7-3.77,1.38-5.65,2.03h0Zm5.67,2.11s.1-.04,.16-.06c2.12-.78,4.25-1.6,6.36-2.44,.8-.32,1.6-.65,2.41-.98,1.84-.76,3.67-1.53,5.48-2.34,.22-.09,.44-.19,.65-.29,.02,0,.05-.02,.07-.03,.44-.19,.86-.38,1.29-.58,.14-.06,.28-.12,.42-.19,.78-.35,1.56-.71,2.34-1.07,1.42-.66,2.83-1.34,4.23-2.04,.76,2.86,1.67,5.01,2.16,6.17,1.24,2.92,2.54,4.9,4.69,8.17l.74,1.13c1.37,2.08,3.11,4.72,5.29,7.53-12.47-3.15-24.64-7.5-36.29-12.96h0Zm133.55,9.47c-.68,.9-1.39,1.82-2.16,2.79l-.2,.26s-.05,.06-.08,.09c-.51,.63-1.08,1.34-1.72,2.07-.13,.16-.28,.32-.42,.48-1.36,1.56-2.77,3-4.28,4.42h0c-.31,.3-.63,.58-.95,.87-2.84,2.55-7.14,6.41-13.75,9.42-6.3,2.88-11.68,3.65-16,4.28h-.09c-2.26,.33-4.58,.68-7.43,.76-.97,.03-1.97,.03-2.98,0-9.97-.36-17.48-3.94-21.09-5.66-5.08-2.41-10.06-5.69-14.4-9.49-.12-.1-.24-.21-.36-.32-1.62-1.43-3.14-2.92-4.62-4.53l-.42-.47-.3-.34-.35-.39c-2.1-2.41-3.84-4.75-5.32-6.89-.88-1.27-1.67-2.46-2.38-3.55l-.75-1.14c-2.1-3.18-3.25-4.94-4.36-7.54-.49-1.17-1.46-3.43-2.18-6.43-.11-.46-.22-.93-.31-1.42-.08-.42-.16-.83-.22-1.25-.07-.44-.12-.9-.18-1.34,0-.06-.02-.12-.02-.18-.02-.24-.05-.49-.07-.73-.02-.3-.05-.61-.06-.91-.02-.09-.02-.17-.02-.25,0-.18-.02-.36-.02-.53v-.13c0-.3-.02-.59-.02-.89,0-.95,.04-1.88,.12-2.82,.83-9.01,5.48-15.61,7.71-18.8,1.38-1.95,2.51-3.22,3.5-4.34,1.58-1.77,2.94-3.3,4.45-6.48,2.53-5.37,2.93-10.09,3.25-13.88,.33-3.85,1-11.84-2.17-21.24-.22-.65-.45-1.3-.7-1.94-.05-.15-.11-.3-.17-.44-.05-.15-.12-.3-.18-.45-.12-.31-.26-.61-.39-.92-.13-.32-.27-.63-.41-.93-.12-.26-.25-.52-.37-.79-.14-.29-.28-.58-.43-.86-.28-.54-.57-1.1-.86-1.63,0-.02-.02-.04-.03-.06,5.81,3.05,11.86,5.53,18.11,7.39l.23,.22h.15c10.32,7.78,15.66,20.43,13.97,33.2-2.67,20.13-21.6,28.18-21.79,28.26l-3.44,1.42,3.13,2.02c3.12,2.01,8.2,4.39,14.9,4.34,6.4-.05,11.38-2.36,14.55-4.41l7.02,18.42,7.48-18.55c3.07,2.09,6.52,3.54,10.1,4.23,9.22,1.77,16.7-1.97,19.48-3.66l2.83-1.72-2.89-1.63c-.92-.53-22.61-13.04-22.52-31.76,.04-7.31,3.45-14.87,4.5-17.02,2.4-4.91,5.64-9.33,9.67-13.15,6.26-1.81,12.26-4.2,17.98-7.14-.49,.8-.95,1.62-1.38,2.45-1.66,3.26-3.01,7.18-3.81,11.04-1.25,6.11-.89,11-.67,13.91,.22,3.03,.45,6.16,1.75,10.05,.55,1.67,1.85,5.02,4.38,8.76,1.45,2.15,2.49,3.21,3.5,4.24,.87,.89,1.77,1.81,3.07,3.58,1.25,1.7,3.34,4.54,4.7,8.38,1.67,4.72,1.53,8.79,1.4,12.04-.09,2.3-.37,4.66-.85,7.02-.48,2.36-1.16,4.72-2.02,7.03-1.64,4.4-3.66,7.73-6.08,11.12-1.03,1.44-2.13,2.9-3.31,4.45h0Zm2.01,3.78c.37-.49,.73-.97,1.09-1.44,4.13-5.45,7.39-9.75,9.93-16.56,.62-1.67,1.16-3.38,1.6-5.1,7.62,3.95,15.5,7.45,23.55,10.45-11.63,5.36-23.76,9.61-36.17,12.66Zm88.09-4.41c-2.18-.23-4.37-.49-6.54-.79-9.78-1.35-19.46-3.39-28.92-6.12-2.12-.61-4.23-1.25-6.33-1.94h0c-1.74-.55-3.46-1.14-5.18-1.74-9.49-3.34-18.74-7.37-27.64-12.05,.36-2.09,.58-4.17,.66-6.21,.13-3.59,.3-8.06-1.62-13.49-1.56-4.38-3.87-7.51-5.24-9.38-1.46-1.99-2.51-3.06-3.43-4-.97-.99-1.81-1.84-3.06-3.7-2.27-3.35-3.42-6.33-3.92-7.81-1.14-3.42-1.35-6.18-1.56-9.11-.21-2.89-.54-7.25,.61-12.84,.98-4.76,2.59-8.34,3.46-10.04,1.79-3.49,4.12-6.66,6.91-9.44,0,0,.02,0,.02,0,.65-.43,1.31-.86,1.95-1.31l60.93,82.63,2.31,3.13,17.96,24.36c-.45-.04-.9-.09-1.35-.14h0Zm8.44-45.03c-.02,.23-.05,.45-.12,.65,0,1.4-.02,2.8-.05,4.2-.26,12.67-1.56,25.4-3.86,37.9l-17.86-24.22-2.31-3.13-60.92-82.62c1.18-.87,2.34-1.77,3.49-2.71h.1l.27-.27c4.98-1.9,10.16-2.9,15.4-2.95,9.09-.09,15.75,2.7,19.33,4.2,3.38,1.42,7.21,3.03,11.03,6.62,2.16,2.03,2.97,3.43,4.1,5.37,.81,1.38,1.73,2.94,3.29,5.04,2.53,3.38,7.79,10.41,17.07,14.39,2.9,1.25,5.74,1.98,8.32,2.4,1.46,9.82,2.3,19.74,2.53,29.66,.02,.89,.04,1.78,.05,2.67l-.02,.02c.02,.12,.05,.25,.05,.37,0,.8,.14,1.6,.1,2.41h0Zm3.6-9.4c-.32-8.46-1.09-16.91-2.3-25.29,.83,.05,1.6,.07,2.32,.07,1.88,0,3.34-.13,4.21-.21,3.18-.28,5.47-.91,9.28-1.96l1.23-.34c2.52-.7,5.49-1.51,8.78-2.69-6.86,10.84-14.73,21.03-23.52,30.42Zm57.16-112.48h0c.18,.4,.37,.8,.54,1.21,1.35,3.05,3.31,7.47,4.33,13.33,.15,.85,.28,1.73,.38,2.64,.05,.42,.09,.83,.12,1.24,.56,6.27-.3,11.26-.99,15.3-.5,2.91-1.07,6.21-2.53,10.22-3.41,9.36-9.14,15.4-11.89,18.31-3.87,4.09-8.53,7.81-13.48,10.77-.13,.08-.27,.16-.4,.24h0c-2.18,1.28-4.3,2.35-6.33,3.25-5.05,2.24-9.58,3.49-13.19,4.48l-1.24,.34c-3.71,1.03-5.76,1.59-8.59,1.84-1.21,.11-3.67,.33-6.8,.07-1.25-.1-2.62-.28-4.04-.57-1.95-.39-4.03-1-6.14-1.9-8.32-3.56-13.16-10.03-15.49-13.15-1.43-1.91-2.29-3.38-3.04-4.67-1.2-2.05-2.23-3.82-4.79-6.23-4.34-4.08-8.69-5.91-12.2-7.38-3.83-1.6-11.01-4.61-20.87-4.5-2.95,.03-5.88,.33-8.77,.9,4.72-4.61,8.94-9.63,12.65-14.99h0c10.62-7.64,24.48-8.89,36.22-3.28,18.32,8.76,20.13,29.25,20.14,29.45l.29,3.71,2.89-2.36c2.87-2.34,6.72-6.48,8.73-12.83,1.92-6.1,1.27-11.55,.3-15.19l19.69-.99-15.33-12.85c2.94-2.27,5.39-5.1,7.15-8.3,4.53-8.23,3.28-16.49,2.54-19.65l-.76-3.23-2.45,2.24c-.78,.72-19.39,17.47-37.15,11.61-6.95-2.3-13.08-7.88-14.8-9.54-3.95-3.81-7.15-8.27-9.54-13.29h0c.03-1.11,.05-2.15,.05-3.16,0-5.43-.43-10.83-1.28-16.14,.61,.72,1.26,1.41,1.93,2.09,1.49,1.49,4.67,4.4,9.31,7.04,5.43,3.08,10.18,4.24,13.02,4.93,2.95,.72,6,1.47,10.1,1.44,1.77-.02,5.37-.23,9.68-1.46,2.5-.72,3.83-1.38,5.12-2.02,1.12-.55,2.27-1.12,4.35-1.81,2.14-.71,5.38-1.77,9.43-1.88,5.02-.12,8.83,1.27,11.89,2.39,4.36,1.6,8.67,4.04,12.47,7.06,5.23,4.16,8.18,8.39,11.91,13.75,1.11,1.6,2.35,3.39,3.64,5.51h0c1.07,1.76,2.16,3.74,3.23,6.02h0Zm-20.73-31.42c6.11-6.01,11.86-12.41,17.19-19.12,.91,7.82,1.37,15.75,1.37,23.65,0,4.84-.17,9.73-.52,14.59-.34-.5-.68-.98-1-1.44-3.91-5.61-7-10.05-12.68-14.56-1.4-1.11-2.86-2.15-4.37-3.11h0Zm27.52-40.47c-.72,1.17-1.47,2.33-2.23,3.48-.56,.87-1.14,1.74-1.72,2.6-1.24,1.83-2.5,3.64-3.8,5.43-1.07,1.48-2.16,2.95-3.28,4.4h0c-6.09,7.99-12.79,15.54-19.98,22.55-1.87-.99-3.78-1.84-5.7-2.55-3.2-1.18-7.57-2.78-13.33-2.63-4.62,.12-8.33,1.35-10.55,2.08-2.34,.78-3.68,1.44-4.86,2.03-1.25,.61-2.31,1.14-4.47,1.77-3.86,1.11-7.07,1.29-8.64,1.31-3.6,.05-6.3-.63-9.14-1.32-2.81-.69-7.07-1.74-12.03-4.55-4.23-2.41-7.13-5.04-8.48-6.4-2.76-2.78-5.07-5.98-6.85-9.49,0-.02-.02-.03-.02-.05-.18-.74-.4-1.49-.61-2.23l97.44-32.43,3.7-1.23,28.68-9.54c-4.06,9.25-8.8,18.21-14.15,26.77h0Z"/>
        </g>
      </g>
    </g>
  </g>
</svg>