<?xml version="1.0" encoding="UTF-8"?>
<svg id="Layer_2" data-name="Layer 2" xmlns="http://www.w3.org/2000/svg" viewBox="0 0 400 400">
  <defs>
    <style>
      .cls-1 {
        fill: #eff5ef;
      }
    </style>
  </defs>
  <g id="Layer_1-2" data-name="Layer 1">
    <g id="Layer_1-2" data-name="Layer 1-2">
      <g>
        <path class="cls-1" d="M200.01,149.11c-33.26,0-60.31,26.91-60.31,59.99s27.06,59.99,60.31,59.99,60.31-26.91,60.31-59.99-27.06-59.99-60.31-59.99Zm0,116.66c-31.42,0-56.98-25.42-56.98-56.67s25.56-56.67,56.98-56.67,56.98,25.42,56.98,56.67-25.56,56.67-56.98,56.67Z"/>
        <path class="cls-1" d="M200.01,131.61c-42.96,0-77.91,34.76-77.91,77.49s34.95,77.49,77.91,77.49,77.91-34.76,77.91-77.49-34.95-77.49-77.91-77.49h0Zm0,151.65c-41.12,0-74.57-33.27-74.57-74.17s33.45-74.17,74.57-74.17,74.57,33.27,74.57,74.17-33.45,74.17-74.57,74.17Z"/>
        <path class="cls-1" d="M398.71,143.71c-10.75-6.04-22.11-11.16-33.76-15.19-2.37-.82-4.77-1.6-7.17-2.34-2.36-4.44-4.95-8.83-7.7-13.1h.01c-.71-.87-1.32-1.81-1.82-2.83-.01,.01-.03,.03-.05,.04-4.27-6.33-8.97-12.41-14-18.1-.23-1.83-.55-3.75-1.01-5.78-.37-1.63-.83-3.25-1.35-4.87,.03-.03,.06-.04,.09-.07-.52-1.02-.93-2.12-1.19-3.26-.02,.01-.05,.03-.07,.05-.87-2.24-1.89-4.42-3.01-6.47-1.75-3.2-5.39-9.85-12.66-15.51-1.54-1.19-2.96-2.14-4.3-2.93,.07-.03,.13-.05,.21-.08-1.6-.46-3.04-1.2-4.32-2.18-3.3-1.73-7.78-4.02-13.91-5.26-6.58-1.33-11.82-.79-15.28-.43-.55,.05-1.09,.12-1.62,.19-.53,.19-1.07,.32-1.63,.37-.44,.14-.91,.23-1.42,.29-.13,.05-.25,.11-.39,.15-.03,0-.05,.02-.07,.02-.33,.08-.67,.13-1.01,.17-12.68-5.38-25.8-9.29-39.19-11.7-.09-.14-.19-.28-.29-.42-1.76-2.5-3.57-4.95-5.45-7.34-7.32-9.34-15.61-17.99-24.65-25.72v-.17c-.67-.39-1.33-.8-1.98-1.23-.45,.5-.89,.98-1.36,1.44-.47,.47-.97,.92-1.47,1.37-8.33,7.8-16.04,16.32-22.96,25.36-1.52,1.99-3,4.01-4.45,6.06-.1,.14-.2,.28-.3,.42-13.59,2.31-26.98,6.14-39.83,11.43-.58-.13-1.15-.27-1.74-.41-.64-.03-1.26-.14-1.84-.31v.03c-.62-.08-1.26-.15-1.9-.21-5.22-.46-10.65-.22-15.69,.72-2.86,.52-8.19,1.52-14.11,4.5-1.08,.84-2.29,1.53-3.57,2.01-.35,.22-.7,.44-1.05,.68-3.28,2.2-5.45,4.3-7.37,6.16-2.69,2.61-6.37,6.18-9.52,11.72-1.02,1.8-1.82,3.53-2.48,5.17-.14,1.81-.74,3.53-1.68,5.06-.42,1.54-.73,2.92-.98,4.1-.49,2.27-.79,4.33-.98,6.2-6.26,7.02-12,14.59-17.09,22.56-.54,1.41-1.37,2.72-2.39,3.84-1.48,2.47-2.84,4.83-4.11,7.18-2.92,.9-5.82,1.86-8.69,2.89-11.44,4.13-22.5,9.44-32.87,15.77l-1.26,.77,.61,1.33c4.04,8.8,8.72,17.34,13.96,25.5h-.03c.77,.9,1.42,1.89,1.94,2.97h.03c.79,1.19,1.61,2.38,2.43,3.56,1.44,2.06,2.92,4.1,4.43,6.1-1.1,7.72-1.7,15.6-1.78,23.47h-.02c.05,.37,.09,.74,.11,1.13v.26c.03,.23,.05,.46,.06,.69,.03,.72-.01,1.44-.12,2.13,.06,4.56,.29,9.13,.7,13.61-.94,1.67-1.81,3.43-2.58,5.23-1.79,4.16-3.1,8.63-3.85,13.05,0,.09,.02,.18,.02,.27,.07,1.43-.16,2.81-.62,4.1-.43,4.04-.71,10.36,1.37,17.59,1.08,3.78,2.42,6.47,3.62,8.9,1.66,3.34,3.93,7.91,8.25,12.6,4.55,4.93,9.1,7.55,12.11,9.3,1.9,1.08,3.73,2.01,5.57,2.82,1.58,2.66,3.24,5.31,4.96,7.88-.03,.01-.05,.03-.08,.05,.7,.86,1.29,1.81,1.76,2.83,.06-.04,.13-.09,.19-.13,5.4,7.8,11.46,15.19,18.04,22.02-.02,1.21-.03,2.37-.03,3.51-.06,.05-.13,.1-.19,.16,.21,.86,.33,1.74,.38,2.64,.03,.7-.01,1.37-.11,2.05,.01,.27,.02,.54,.03,.81,.34,9.97,1.53,19.97,3.54,29.77-.06,.03-.12,.05-.18,.08,.39,1.04,.67,2.14,.81,3.27,.03-.01,.05-.03,.08-.03,.23,.99,.45,1.95,.67,2.88l.35,1.43,1.46-.17c12.26-1.39,24.48-3.9,36.3-7.44,2.4-.72,4.82-1.49,7.17-2.3,10.05,4.92,20.58,8.87,31.4,11.82,1.86,.17,3.61,.64,5.23,1.34,.45,.11,.9,.23,1.36,.34l-.53,.05c.32,.16,.63,.33,.93,.5,2.04,.99,3.84,2.36,5.34,4.02,.04,.03,.08,.07,.12,.1,.61,.47,1.21,.96,1.8,1.47,3.38,2.66,7.1,4.97,10.86,6.75,3.3,1.56,10.16,4.81,19.41,5.15,.35,.01,.71,.02,1.06,.02,.61-.07,1.24-.09,1.84-.05,.5-.05,1-.07,1.51-.07,.07,0,.13,0,.2,0,1.83-.14,3.45-.37,4.91-.58h.09c3.71-.54,8.79-1.27,14.63-3.93,6.13-2.78,10.04-6.27,12.63-8.58,.11-.1,.21-.19,.31-.29,.51-.53,1.04-1.04,1.61-1.51,.2-.2,.41-.4,.61-.6l-.03,.13c1.22-.95,2.56-1.76,3.98-2.38l.05-.21c.1-.03,.21-.05,.31-.07v.13c1.34-.56,2.76-.97,4.21-1.18,11.11-2.88,21.94-6.84,32.28-11.8l.31,.13,.06-.06c2.79,.95,5.6,1.83,8.42,2.64,9.7,2.78,19.68,4.74,29.73,5.86,.61-.1,1.24-.15,1.87-.15,1.52,0,2.94,.28,4.26,.76,0,0-.01-.01-.02-.01,.02,0,.05,0,.07,0l1.48,.12,.29-1.44c2.46-12.04,3.83-24.37,4.09-36.63,0-.29,.01-.59,.01-.88,0,0,.01,0,.02,.01-.07-.6-.07-1.21-.02-1.81-.07-.64-.05-1.28,.01-1.92,.02-.4,.07-.8,.13-1.19-.04-.05-.08-.09-.12-.13h0c0-.55-.01-1.09-.02-1.63,.49-.51,.97-1.03,1.46-1.54,.47-.68,1.03-1.3,1.72-1.81,7.25-7.83,13.8-16.3,19.51-25.26,.17-.3,.37-.58,.58-.86,.38-1.07,.96-2.06,1.76-2.89,.08-.14,.16-.27,.24-.41,.15-.07,.3-.15,.45-.22,.74-.59,1.62-1.06,2.64-1.34,.68-.37,1.38-.75,2.07-1.16,4.5-2.68,8.75-6.05,12.27-9.75,2.52-2.64,7.75-8.13,10.91-16.77,1.36-3.7,1.87-6.67,2.32-9.3,.61-3.55,1.44-8.35,.84-14.36l.09-.02c-.14-.51-.23-1.04-.27-1.56-.1-.57-.17-1.15-.21-1.73h-.06c-.94-5.29-2.7-9.23-3.92-11.97-.94-2.12-1.9-3.95-2.86-5.57,.49-5.1,.77-10.27,.81-15.4h.01c-.04-.33-.07-.65-.09-.98-.01-.34,0-.68,.01-1.01,0-.04,0-.08-.01-.11-.03-.62,0-1.22,.07-1.82-.09-7.24-.62-14.51-1.59-21.65,1.84-2.43,3.62-4.91,5.33-7.43,.57-.84,1.13-1.7,1.7-2.56,.57-1.35,1.38-2.61,2.37-3.71,5.08-8.19,9.52-16.81,13.21-25.7l.57-1.36-1.29-.72h0Zm-65.11-29c.61-2.66,.71-4.69,.85-8.05l.05-1.09c.1-2.22,.23-4.82,.14-7.78,3.9,4.65,7.57,9.53,10.95,14.57-.08,.06-.16,.12-.23,.17l1.96,2.68s.07-.05,.11-.08c2.05,3.18,4,6.43,5.83,9.71-7-1.98-14.11-3.58-21.28-4.81,.93-2.39,1.39-4.34,1.62-5.34h0Zm21.88,14.24h0c1.49,.44,2.98,.91,4.45,1.39,1.31,.42,2.62,.86,3.92,1.31,10.27,3.56,20.31,7.97,29.9,13.13l-24.47,8.1-3.17,1.05-83.54,27.65c-.43-1.27-.9-2.57-1.41-3.86v-.04c-.25-4.55,.31-9.02,1.66-13.29,2.34-7.41,6.38-12.07,8.54-14.57,2.05-2.37,4.37-5.05,8.32-7.2,2.23-1.22,3.58-1.51,5.47-1.92,1.34-.29,2.86-.62,4.97-1.33,3.43-1.16,10.57-3.59,16.27-10.06,1.79-2.03,3.14-4.14,4.17-6.12,8.42,1.4,16.74,3.33,24.91,5.77h0Zm-79.44-80.05h.04c.19-.03,.39-.06,.59-.08,.35-.04,.72-.08,1.09-.12,3.26-.34,8.19-.84,14.28,.39,4.39,.89,7.83,2.34,10.68,3.75,.91,.45,1.77,.9,2.58,1.32,.45,.23,.91,.48,1.39,.73,1.89,1.01,3.98,2.22,6.28,4.01,6.72,5.24,10.14,11.48,11.78,14.48,1.21,2.2,2.28,4.56,3.18,6.99,.41,1.1,.79,2.22,1.12,3.35,.34,1.14,.65,2.28,.91,3.43,.03,.15,.07,.31,.1,.46,.47,2.1,.77,4.1,.97,5.98,.49,4.67,.3,8.66,.15,11.83l-.05,1.09c-.15,3.29-.23,5.09-.77,7.46-.25,1.1-.72,3.12-1.74,5.53-.41,.99-.91,2.04-1.52,3.12-.84,1.47-1.88,3-3.2,4.49-5.11,5.8-11.68,8.03-14.83,9.1-1.94,.66-3.36,.97-4.61,1.24-1.99,.43-3.7,.8-6.36,2.24-4.47,2.44-7.12,5.5-9.25,7.95-2.33,2.69-6.66,7.68-9.2,15.75-.75,2.39-1.28,4.83-1.58,7.32-2.51-5.05-5.5-9.81-8.91-14.24q-2.27-2.95,0-.01c-3.38-10.61-.72-22.15,6.96-30.18,12-12.55,29.19-8.62,29.36-8.58l3.1,.74-1.15-2.96c-1.15-2.95-3.5-7.16-8.15-10.46-4.47-3.17-9.09-4.08-12.32-4.26l4.41-16.23-14.54,9.05c-1.07-2.98-2.74-5.71-4.88-7.99-1.25-1.33-2.58-2.4-3.92-3.29-.63-.33-1.24-.68-1.81-1.08-3.96-2.12-7.76-2.71-9.63-2.86l-2.84-.23,1.17,2.58c.38,.82,9.12,20.34-.38,33.2-3.71,5.03-9.89,8.54-11.7,9.5-4.14,2.18-8.62,3.61-13.34,4.22h0c-5.23-1.88-10.61-3.24-16.09-4.08,.75-.31,1.49-.65,2.21-1.02,1.62-.81,4.83-2.64,8.2-5.7,3.95-3.59,6.16-7.14,7.48-9.26,1.37-2.2,2.78-4.48,3.85-7.82,.46-1.43,1.24-4.42,1.38-8.24,.08-2.21-.11-3.47-.29-4.69-.15-1.05-.32-2.14-.33-4.01,0-1.93-.02-4.83,.96-8.14,1.22-4.11,3.37-6.83,5.1-9.02,2.46-3.11,5.59-5.96,9.07-8.25,4.78-3.15,9.01-4.42,14.37-6.04,1.3-.4,2.74-.82,4.35-1.24,2-.79,4.13-1.23,6.28-1.23h0Zm-11.46,102.11c-8.13-8.94-18.12-16.18-29.37-21.12,3.2-.82,6.28-2.02,9.2-3.57,2.52-1.33,8.81-5.01,12.82-10.46,8.51-11.53,4.14-27.42,1.84-33.78,2.93,.64,7.04,2.17,10.44,5.78,2.86,3.03,4.15,6.39,4.73,8.68l.56,2.21,11.12-6.92-3.35,12.33,2.28-.1c2.58-.11,7.64,.22,12.48,3.66,2.72,1.93,4.51,4.26,5.65,6.22-6.03-.64-19.16-.55-29.29,10.05-6.98,7.3-10.21,17.2-9.1,27.02h0Zm.99-103.17c-.39,.12-.77,.23-1.13,.35-5.62,1.69-10.05,3.03-15.24,6.44-1.26,.83-2.48,1.73-3.65,2.69l-.06-.28c-.51-.05-.75-.48-.73-.89-.21-.13-.35-.35-.38-.59-.11-.14-.21-.29-.29-.48-.42-.94-.95-1.76-1.44-2.66-.43-.78-.64-1.65-1.11-2.42-.75-1.22-1.92-2.64-2.3-4.08-1.44-2.42-2.94-4.81-4.5-7.16,10.49,2.08,20.8,5.12,30.84,9.08Zm-41.87-18.68c1.17,1.49,2.31,2.99,3.42,4.52,.11,.14,.21,.28,.31,.42,.59,.8,1.16,1.61,1.73,2.42,.23,.32,.45,.64,.67,.96,.1,.14,.19,.28,.29,.42,4.57,6.62,8.69,13.55,12.3,20.72l.29,1.23c-1.21,1.2-2.34,2.44-3.36,3.74-1.8,2.28-4.27,5.41-5.67,10.13-1.13,3.78-1.11,7.11-1.1,9.1,.01,2.1,.2,3.37,.37,4.48,.17,1.17,.32,2.18,.25,4.09-.11,3.43-.81,6.08-1.22,7.35-.93,2.94-2.18,4.95-3.5,7.06-1.31,2.1-3.28,5.28-6.9,8.56-3.08,2.8-6,4.46-7.46,5.19-3.04,1.53-6.3,2.56-9.68,3.07-.63-.03-1.26-.06-1.9-.07l-.63-87.21v-.37l-.02-2.95v-.37l-.19-25.84c8.02,7.1,15.41,14.93,22,23.34h0Zm-23.69,96.68c9.89,0,19.56,1.69,28.75,5.04,22.39,8.15,40.26,25.43,49.07,47.46l.11,.3c.74,1.85,1.4,3.72,1.97,5.54,2.54,8.03,3.82,16.42,3.82,24.93,0,.95-.02,1.93-.05,2.98-.83,23.6-11.78,45.79-30.03,60.96h-.08l-.42,.41c-8.93,7.3-19.08,12.6-30.15,15.75-7.45,2.1-15.18,3.17-22.98,3.17s-15.67-1.09-23.18-3.23l-.19-.19h-.44c-7.38-2.17-14.45-5.37-21.03-9.51l-.06-.04-.16-.11c-.61-.39-1.21-.78-1.81-1.18-1.19-.8-2.36-1.63-3.5-2.49-.46-.35-.92-.7-1.37-1.05-.61-.47-1.2-.95-1.79-1.43-.69-.57-1.36-1.15-2.02-1.73-.34-.3-.67-.6-1-.89-.65-.6-1.3-1.21-1.94-1.83-4.07-3.96-7.74-8.33-10.96-13.09-9.33-13.75-14.26-29.83-14.26-46.5,0-7.09,.89-14.13,2.66-20.92l.05-.2c.46-1.77,1-3.6,1.62-5.43,.39-1.17,.81-2.32,1.26-3.45,2.98-7.67,7.08-14.85,12.2-21.33,9.81-12.45,22.87-21.83,37.78-27.12,9.01-3.2,18.48-4.82,28.14-4.82h0Zm138.68,128.3l-12.82,.64,.79,2.12c.9,2.41,2.15,7.3,.36,12.93-1.01,3.17-2.68,5.58-4.21,7.27-1.25-5.9-5.38-18.29-18.65-24.6-9.15-4.35-19.65-4.34-28.69-.23,6.06-10.47,9.9-22.17,11.15-34.35,1.78,2.78,3.88,5.33,6.26,7.62,2.06,1.97,7.52,6.78,13.97,8.9,13.65,4.49,27.5-4.56,32.86-8.7,.29,2.97,.09,7.33-2.3,11.66-2.01,3.64-4.83,5.9-6.84,7.16l-1.94,1.22,10.05,8.38h0Zm-156.6,39.71c5.87,1.23,11.88,1.85,17.92,1.85s12.33-.64,18.33-1.93c-2.1,2.54-3.89,5.31-5.33,8.27-1.25,2.55-4.16,9.2-4.19,15.96-.07,14.31,12.86,24.6,18.48,28.4-2.75,1.19-6.98,2.36-11.86,1.43-4.1-.78-7.14-2.74-8.96-4.26l-1.76-1.45-4.91,12.1-4.57-11.94-1.78,1.41c-2.03,1.59-6.32,4.28-12.26,4.34-3.34,.04-6.17-.82-8.25-1.73,5.26-3.01,15.83-10.75,17.76-25.25,1.34-9.99-1.91-19.9-8.61-27.18h0Zm-120.88-40.1l10-8.01-1.9-1.25c-2.16-1.43-6.05-4.65-7.93-10.25-1.06-3.15-1.13-6.09-.89-8.35,3.85,3.47,12.24,9.55,23.66,9.55,1.91,0,3.91-.17,5.97-.54,9.96-1.83,18.44-7.96,23.34-16.55,1.3,12.11,5.12,23.75,11.29,34.28-3.08-1.2-6.28-2.04-9.57-2.5-2.82-.4-10.09-1.09-16.55,.96-13.71,4.35-19.55,19.77-21.45,26.25-1.98-2.24-4.41-5.88-5.03-10.78-.52-4.12,.41-7.6,1.3-9.79l.85-2.12-13.08-.9h0ZM114.43,91.6l10.75,6.98,.61-2.18c.69-2.48,2.58-7.16,7.36-10.67,2.68-1.98,5.47-2.95,7.7-3.43-2.48,5.5-6.46,17.95,.55,30.81,4.82,8.85,13.29,14.98,23.02,16.96-11.14,4.96-21.1,12.2-29.27,21.29,.2-3.29,.01-6.59-.56-9.84-.5-2.79-2.08-9.88-6.03-15.36-8.4-11.62-24.95-12.39-31.74-12.18,1.52-2.57,4.25-5.98,8.75-8.09,3.78-1.77,7.4-1.95,9.76-1.79l2.28,.15-3.18-12.65h0Zm56.7-53.91c.09-.14,.19-.27,.28-.41,.23-.34,.47-.68,.71-1.01,.4-.58,.81-1.15,1.22-1.71,.15-.21,.3-.42,.45-.63,.11-.15,.21-.29,.32-.43h0c.8-1.12,1.63-2.22,2.46-3.31,6.56-8.61,13.87-16.73,21.76-24.21V122.54c-1.08,.01-2.16,.05-3.22,.12-4.45-1.18-8.58-3.1-12.28-5.72-6.36-4.5-9.57-9.75-11.3-12.58-1.64-2.68-3.48-5.7-4.32-10.1-.47-2.48-.33-3.86-.14-5.76,.13-1.36,.29-2.9,.26-5.13-.05-3.6-.16-11.1-4.59-18.49-1.39-2.32-2.98-4.25-4.56-5.83,3.86-7.38,8.18-14.51,12.94-21.35h0Zm-4.59,.81c-2.06,3.06-4.03,6.19-5.91,9.36-.05,.13-.09,.27-.16,.39-.51,1-1.09,1.96-1.68,2.91-.52,.84-1.08,1.67-1.54,2.54-.42,.8-.81,1.63-1.52,2.22-.31,.27-.68,.26-.97,.11h0s-.07-.04-.11-.07l-.06-.04c-1.54-1.16-2.83-1.95-3.56-2.37-2.35-1.4-4.27-2.12-7.44-3.3l-1.02-.38c-2.03-.76-4.4-1.65-7.16-2.46h0c-.09-.02-.19-.04-.29-.06,10.21-3.88,20.74-6.85,31.41-8.86h0Zm-97.15,59.99c.03-1.65,.07-3.51,.25-5.61,.14-1.73,.38-3.63,.78-5.72,0,0,0,0,0-.01,.07-.38,.15-.76,.23-1.16,.18-.81,.37-1.73,.62-2.74,.27-1.08,.59-2.26,1.01-3.52,.71-2.18,1.72-4.59,3.16-7.13,2.91-5.13,6.26-8.37,8.94-10.98,1.82-1.76,3.87-3.75,6.91-5.79,.54-.36,1.08-.7,1.62-1.02,1-.6,1.99-1.14,2.97-1.61,5.38-2.65,10.25-3.55,12.9-4.04,4.75-.88,9.86-1.11,14.78-.67,.13,.01,.26,.03,.39,.04,.13,0,.26,.03,.39,.04,1.56,.03,3.06,.25,4.47,.66,.1,.02,.2,.05,.29,.08v-.03c.27,.05,.53,.11,.79,.17,.02,0,.05,0,.07,.01,4.65,.98,8.44,2.4,11.45,3.53l1.03,.38c3.09,1.16,4.8,1.79,6.88,3.04,.97,.58,2.76,1.65,4.75,3.35,.82,.7,1.68,1.49,2.52,2.42,1.15,1.25,2.28,2.7,3.3,4.4,3.97,6.63,4.07,13.53,4.12,16.84,.03,2.04-.12,3.48-.25,4.75-.2,2.02-.37,3.76,.19,6.71,.95,4.99,3.05,8.43,4.74,11.2,1.85,3.03,5.29,8.68,12.22,13.57,2.06,1.45,4.25,2.72,6.54,3.77-5.58,.8-11.06,2.14-16.39,4.01q-3.55,1.25-.01,0c5.31-1.87,0,0-.01,0,0,0,0,0-.01,0-11.18-.09-21.38-6.17-26.68-15.9-8.3-15.23,.78-30.28,.87-30.43l1.67-2.7-3.18,.18c-3.18,.18-7.93,1.1-12.52,4.48-4.41,3.24-6.7,7.33-7.87,10.33l-14.16-9.2,4.16,16.55c-3.18,.09-6.31,.82-9.14,2.14-7.3,3.41-10.59,9.73-11.68,12.3l-1.09,2.61,2.82-.32c.91-.1,22.27-2.34,31.64,10.62,3.66,5.06,5.1,11.99,5.45,14,.82,4.6,.79,9.29-.08,13.94q-.58,3.1,0,.01c-3.4,4.36-6.38,9.02-8.87,13.93-.07-.8-.16-1.61-.29-2.4-.27-1.78-1.02-5.38-2.92-9.53-2.21-4.85-4.92-8.03-6.54-9.94-1.68-1.97-3.42-4.02-6.28-6.06-2.13-1.51-4.78-2.88-7.45-3.84-2.1-.76-3.36-.97-4.58-1.18-1.05-.17-2.14-.35-3.93-.92-1.84-.58-4.63-1.47-7.48-3.43-3.56-2.43-5.49-5.3-7.05-7.61-2.22-3.29-3.98-7.13-5.09-11.13-1.53-5.49-1.44-9.89-1.33-15.46h0Zm-19.14,20.36c4.69-7.68,10-15.03,15.83-21.9-.01,.51-.03,1-.03,1.47-.12,5.84-.21,10.45,1.46,16.41,.41,1.47,.89,2.91,1.46,4.33-7.28,1.08-14.51,2.62-21.6,4.59,.9-1.59,1.86-3.22,2.88-4.9Zm-14.97,12.23c1.78-.64,3.56-1.25,5.37-1.84,1.49-.48,2.98-.95,4.49-1.39,8.26-2.46,16.71-4.31,25.24-5.54,.79,1.62,1.69,3.17,2.67,4.61,1.62,2.41,3.85,5.71,7.92,8.5,3.26,2.23,6.46,3.25,8.36,3.85,2.02,.64,3.28,.85,4.39,1.04,1.17,.19,2.18,.36,3.99,1.02,3.24,1.17,5.55,2.65,6.65,3.43,2.52,1.79,4.06,3.59,5.67,5.5,1.61,1.89,4.03,4.74,6.05,9.17,1.73,3.78,2.4,7.05,2.66,8.66,.52,3.31,.51,6.68-.03,10h0c-.23,.62-.47,1.24-.69,1.87l-83.95-26.47-3.18-1.01-24.71-7.79c9.25-5.4,19.03-9.96,29.11-13.6h0Zm-13.59,44.89c-.57-.82-1.14-1.65-1.7-2.48-.67-.98-1.32-1.97-1.97-2.95-4.73-7.26-9.01-14.85-12.76-22.66l24.58,7.75,3.18,1,83.92,26.47c-.42,1.34-.8,2.67-1.14,3.97h0c-1.56,2.38-3.34,4.54-5.33,6.48-.61,.59-1.24,1.16-1.88,1.71-.65,.56-1.33,1.09-2.02,1.6-6.25,4.61-12.29,6.04-15.53,6.8-3.07,.71-6.55,1.52-10.99,.96-2.52-.32-3.79-.88-5.55-1.64-1.26-.55-2.68-1.18-4.83-1.83-3.18-.98-10.64-3.29-19.1-1.38-2.38,.54-4.73,1.38-6.99,2.52-5.97-6.06-11.57-12.48-16.72-19.22-.95-1.23-1.88-2.47-2.78-3.72-.82-1.12-1.62-2.24-2.41-3.37h0Zm18.92,28.02c-2.18,1.39-3.72,2.73-4.46,3.37-2.06,1.78-3.32,3.36-5.42,5.98l-.71,.88c-1.35,1.67-3.01,3.75-4.72,6.24-.24-3.77-.37-7.58-.37-11.37,0-7.16,.44-14.35,1.32-21.42,4.49,5.68,9.29,11.13,14.36,16.31h0Zm7.43,92.29c-.24-.1-.47-.21-.71-.31-1.66-.74-3.3-1.57-5-2.54-2.84-1.64-7.12-4.11-11.33-8.67-3.99-4.33-6.05-8.49-7.74-11.87-1.12-2.25-2.38-4.81-3.39-8.3-1.99-6.91-1.63-13.01-1.2-16.79,.08-.68,.16-1.29,.23-1.82,.07-.49,.14-.99,.22-1.49,.69-4.29,1.96-8.65,3.71-12.7,.79-1.85,1.7-3.65,2.68-5.37,2.42-4.27,5.15-7.66,7.13-10.14l.71-.89c1.66-2.07,2.72-3.39,4.04-4.65,.3-.29,.62-.58,.96-.88,.06-.05,.12-.11,.19-.17,.2-.17,.43-.37,.71-.6,.18-.15,.37-.31,.59-.47,.83-.66,1.9-1.44,3.19-2.23,.34-.21,.7-.42,1.07-.62,.66-.37,1.34-.7,2.02-1,1.71-.78,3.46-1.37,5.23-1.77,7.58-1.71,14.2,.33,17.38,1.31,1.96,.6,3.3,1.18,4.48,1.7,1.86,.81,3.46,1.51,6.46,1.89,5.04,.64,9-.28,12.18-1.02,3.47-.82,9.95-2.34,16.75-7.36,.76-.56,1.5-1.15,2.21-1.76,.47-.4,.92-.8,1.37-1.22,.25-.23,.49-.46,.72-.68,.43-.42,.85-.86,1.26-1.29,.01-.02,.03-.03,.05-.05-.04,.23-.08,.46-.11,.69-.02,.13-.04,.26-.06,.39-.05,.33-.11,.67-.15,1.01-.15,1.02-.28,2.03-.39,3.05-.03,.31-.07,.61-.09,.91-.02,.17-.03,.34-.05,.5-.04,.36-.07,.71-.09,1.07-.04,.48-.07,.97-.11,1.45-.03,.55-.07,1.11-.09,1.67,0,.16-.01,.33-.02,.48-.01,.33-.03,.66-.03,1-.01,.28-.02,.56-.03,.84,0,.5-.01,1-.01,1.51,0,.7,0,1.41,.03,2.11-3.52,10.58-12.51,18.4-23.48,20.41-17.12,3.14-28.71-10.09-28.83-10.23l-2.07-2.41-.81,3.07c-.81,3.06-1.4,7.84,.41,13.23,1.74,5.18,4.94,8.61,7.44,10.64l-13.16,10.55,17.12,1.18c-.9,3.04-1.17,6.22-.77,9.31,1,7.95,6.03,13.03,8.14,14.84l2.16,1.85,.57-2.78c.19-.88,4.65-21.79,19.93-26.64,5.97-1.89,13.04-1.12,15.07-.84,4.66,.65,9.14,2.13,13.32,4.4,.73,1.08,1.49,2.13,2.27,3.17,.47,.64,.96,1.26,1.46,1.88,.92,1.16,1.87,2.3,2.85,3.41,1.28,1.45,2.61,2.86,4,4.23-.79-.18-1.58-.34-2.38-.46-1.78-.29-5.43-.7-10.02-.18-5.32,.59-9.21,2.17-11.52,3.11-2.4,.98-4.89,1.98-7.74,4.07-2.14,1.59-4.21,3.61-5.97,5.86-1.38,1.75-1.97,2.88-2.54,3.97-.49,.94-1.01,1.91-2.1,3.43-1.13,1.57-2.85,3.93-5.59,6.02-3.41,2.6-6.76,3.55-9.46,4.32-1.86,.53-3.86,.92-5.94,1.16-2.07,.24-4.17,.31-6.26,.22-5.73-.25-9.89-1.69-15.19-3.51-1.83-.64-3.72-1.29-5.85-2.21h0Zm25.42,9.37c-.15,.89-.29,1.78-.42,2.68-.11,.7-.21,1.39-.3,2.1-.07,.46-.13,.92-.19,1.38-.07,.58-.15,1.16-.21,1.74-.12,.98-.23,1.96-.33,2.94-.05,.52-.11,1.04-.15,1.57-.07,.75-.14,1.5-.2,2.26-.06,.66-.11,1.33-.15,1.99-.04,.58-.08,1.17-.11,1.75-.03,.58-.07,1.18-.1,1.76-.02,.42-.04,.84-.06,1.25-5.95-6.42-11.44-13.32-16.36-20.56-1.2-1.77-2.38-3.57-3.52-5.39,.5,.18,.99,.35,1.46,.51,5.53,1.91,9.91,3.42,16.12,3.69,.62,.03,1.24,.04,1.87,.04,.41,0,.83,0,1.23-.02,.35,0,.69-.02,1.04-.05,.08,0,.17,0,.25-.01,.03,0,.07,0,.1,0h.09c-.02,.13-.04,.25-.06,.37h0Zm4.79,65.7c-.14-.66-.28-1.32-.41-1.99-1.89-9.39-3-18.98-3.33-28.53-.05-1.36-.08-2.72-.09-4.04,0-.25,0-.5,0-.76-.01-1.22,0-2.43,0-3.69,.01-.39,.02-.79,.03-1.19,.02-1.1,.06-2.2,.1-3.29,.06-1.56,.15-3.13,.25-4.69,.04-.63,.09-1.26,.13-1.89,.04-.54,.09-1.09,.13-1.63,.05-.54,.1-1.09,.15-1.63,.05-.54,.11-1.1,.17-1.65,.05-.55,.11-1.1,.18-1.65,.05-.46,.11-.93,.17-1.39,.09-.73,.19-1.47,.29-2.2,.03-.2,.05-.4,.08-.6,.11-.78,.23-1.56,.35-2.34,.08-.54,.17-1.08,.25-1.63,.09-.54,.18-1.08,.27-1.62,1.82-.26,3.57-.62,5.23-1.1,2.97-.84,6.66-1.88,10.57-4.87,3.13-2.38,5.09-5.09,6.27-6.71,1.24-1.71,1.83-2.84,2.35-3.84,.55-1.05,1.02-1.95,2.21-3.46,1.58-2.02,3.43-3.83,5.33-5.24,2.52-1.84,4.7-2.72,7.02-3.67,2.3-.94,5.77-2.35,10.63-2.89,4.35-.48,7.82-.05,9.11,.17,3.35,.54,6.58,1.59,9.6,3.15,.05,.05,.11,.09,.16,.13,.01,.01,.02,.02,.03,.03,.07,.07,.15,.12,.22,.18,.37,.29,.74,.58,1.11,.86l-64.79,90.03-3.51,4.88c-.09-.4-.18-.8-.27-1.22h0Zm42.68-6.27c-2.52,.87-5.11,1.71-7.7,2.48-10.43,3.13-21.16,5.43-31.96,6.87l2.88-4,3.56-4.96,61.78-85.83c.95,.67,1.91,1.33,2.88,1.95,.14,.1,.28,.19,.42,.28,.02,.01,.03,.03,.05,.03,.02,.01,.03,.03,.05,.03,0,0,.01,0,.01,.01,.18,.22,.36,.44,.53,.67,.17,.21,.33,.42,.49,.64,.83,1.12,1.6,2.26,2.3,3.45,.15,.25,.29,.49,.43,.74,.14,.25,.28,.5,.41,.76,.13,.25,.27,.5,.39,.76,.26,.51,.51,1.03,.73,1.55,.23,.52,.45,1.05,.65,1.58,.21,.52,.41,1.06,.59,1.61,2.5,7.36,1.98,13.49,1.7,16.78-.27,3.12-.56,6.67-2.48,10.7-1.09,2.28-2.01,3.31-3.29,4.74-.91,1.02-1.95,2.18-3.24,4-2.08,2.94-6.42,9.07-7.21,17.64-.08,.9-.12,1.79-.12,2.7,0,.37,0,.73,.02,1.1,0,.33,.03,.65,.05,.98,.01,.21,.03,.43,.05,.64,.01,.2,.03,.39,.06,.59,.03,.4,.09,.8,.15,1.2,0,.07,.01,.13,.03,.19-.15,.07-.29,.15-.43,.21-.67,.33-1.34,.66-2.02,.98-.43,.21-.87,.41-1.3,.62-.61,.29-1.23,.58-1.84,.86-1.4,.64-2.8,1.26-4.22,1.87-.72,.31-1.44,.62-2.16,.92-.22,.09-.43,.19-.65,.27-.21,.09-.43,.18-.65,.27-1.24,.5-2.47,1-3.71,1.47-.8,.31-1.6,.62-2.4,.92-1.62,.6-3.23,1.18-4.85,1.73h0Zm4.87,1.8s.09-.03,.13-.05c1.82-.66,3.64-1.36,5.45-2.08,.69-.27,1.38-.55,2.06-.84,1.58-.64,3.14-1.31,4.7-2,.19-.08,.37-.16,.56-.25,.02,0,.04-.01,.06-.03,.37-.17,.74-.33,1.11-.5,.12-.05,.24-.11,.36-.17,.67-.3,1.34-.6,2-.92,1.21-.56,2.43-1.14,3.63-1.74,.65,2.44,1.43,4.28,1.85,5.27,1.06,2.49,2.18,4.18,4.03,6.97l.63,.96c1.17,1.77,2.66,4.02,4.54,6.43-10.69-2.69-21.14-6.39-31.12-11.06h0Zm114.53,8.08c-.58,.76-1.19,1.55-1.85,2.38l-.17,.22s-.04,.05-.07,.08c-.43,.54-.93,1.14-1.48,1.77-.11,.13-.24,.27-.36,.41-1.17,1.33-2.38,2.56-3.67,3.77h0c-.27,.25-.54,.5-.81,.74-2.44,2.18-6.12,5.46-11.79,8.03-5.4,2.46-10.01,3.11-13.72,3.65h-.08c-1.94,.29-3.93,.58-6.37,.65-.83,.03-1.69,.03-2.56,0-8.55-.31-14.99-3.36-18.09-4.83-4.35-2.05-8.62-4.85-12.35-8.09-.1-.09-.21-.18-.31-.27-1.39-1.22-2.69-2.49-3.96-3.86l-.36-.4-.26-.29-.3-.33c-1.8-2.05-3.29-4.05-4.56-5.88-.75-1.08-1.43-2.1-2.04-3.03l-.64-.97c-1.8-2.72-2.79-4.22-3.74-6.43-.42-1-1.25-2.93-1.87-5.48-.09-.39-.19-.8-.27-1.22-.07-.36-.13-.71-.19-1.07-.06-.38-.11-.76-.15-1.14,0-.05-.01-.1-.01-.15-.02-.21-.05-.42-.06-.62-.02-.26-.04-.52-.05-.78-.01-.07-.01-.15-.01-.21,0-.15-.01-.31-.02-.45v-.11c0-.25-.01-.5-.01-.76,0-.81,.03-1.61,.11-2.4,.71-7.68,4.7-13.32,6.62-16.04,1.18-1.67,2.15-2.75,3-3.7,1.36-1.51,2.52-2.82,3.82-5.53,2.17-4.58,2.51-8.61,2.78-11.84,.28-3.28,.85-10.1-1.86-18.12-.19-.56-.39-1.11-.6-1.65-.05-.13-.09-.25-.15-.38-.05-.13-.1-.26-.15-.39-.11-.27-.22-.52-.33-.78-.11-.27-.23-.54-.35-.8-.11-.23-.21-.44-.32-.67-.12-.25-.24-.49-.37-.74-.24-.46-.49-.94-.74-1.39,0-.02-.02-.03-.03-.05,4.98,2.6,10.17,4.71,15.53,6.3l.19,.19h.13c8.85,6.63,13.43,17.43,11.98,28.32-2.29,17.17-18.53,24.04-18.69,24.11l-2.95,1.21,2.68,1.72c2.68,1.71,7.04,3.74,12.78,3.7,5.49-.05,9.76-2.01,12.48-3.76l6.02,15.72,6.42-15.82c2.64,1.79,5.59,3.02,8.67,3.61,7.91,1.51,14.32-1.68,16.71-3.12l2.43-1.47-2.48-1.39c-.79-.45-19.39-11.12-19.31-27.09,.03-6.23,2.96-12.69,3.86-14.51,2.06-4.19,4.84-7.96,8.29-11.21,5.37-1.54,10.51-3.58,15.42-6.09-.42,.68-.81,1.38-1.18,2.09-1.42,2.78-2.58,6.12-3.26,9.42-1.07,5.21-.76,9.38-.57,11.87,.19,2.58,.39,5.26,1.5,8.57,.47,1.42,1.59,4.28,3.76,7.47,1.24,1.83,2.14,2.74,3,3.62,.75,.76,1.52,1.54,2.64,3.05,1.07,1.45,2.86,3.87,4.03,7.14,1.44,4.03,1.31,7.5,1.2,10.27-.07,1.96-.32,3.98-.73,5.99-.41,2.01-.99,4.03-1.73,6-1.41,3.75-3.14,6.59-5.21,9.48-.88,1.23-1.83,2.47-2.84,3.8h0Zm1.72,3.23c.32-.42,.63-.83,.93-1.23,3.54-4.65,6.34-8.32,8.52-14.13,.53-1.43,.99-2.88,1.38-4.35,6.54,3.37,13.29,6.35,20.19,8.91-9.97,4.57-20.37,8.19-31.02,10.8Zm75.55-3.76c-1.87-.19-3.75-.42-5.61-.68-8.38-1.15-16.69-2.89-24.81-5.22-1.82-.52-3.63-1.07-5.43-1.65h0c-1.49-.47-2.96-.97-4.44-1.49-8.14-2.85-16.08-6.29-23.71-10.28,.31-1.78,.49-3.56,.57-5.3,.11-3.06,.25-6.87-1.39-11.51-1.34-3.74-3.32-6.41-4.49-8-1.26-1.7-2.16-2.61-2.94-3.41-.83-.84-1.55-1.57-2.62-3.15-1.94-2.86-2.94-5.4-3.36-6.66-.98-2.92-1.15-5.27-1.34-7.77-.18-2.46-.46-6.19,.52-10.96,.84-4.06,2.22-7.11,2.96-8.57,1.54-2.97,3.53-5.68,5.93-8.05,0,0,.01,0,.01,0,.56-.37,1.12-.74,1.67-1.12l52.26,70.49,1.98,2.67,15.4,20.78c-.39-.03-.77-.07-1.16-.12h0Zm7.24-38.41c-.01,.2-.05,.39-.1,.56,0,1.2-.02,2.39-.04,3.59-.23,10.81-1.34,21.67-3.31,32.33l-15.32-20.66-1.98-2.67-52.24-70.48c1.01-.74,2.01-1.51,3-2.31h.09l.23-.23c4.27-1.62,8.71-2.47,13.21-2.52,7.8-.07,13.51,2.3,16.58,3.58,2.9,1.21,6.18,2.58,9.46,5.65,1.85,1.73,2.55,2.93,3.52,4.58,.69,1.18,1.48,2.51,2.82,4.3,2.17,2.88,6.68,8.88,14.64,12.28,2.49,1.06,4.93,1.69,7.14,2.05,1.26,8.38,1.98,16.84,2.17,25.3,.02,.76,.03,1.52,.04,2.28h-.02c.02,.12,.04,.23,.04,.33,0,.68,.12,1.37,.09,2.05h0Zm3.08-8.02c-.27-7.22-.93-14.42-1.97-21.57,.71,.05,1.38,.06,1.99,.06,1.61,0,2.86-.11,3.61-.18,2.72-.24,4.69-.78,7.96-1.67l1.05-.29c2.16-.6,4.71-1.29,7.53-2.29-5.88,9.24-12.63,17.94-20.17,25.95Zm49.03-95.95h0c.15,.34,.31,.68,.47,1.03,1.16,2.6,2.84,6.37,3.71,11.37,.13,.72,.24,1.47,.33,2.25,.04,.36,.07,.71,.1,1.06,.48,5.35-.25,9.6-.85,13.05-.43,2.48-.91,5.3-2.17,8.72-2.92,7.98-7.84,13.14-10.2,15.62-3.32,3.49-7.32,6.67-11.56,9.19-.11,.07-.23,.14-.35,.21h0c-1.87,1.1-3.68,2.01-5.43,2.78-4.33,1.91-8.22,2.97-11.31,3.82l-1.06,.29c-3.18,.88-4.94,1.35-7.36,1.57-1.03,.09-3.14,.28-5.83,.06-1.07-.09-2.24-.24-3.46-.48-1.68-.33-3.46-.85-5.27-1.62-7.14-3.04-11.29-8.56-13.28-11.21-1.23-1.63-1.96-2.88-2.61-3.98-1.03-1.75-1.92-3.26-4.11-5.32-3.72-3.48-7.46-5.04-10.46-6.29-3.28-1.37-9.44-3.93-17.9-3.84-2.53,.03-5.05,.29-7.52,.77,4.05-3.93,7.67-8.21,10.85-12.79h0c9.11-6.51,21-7.58,31.06-2.8,15.71,7.48,17.26,24.95,17.28,25.13l.25,3.17,2.48-2.01c2.46-2,5.76-5.52,7.48-10.94,1.65-5.21,1.09-9.85,.26-12.96l16.89-.84-13.15-10.96c2.52-1.93,4.62-4.35,6.13-7.08,3.89-7.02,2.82-14.06,2.18-16.77l-.65-2.76-2.1,1.91c-.67,.61-16.63,14.91-31.86,9.9-5.96-1.96-11.22-6.73-12.69-8.13-3.38-3.25-6.13-7.06-8.18-11.34h0c.03-.95,.04-1.83,.04-2.7,0-4.63-.37-9.24-1.09-13.76,.53,.61,1.08,1.2,1.66,1.78,1.28,1.27,4.01,3.75,7.98,6,4.66,2.63,8.73,3.62,11.17,4.21,2.53,.62,5.15,1.25,8.66,1.23,1.52-.01,4.61-.19,8.3-1.25,2.14-.61,3.28-1.18,4.39-1.73,.96-.47,1.95-.96,3.73-1.55,1.84-.6,4.61-1.51,8.08-1.61,4.31-.11,7.57,1.08,10.19,2.04,3.74,1.36,7.44,3.45,10.69,6.02,4.49,3.55,7.02,7.16,10.21,11.73,.95,1.36,2.02,2.89,3.12,4.7h0c.91,1.5,1.85,3.19,2.77,5.13h0Zm-17.78-26.81c5.24-5.13,10.17-10.58,14.75-16.31,.78,6.67,1.17,13.44,1.17,20.17,0,4.13-.15,8.3-.45,12.44-.29-.42-.58-.84-.85-1.23-3.35-4.79-6-8.57-10.87-12.42-1.2-.94-2.45-1.83-3.75-2.65h0Zm23.61-34.52c-.62,1-1.26,1.99-1.91,2.97-.48,.74-.97,1.48-1.48,2.22-1.06,1.56-2.14,3.11-3.26,4.63-.91,1.26-1.85,2.52-2.81,3.75h0c-5.23,6.81-10.97,13.25-17.14,19.24-1.6-.84-3.24-1.57-4.89-2.17-2.74-1-6.5-2.37-11.44-2.24-3.97,.11-7.14,1.15-9.05,1.77-2.01,.66-3.16,1.23-4.17,1.73-1.07,.52-1.98,.98-3.83,1.51-3.31,.94-6.06,1.1-7.41,1.12-3.09,.04-5.4-.54-7.84-1.13-2.41-.59-6.06-1.48-10.31-3.88-3.63-2.05-6.11-4.3-7.27-5.46-2.37-2.37-4.35-5.1-5.87-8.09,0-.01-.01-.03-.01-.04-.15-.63-.34-1.27-.53-1.9l83.57-27.66,3.17-1.05,24.6-8.14c-3.48,7.89-7.54,15.54-12.14,22.83Z"/>
      </g>
    </g>
  </g>
</svg>